SplineFontDB: 3.2
FontName: cclgcb
FullName: Concrete LGC Bold
FamilyName: Concrete LGC 
Weight: Bold
Copyright: Copyright (c) 2022, Nikola Lecic, Andrey Panov, Claudio Beccari, Luis Rivera
UComments: "2022-12-23: Created with FontForge (http://fontforge.org)"
Version: 001.000
ItalicAngle: 0
UnderlinePosition: -100
UnderlineWidth: 50
Ascent: 800
Descent: 200
InvalidEm: 0
LayerCount: 2
Layer: 0 0 "Atr+AOEA-s" 1
Layer: 1 0 "Fore" 0
XUID: [1021 435 22966 2948]
OS2Version: 0
OS2_WeightWidthSlopeOnly: 0
OS2_UseTypoMetrics: 1
CreationTime: 1671824425
ModificationTime: 1671824524
OS2TypoAscent: 0
OS2TypoAOffset: 1
OS2TypoDescent: 0
OS2TypoDOffset: 1
OS2TypoLinegap: 0
OS2WinAscent: 0
OS2WinAOffset: 1
OS2WinDescent: 0
OS2WinDOffset: 1
HheadAscent: 0
HheadAOffset: 1
HheadDescent: 0
HheadDOffset: 1
OS2Vendor: 'PfEd'
MarkAttachClasses: 1
DEI: 91125
Encoding: UnicodeFull
Compacted: 1
UnicodeInterp: none
NameList: Adobe Glyph List
DisplaySize: -24
AntiAlias: 1
FitToEm: 0
WinInfo: 0 32 10
OnlyBitmaps: 1
BeginPrivate: 0
EndPrivate
BeginChars: 1114685 2165

StartChar: endash
Encoding: 8211 8211 0
Width: 605
Flags: MW
HStem: 256 37<0 604 0 604>
LayerCount: 2
Fore
SplineSet
0 256 m 1
 0 293 l 1
 604 293 l 1
 604 256 l 1
 0 256 l 1
EndSplineSet
EndChar

StartChar: uni0020032F
Encoding: 1114112 -1 1
Width: 403
Flags: MW
HStem: -107 62<184 256>
LayerCount: 2
Fore
SplineSet
185 -45 m 0
 223 -39 330 -54 383 -154 c 0
 420 -221 396 -234 386 -236 c 0
 380 -237 378 -234 374 -225 c 0
 360 -189 311 -107 201 -107 c 0
 186 -107 179 -107 171 -108 c 0
 105 -120 53 -163 28 -225 c 0
 24 -234 22 -237 16 -236 c 0
 6 -234 0 -227 -1 -215 c 0
 -3 -183 49 -61 173 -46 c 0
 177 -45 183 -45 185 -45 c 0
EndSplineSet
EndChar

StartChar: u10144
Encoding: 65860 65860 2
Width: 1008
Flags: MW
HStem: 0 122<414 481.5 414 618.5> 666 20G<67 940 940 940>
LayerCount: 2
Fore
SplineSet
67 0 m 1
 67 686 l 1
 940 686 l 1
 940 0 l 1
 814 0 l 1
 814 560 l 1
 193 560 l 1
 193 0 l 1
 67 0 l 1
483 495 m 0
 485 495 492 496 504 496 c 0
 515 496 522 495 524 495 c 0
 530 493 536 488 539 484 c 0
 540 481 592 375 653 248 c 0
 739 68 764 16 764 13 c 0
 764 7 762 4 758 2 c 0
 754 0 733 0 504 0 c 0
 274 0 253 0 249 2 c 0
 245 4 243 7 243 13 c 0
 243 16 268 68 354 248 c 0
 415 375 467 481 468 484 c 0
 471 488 477 493 483 495 c 0
508 218 m 2
 483 270 461 317 458 322 c 2
 454 331 l 1
 448 319 l 2
 441 302 354 123 354 123 c 2
 354 122 374 122 454 122 c 0
 509 122 554 122 554 123 c 2
 508 218 l 2
EndSplineSet
EndChar

StartChar: u10145
Encoding: 65861 65861 3
Width: 1008
Flags: MW
HStem: 0 48<262 311 262 269 269 311 423 471 471 479 528 536 536 584 696 738 738 745> 225 48<423 584 423 584> 448 47<286 311 262 453 423 423 423 453 286 479 554 584 696 696 696 721> 666 20G<67 940 940 940>
VStem: 584 112<48 225 225 225 273 448 48 448>
LayerCount: 2
Fore
SplineSet
67 0 m 1
 67 686 l 1
 940 686 l 1
 940 0 l 1
 814 0 l 1
 814 560 l 1
 193 560 l 1
 193 0 l 1
 67 0 l 1
471 0 m 2
 459 3 283 3 269 0 c 2
 262 0 l 1
 262 48 l 1
 311 48 l 1
 311 448 l 1
 262 448 l 1
 262 496 l 1
 286 495 l 2
 317 494 419 494 453 495 c 2
 479 496 l 1
 479 448 l 1
 423 448 l 1
 423 273 l 1
 584 273 l 1
 584 448 l 1
 528 448 l 1
 528 496 l 1
 554 495 l 2
 588 494 690 494 721 495 c 2
 745 496 l 1
 745 448 l 1
 696 448 l 1
 696 48 l 1
 745 48 l 1
 745 0 l 1
 738 0 l 2
 724 3 548 3 536 0 c 2
 528 0 l 1
 528 48 l 1
 584 48 l 1
 584 225 l 1
 423 225 l 1
 423 48 l 1
 479 48 l 1
 479 0 l 1
 471 0 l 2
EndSplineSet
EndChar

StartChar: u10146
Encoding: 65862 65862 4
Width: 1008
Flags: MW
HStem: 0 48<270 284 270 277 277 284 284 298.5 455 458 458 465 500 508 508 518 518 523 708 731 731 739> 448 48<268 330 268 268> 666 20G<67 940 940 940>
LayerCount: 2
Fore
SplineSet
67 0 m 1
 67 686 l 1
 940 686 l 1
 940 0 l 1
 814 0 l 1
 814 560 l 1
 193 560 l 1
 193 0 l 1
 67 0 l 1
458 0 m 2
 450 3 288 4 277 0 c 1
 270 0 l 1
 270 48 l 1
 284 48 l 2
 313 48 345 51 354 55 c 0
 360 58 355 50 423 163 c 2
 452 212 l 1
 330 448 l 1
 268 448 l 1
 268 496 l 1
 295 495 l 2
 330 494 442 494 479 495 c 2
 507 496 l 1
 507 448 l 1
 471 448 l 1
 499 393 l 2
 520 352 528 338 529 339 c 0
 529 340 543 362 559 389 c 0
 588 438 588 438 586 440 c 0
 583 443 566 447 553 448 c 2
 542 448 l 1
 542 496 l 1
 565 495 l 2
 595 494 686 494 715 495 c 2
 737 496 l 1
 737 448 l 1
 711 448 l 2
 674 447 653 444 648 438 c 0
 647 437 626 402 601 361 c 2
 555 285 l 1
 677 49 l 1
 708 48 l 1
 739 48 l 1
 739 0 l 1
 731 0 l 2
 718 3 520 3 508 0 c 2
 500 0 l 1
 500 48 l 1
 518 48 l 2
 528 48 536 48 536 49 c 0
 534 52 480 158 479 158 c 2
 449 108 l 2
 426 71 419 58 420 57 c 0
 422 54 439 50 455 48 c 2
 465 48 l 1
 465 0 l 1
 458 0 l 2
EndSplineSet
EndChar

StartChar: u10147
Encoding: 65863 65863 5
Width: 1008
Flags: MW
HStem: 0 48<256 270 256 262 262 270 400 408 408 414 527 535 535 576 702 743 743 751> 448 48<256 304 304 305 256 304 702 702 702 751> 666 20G<67 940 940 940>
VStem: 305 60<58 205 58 448> 576 126<48 214 214 260>
LayerCount: 2
Fore
SplineSet
67 0 m 1
 67 686 l 1
 940 686 l 1
 940 0 l 1
 814 0 l 1
 814 560 l 1
 193 560 l 1
 193 0 l 1
 67 0 l 1
270 48 m 2
 298 50 300 53 305 57 c 1
 305 448 l 1
 256 448 l 1
 256 496 l 1
 304 496 l 2
 398 496 320 490 402 490 c 0
 433 490 456 494 459 474 c 0
 460 472 470 426 482 373 c 2
 504 276 l 1
 526 373 l 2
 549 475 545 490 573 490 c 0
 579 490 581 490 582 492 c 0
 586 496 584 496 670 496 c 2
 751 496 l 1
 751 448 l 1
 702 448 l 1
 702 48 l 1
 751 48 l 1
 751 0 l 1
 743 0 l 2
 730 3 547 3 535 0 c 2
 527 0 l 1
 527 48 l 1
 576 48 l 1
 576 214 l 2
 576 306 575 377 575 377 c 1
 575 375 556 293 535 195 c 0
 513 97 495 15 494 14 c 0
 488 0 476 0 468 0 c 0
 458 0 446 0 440 15 c 0
 440 17 423 94 402 186 c 2
 366 353 l 1
 365 205 l 1
 365 58 l 2
 368 54 371 50 400 48 c 2
 414 48 l 1
 414 0 l 1
 408 0 l 2
 399 3 272 3 262 0 c 2
 256 0 l 1
 256 48 l 1
 270 48 l 2
EndSplineSet
EndChar

StartChar: uni03DB
Encoding: 987 987 6
Width: 605
Flags: MW
HStem: 0 21G<279 312.5> 353 97
VStem: 50 54<211 229> 500 55<-42 -36 -36 -36>
LayerCount: 2
Fore
SplineSet
254 -98 m 0
 254 -83 264 -73 273 -72 c 0
 275 -72 299 -71 326 -71 c 0
 440 -69 480 -62 500 -42 c 1
 500 -36 l 1
 494 6 427 6 384 1 c 0
 372 0 332 0 293 0 c 0
 265 0 209 -5 164 13 c 0
 95 41 53 97 50 211 c 0
 50 247 52 274 58 301 c 0
 75 378 127 432 201 447 c 1
 212 450 l 1
 332 450 l 2
 448 450 452 450 461 452 c 0
 498 460 498 474 500 485 c 0
 506 527 542 512 551 499 c 0
 553 494 553 493 553 481 c 0
 553 434 516 384 441 361 c 0
 412 353 422 354 310 353 c 0
 229 352 175 360 135 318 c 0
 110 293 104 260 104 221 c 0
 104 174 109 114 196 99 c 0
 216 97 378 97 402 95 c 0
 435 90 555 68 555 -26 c 0
 555 -104 461 -118 386 -123 c 0
 362 -125 278 -125 273 -124 c 0
 261 -121 254 -110 254 -98 c 0
EndSplineSet
EndChar

StartChar: uni03DB.var
Encoding: 1114113 -1 7
Width: 605
Flags: MW
HStem: 0 21G<279 312.5> 353 97
VStem: 50 54<211 229> 500 55<-42 -36 -36 -36>
LayerCount: 2
Fore
SplineSet
254 -98 m 0
 254 -83 264 -73 273 -72 c 0
 275 -72 299 -71 326 -71 c 0
 440 -69 480 -62 500 -42 c 1
 500 -36 l 1
 494 6 427 6 384 1 c 0
 372 0 332 0 293 0 c 0
 265 0 209 -5 164 13 c 0
 95 41 53 97 50 211 c 0
 50 247 52 274 58 301 c 0
 75 378 127 432 201 447 c 1
 212 450 l 1
 332 450 l 2
 448 450 452 450 461 452 c 0
 498 460 498 474 500 485 c 0
 506 527 542 512 551 499 c 0
 553 494 553 493 553 481 c 0
 553 434 516 384 441 361 c 0
 412 353 422 354 310 353 c 0
 229 352 175 360 135 318 c 0
 110 293 104 260 104 221 c 0
 104 174 109 114 196 99 c 0
 216 97 378 97 402 95 c 0
 435 90 555 68 555 -26 c 0
 555 -104 461 -118 386 -123 c 0
 362 -125 278 -125 273 -124 c 0
 261 -121 254 -110 254 -98 c 0
EndSplineSet
EndChar

StartChar: uni1FBE
Encoding: 8126 8126 8
Width: 269
Flags: MW
HStem: -156 48<42 48 42 90 48 90 179 221 221 227> 108 48<42 48 48 90 42 48 179 179 179 221 221 227>
VStem: 90 89<-108 108 -108 108>
LayerCount: 2
Fore
SplineSet
221 -156 m 2
 207 -153 57 -153 48 -156 c 2
 42 -156 l 1
 42 -108 l 1
 90 -108 l 1
 90 108 l 1
 42 108 l 1
 42 156 l 1
 48 156 l 2
 57 153 207 152 221 156 c 1
 227 156 l 1
 227 108 l 1
 179 108 l 1
 179 -108 l 1
 227 -108 l 1
 227 -156 l 1
 221 -156 l 2
EndSplineSet
EndChar

StartChar: uni1FBC
Encoding: 8124 8124 9
Width: 1171
Flags: MW
HStem: -156 48<921 927 921 969 927 969 1058 1100 1100 1106> 0 48<43 51 43 71 51 71 283 285 285 294 526 538 538 573 819 857 857 868> 108 48<921 927 927 969 921 927 1058 1058 1058 1100 1100 1106> 195 48<366 448.5 366 556> 678 20G<453 460>
VStem: 969 89<-108 108 -108 108>
LayerCount: 2
Fore
SplineSet
285 0 m 2
 272 3 66 4 51 0 c 1
 43 0 l 1
 43 48 l 1
 71 48 l 2
 109 49 134 52 142 56 c 0
 145 58 149 65 283 371 c 0
 396 630 420 684 423 688 c 0
 435 700 449 698 457 698 c 0
 463 698 476 700 488 688 c 0
 491 684 517 625 631 366 c 2
 770 49 l 1
 819 48 l 1
 868 48 l 1
 868 0 l 1
 857 0 l 2
 837 3 559 3 538 0 c 2
 526 0 l 1
 526 48 l 1
 573 48 l 1
 620 49 l 1
 556 195 l 1
 265 195 l 1
 235 127 l 2
 211 73 205 59 206 57 c 0
 210 53 250 48 283 48 c 2
 294 48 l 1
 294 0 l 1
 285 0 l 2
534 244 m 2
 410 526 l 1
 410 526 287 248 286 244 c 0
 286 243 322 243 410 243 c 0
 487 243 534 243 534 244 c 2
1100 -156 m 2
 1086 -153 936 -153 927 -156 c 2
 921 -156 l 1
 921 -108 l 1
 969 -108 l 1
 969 108 l 1
 921 108 l 1
 921 156 l 1
 927 156 l 2
 936 153 1086 152 1100 156 c 1
 1106 156 l 1
 1106 108 l 1
 1058 108 l 1
 1058 -108 l 1
 1106 -108 l 1
 1106 -156 l 1
 1100 -156 l 2
EndSplineSet
EndChar

StartChar: uni1FCC
Encoding: 8140 8140 10
Width: 1183
Flags: MW
HStem: -156 48<945 951 945 993 951 993 1082 1124 1124 1130> 0 48<45 57 45 153 57 153 296 392 392 404 537 549 549 645 788 884 884 896> 108 48<945 951 951 993 945 951 1082 1082 1082 1124 1124 1130> 333 48<296 645 296 645> 638 48<45 57 57 153 45 57 296 296 296 392 392 404 537 549 549 645 788 788 788 884 884 896>
VStem: 645 143<48 333 333 333 381 638 48 638> 993 89<-108 108 -108 108>
LayerCount: 2
Fore
SplineSet
392 0 m 2
 368 3 78 3 57 0 c 2
 45 0 l 1
 45 48 l 1
 153 48 l 1
 153 638 l 1
 45 638 l 1
 45 686 l 1
 57 686 l 2
 81 683 371 683 392 686 c 2
 404 686 l 1
 404 638 l 1
 296 638 l 1
 296 381 l 1
 645 381 l 1
 645 638 l 1
 537 638 l 1
 537 686 l 1
 549 686 l 2
 570 683 860 683 884 686 c 2
 896 686 l 1
 896 638 l 1
 788 638 l 1
 788 48 l 1
 896 48 l 1
 896 0 l 1
 884 0 l 2
 860 3 570 3 549 0 c 2
 537 0 l 1
 537 48 l 1
 645 48 l 1
 645 333 l 1
 296 333 l 1
 296 48 l 1
 404 48 l 1
 404 0 l 1
 392 0 l 2
1124 -156 m 2
 1110 -153 960 -153 951 -156 c 2
 945 -156 l 1
 945 -108 l 1
 993 -108 l 1
 993 108 l 1
 945 108 l 1
 945 156 l 1
 951 156 l 2
 960 153 1110 152 1124 156 c 1
 1130 156 l 1
 1130 108 l 1
 1082 108 l 1
 1082 -108 l 1
 1130 -108 l 1
 1130 -156 l 1
 1124 -156 l 2
EndSplineSet
EndChar

StartChar: uni1FFC
Encoding: 8188 8188 11
Width: 1145
Flags: W
HStem: -156 48<894 900 894 942 900 942 1031 1073 1073 1079> 0 21G<91 203 91 91 616 669 669 781> 108 48<894 900 900 942 894 900 1031 1031 1031 1073 1073 1079> 659 38<344.5 527.5>
VStem: 68 153<391.5 500.5 380 527.5> 91 238<0 99.5 2 99.5> 543 58<21.5 105.5> 651 153<391 500.5> 942 89<-108 108 -108 108>
LayerCount: 2
Fore
SplineSet
68 455 m 0xfb80
 68 600 209 697 430 697 c 0
 730 697 804 554 804 455 c 0
 804 327 692 245 620 139 c 0
 614 129 601 106 601 105 c 0
 601 104 688 104 703 105 c 0
 730 107 739 111 744 120 c 0
 754 140 763 197 764 201 c 1
 818 201 l 1
 818 199 l 1
 814 195 785 6 781 2 c 1
 781 0 l 1
 669 0 l 2
 563 0 557 0 553 2 c 0
 543 7 543 19 543 24 c 0
 543 173 651 303 651 459 c 0
 651 542 619 659 436 659 c 0
 253 659 221 542 221 459 c 0xfb80
 221 301 329 175 329 24 c 0
 329 -7 316 0 203 0 c 2
 91 0 l 1
 91 2 l 2xf780
 89 4 57 196 54 199 c 2
 54 201 l 1
 108 201 l 1
 126 111 123 108 169 105 c 0
 184 104 271 104 271 105 c 0
 271 106 258 129 252 139 c 0
 175 252 68 328 68 455 c 0xfb80
1073 -156 m 2
 1059 -153 909 -153 900 -156 c 2
 894 -156 l 1
 894 -108 l 1
 942 -108 l 1
 942 108 l 1
 894 108 l 1
 894 156 l 1
 900 156 l 2
 909 153 1059 152 1073 156 c 1
 1079 156 l 1
 1079 108 l 1
 1031 108 l 1
 1031 -108 l 1
 1079 -108 l 1
 1079 -156 l 1
 1073 -156 l 2
EndSplineSet
EndChar

StartChar: uni0391.alt
Encoding: 1114114 -1 12
Width: 913
Flags: MW
HStem: 0 48<43 51 43 71 51 71 283 285 285 294 527 539 539 574 574 586.5 771 858 858 869> 196 48<377 444.5 377 556> 678 20G<449.5 465>
LayerCount: 2
Fore
SplineSet
285 0 m 2
 272 3 66 4 51 0 c 1
 43 0 l 1
 43 48 l 1
 71 48 l 2
 118 49 144 53 146 59 c 0
 147 60 208 201 283 372 c 0
 366 561 421 685 423 687 c 0
 436 700 441 698 458 698 c 0
 472 698 474 697 478 695 c 0
 490 690 478 714 631 366 c 2
 771 48 l 1
 869 48 l 1
 869 0 l 1
 858 0 l 2
 838 3 560 3 539 0 c 2
 527 0 l 1
 527 48 l 1
 574 48 l 2
 599 48 620 48 620 49 c 2
 556 196 l 1
 265 196 l 1
 235 127 l 2
 219 90 205 58 206 58 c 0
 208 53 251 48 283 48 c 2
 294 48 l 1
 294 0 l 1
 285 0 l 2
474 382 m 2
 423 498 422 502 410 527 c 1
 287 245 l 2
 287 244 343 244 411 244 c 0
 478 244 534 244 534 245 c 2
 474 382 l 2
EndSplineSet
EndChar

StartChar: uni03AB.alt
Encoding: 1114115 -1 13
Width: 638
Flags: MW
HStem: 0 48<58 69 58 166 69 166 303 400 400 412> 638 48<-168 -157 -157 -71 -168 -157 93 93 93 165 165 178 391 400 400 410 611 611 611 631 631 638>
LayerCount: 2
Fore
SplineSet
83 731 m 0
 36 731 2 765 2 811 c 0
 2 870 58 902 104 889 c 0
 146 876 163 841 163 811 c 0
 163 763 126 731 83 731 c 0
388 731 m 0
 341 731 307 765 307 811 c 0
 307 870 363 902 409 889 c 0
 451 876 468 841 468 811 c 0
 468 763 431 731 388 731 c 0
400 0 m 2
 377 3 88 3 69 0 c 2
 58 0 l 1
 58 48 l 1
 166 48 l 1
 166 275 l 1
 -71 638 l 1
 -168 638 l 1
 -168 686 l 1
 -157 686 l 1
 -133 682 149 684 165 686 c 2
 178 686 l 1
 178 638 l 1
 93 638 l 1
 275 358 l 1
 285 344 l 1
 375 483 l 2
 425 559 467 623 468 625 c 0
 469 627 469 628 468 629 c 0
 465 633 438 637 410 638 c 2
 391 638 l 1
 391 686 l 1
 400 686 l 2
 413 683 616 682 631 686 c 1
 638 686 l 1
 638 638 l 1
 611 638 l 2
 572 637 547 634 539 630 c 0
 535 628 525 614 419 451 c 2
 303 274 l 1
 303 48 l 1
 412 48 l 1
 412 0 l 1
 400 0 l 2
EndSplineSet
EndChar

StartChar: uni03B1.alt
Encoding: 1114116 -1 14
Width: 605
Flags: MW
HStem: -6 54<227.5 291>
VStem: 50 112<216.5 271.5 187.5 290> 532 38<55 130>
LayerCount: 2
Fore
SplineSet
395 37 m 1
 359 7 315 -6 267 -6 c 0
 143 -6 65 95 52 194 c 0
 51 200 50 211 50 222 c 0
 50 358 153 438 247 449 c 0
 304 454 361 438 397 405 c 0
 402 400 406 394 417 380 c 1
 487 450 l 1
 487 270 l 1
 488 91 l 2
 491 82 493 71 501 68 c 0
 508 64 519 66 524 73 c 0
 529 79 532 93 532 112 c 0
 532 148 557 123 563 112 c 0
 568 104 570 93 570 82 c 0
 570 28 517 -9 464 -6 c 0
 423 -3 410 18 395 37 c 1
162 222 m 0
 162 153 184 48 271 48 c 0
 315 48 369 64 374 104 c 0
 375 114 375 330 374 340 c 0
 367 396 275 398 253 395 c 0
 200 384 162 321 162 222 c 0
EndSplineSet
EndChar

StartChar: uni03CB.alt
Encoding: 1114117 -1 15
Width: 504
Flags: MW
HStem: -6 54<176 226> 396 48<-87 -32 -87 -11 266 274 274 322 434 482 482 489 434 434> 489 150<49 61 341 343>
VStem: -32 112<319 348.5 319 396 319 396>
LayerCount: 2
Fore
SplineSet
-19 564 m 0
 -19 624 40 639 58 639 c 0
 108 639 142 605 142 564 c 0
 142 523 107 486 61 489 c 0
 12 489 -19 523 -19 564 c 0
260 564 m 0
 260 606 297 639 343 639 c 0
 353 638 357 638 365 636 c 0
 405 623 422 593 422 564 c 0
 422 522 389 489 341 489 c 0
 295 486 260 523 260 564 c 0
274 444 m 2
 287 441 469 441 482 444 c 2
 489 444 l 1
 489 396 l 1
 434 396 l 1
 434 312 l 2
 434 241 453 135 339 40 c 0
 297 10 251 -6 201 -6 c 0
 151 -6 105 10 63 40 c 1
 7 87 -25 142 -31 214 c 0
 -32 222 -32 263 -32 312 c 2
 -32 396 l 1
 -87 396 l 1
 -87 444 l 1
 -11 444 l 2
 61 444 66 444 70 442 c 0
 75 440 79 435 79 431 c 0
 80 429 80 378 80 319 c 0
 81 202 81 202 86 175 c 0
 97 117 132 48 201 48 c 0
 270 48 305 117 316 175 c 0
 321 202 321 203 322 303 c 2
 322 396 l 1
 266 396 l 1
 266 444 l 1
 274 444 l 2
EndSplineSet
EndChar

StartChar: uni02CF
Encoding: 719 719 16
Width: 168
Flags: W
LayerCount: 2
Fore
SplineSet
21 -258 m 0
 -2 -258 -7 -236 -7 -231 c 0
 -7 -226 -6 -221 -3 -217 c 2
 167 -1 l 1
 167 -100 l 1
 101 -177 l 2
 50 -236 34 -254 31 -256 c 0
 28 -257 25 -258 21 -258 c 0
EndSplineSet
EndChar

StartChar: uni02CE
Encoding: 718 718 17
Width: 235
Flags: W
LayerCount: 2
Fore
SplineSet
0 -100 m 1
 0 0 l 1
 106 -96 l 2
 164 -148 217 -197 224 -203 c 0
 240 -217 243 -222 242 -231 c 0
 241 -236 238 -256 215 -256 c 0
 210 -256 206 -256 203 -254 c 0
 201 -253 154 -218 100 -176 c 2
 0 -100 l 1
EndSplineSet
EndChar

StartChar: uni03DF
Encoding: 991 991 18
Width: 470
Flags: W
HStem: 674 20G<67 150 150 150>
VStem: 34 90 67 83<686 694 686 694> 319 83<-250 -242 -250 -242> 345 90
LayerCount: 2
Fore
SplineSet
67 686 m 2xa0
 67 694 l 1
 150 694 l 1
 150 686 l 2xa0
 149 674 124 285 124 281 c 2
 124 278 l 1
 435 278 l 1
 435 274 l 2xc8
 435 270 404 -229 402 -242 c 2
 402 -250 l 1
 319 -250 l 1
 319 -242 l 2x90
 320 -230 345 159 345 163 c 2
 345 166 l 1
 34 166 l 1
 34 170 l 2xc8
 34 174 65 673 67 686 c 2xa0
EndSplineSet
EndChar

StartChar: uni03D9
Encoding: 985 985 19
Width: 605
Flags: MW
HStem: -250 48<191 198 191 246 198 246 358 406 406 413>
VStem: 68 112<216 274.5 173.5 283> 424 112<197.5 270>
LayerCount: 2
Fore
SplineSet
406 -250 m 2
 393 -247 210 -247 198 -250 c 2
 191 -250 l 1
 191 -202 l 1
 246 -202 l 1
 246 1 l 1
 236 3 l 2
 189 16 88 67 69 193 c 0
 68 198 68 210 68 222 c 0
 68 344 156 406 195 425 c 0
 271 463 372 456 434 410 c 0
 464 391 536 335 536 222 c 0
 536 173 522 125 487 81 c 0
 457 44 413 15 368 3 c 2
 358 1 l 1
 358 -202 l 1
 413 -202 l 1
 413 -250 l 1
 406 -250 l 2
302 48 m 0
 376 48 424 126 424 222 c 0
 424 318 377 382 324 394 c 0
 317 395 295 396 292 396 c 0
 291 395 287 395 283 394 c 0
 233 386 180 327 180 222 c 0
 180 125 227 48 302 48 c 0
EndSplineSet
EndChar

StartChar: uni0020032E
Encoding: 1114118 -1 20
Width: 403
Flags: MW
HStem: -230 62<185 255.5>
LayerCount: 2
Fore
SplineSet
-1 -59 m 0
 1 -41 14 -38 19 -38 c 0
 30 -38 27 -73 73 -116 c 0
 110 -151 153 -168 201 -168 c 0
 311 -168 360 -84 374 -49 c 0
 378 -40 380 -37 386 -38 c 0
 402 -41 415 -61 383 -120 c 0
 365 -155 310 -230 201 -230 c 0
 169 -230 88 -224 30 -139 c 0
 13 -113 -2 -75 -1 -59 c 0
EndSplineSet
EndChar

StartChar: uni03D8
Encoding: 984 984 21
Width: 605
Flags: MW
HStem: -4 48<118 131 118 230 131 230 374 473 473 486>
VStem: 41 143<447.5 524.5 447.5 539.5> 420 144<446.5 523.5>
LayerCount: 2
Fore
SplineSet
473 -4 m 2
 451 -1 154 -1 131 -4 c 2
 118 -4 l 1
 118 44 l 1
 230 44 l 1
 230 270 l 1
 218 273 211 275 206 277 c 0
 95 311 41 393 41 477 c 0
 41 602 148 667 238 685 c 0
 257 691 303 694 342 690 c 0
 447 675 564 605 564 477 c 0
 564 416 534 359 481 319 c 0
 440 288 397 275 374 270 c 1
 374 44 l 1
 486 44 l 1
 486 -4 l 1
 473 -4 l 2
420 478 m 0
 420 569 370 637 303 637 c 0
 235 637 184 571 184 478 c 0
 184 417 208 350 260 325 c 0
 275 318 282 317 302 317 c 0
 374 317 420 388 420 478 c 0
EndSplineSet
EndChar

StartChar: uni03DA.var
Encoding: 1114119 -1 22
Width: 941
Flags: MW
HStem: 0 54 627 48
VStem: 44 143<319 382> 493 143<224 450.5 48 675 48 661> 842 54<433.5 438 433 447>
LayerCount: 2
Fore
SplineSet
875 670 m 2
 877 664 895 442 896 438 c 2
 896 433 l 1
 869 433 l 2
 854 433 842 433 842 434 c 0
 842 460 830 540 816 567 c 0
 785 629 709 626 678 627 c 2
 636 627 l 1
 636 48 l 1
 744 48 l 1
 744 0 l 1
 541 0 l 2
 318 1 333 0 302 7 c 0
 213 25 134 84 88 168 c 0
 51 234 44 300 44 338 c 0
 44 426 76 500 119 554 c 0
 224 687 358 675 420 675 c 2
 493 675 l 1
 493 661 l 1
 503 680 505 675 691 675 c 2
 875 675 l 1
 875 670 l 2
187 338 m 0
 187 168 258 54 365 54 c 0
 389 54 461 60 485 112 c 0
 494 128 493 111 493 337 c 0
 493 564 494 547 485 564 c 0
 457 620 374 623 346 620 c 0
 230 604 187 460 187 338 c 0
EndSplineSet
EndChar

StartChar: uni03E0
Encoding: 992 992 23
Width: 927
Flags: MW
HStem: 0 48<79 83 79 83 314 318 541 553 553 579 825 868 868 878>
LayerCount: 2
Fore
SplineSet
170 689 m 1
 175 697 178 704 188 704 c 0
 197 704 182 721 486 374 c 2
 771 49 l 1
 825 48 l 1
 878 48 l 1
 878 0 l 1
 868 0 l 2
 849 3 575 3 553 0 c 2
 541 0 l 1
 541 48 l 1
 579 48 l 1
 616 49 l 1
 551 123 l 2
 515 164 485 198 484 198 c 2
 451 106 l 2
 421 19 419 13 419 7 c 2
 419 0 l 1
 415 0 l 2
 410 2 361 3 344 2 c 0
 332 2 320 1 318 0 c 2
 314 0 l 1
 314 48 l 1
 323 48 l 1
 364 167 l 2
 387 232 406 286 406 287 c 0
 407 288 317 390 316 390 c 2
 249 201 l 2
 189 28 183 12 183 6 c 2
 183 0 l 1
 179 0 l 2
 177 1 165 2 153 2 c 0
 131 3 95 2 83 0 c 2
 79 0 l 1
 79 48 l 1
 83 48 l 1
 87 49 l 1
 163 263 l 2
 204 381 238 478 238 479 c 2
 205 517 l 2
 181 545 172 556 171 559 c 0
 170 561 170 585 170 626 c 2
 170 689 l 1
EndSplineSet
EndChar

StartChar: Euro
Encoding: 8364 8364 24
Width: 941
Flags: MW
HStem: 0 112<514 589.5 488 616.5> 237 79<62.5 206 121 206 121 222 343 343 343 485 485 486> 371 78<60.5 222 127 206 343 503>
LayerCount: 2
Fore
SplineSet
781 96 m 0
 781 85 687 0 546 0 c 0
 482 0 420 18 359 57 c 0
 299 97 253 154 227 222 c 2
 222 237 l 1
 115 237 l 2
 10 237 8 238 6 240 c 0
 2 242 0 248 0 253 c 0
 1 259 23 308 26 311 c 0
 30 318 60 316 121 316 c 2
 206 316 l 1
 206 371 l 1
 108 371 l 2
 13 371 9 371 6 373 c 0
 2 375 0 381 0 386 c 0
 1 390 21 439 24 443 c 0
 28 449 23 449 127 449 c 2
 222 449 l 1
 227 464 l 1
 257 541 313 605 386 645 c 0
 446 679 617 735 770 602 c 0
 789 585 783 588 764 540 c 0
 746 496 745 495 737 494 c 0
 732 493 728 494 720 503 c 0
 674 548 617 574 549 574 c 0
 418 574 366 483 343 449 c 1
 525 449 l 2
 693 449 707 449 711 447 c 0
 713 446 718 443 718 437 c 0
 718 429 697 377 690 373 c 0
 687 371 677 371 503 371 c 2
 319 371 l 1
 317 362 316 336 319 316 c 1
 485 316 l 2
 652 316 652 315 655 313 c 0
 659 309 661 307 661 303 c 0
 661 296 641 242 631 238 c 0
 630 237 566 237 486 237 c 2
 343 237 l 1
 363 197 426 112 550 112 c 0
 629 112 700 143 745 182 c 0
 785 215 782 183 782 144 c 0
 782 120 782 99 781 96 c 0
EndSplineSet
EndChar

StartChar: perthousand
Encoding: 8240 8240 25
Width: 1411
Flags: MW
VStem: 348 55 604 102<116.5 185.5> 885 55<128.5 191.5> 1007 102<116.5 185.5> 1288 55<128.5 191.5>
LayerCount: 2
Fore
SplineSet
245 347 m 0
 137 347 57 455 68 570 c 0
 78 676 154 740 225 748 c 0
 232 749 239 750 247 750 c 0
 266 750 307 748 351 701 c 1
 375 669 500 618 612 639 c 0
 676 650 740 686 775 728 c 0
 790 745 795 749 809 749 c 0
 832 749 845 724 836 706 c 0
 834 701 225 -44 219 -49 c 0
 214 -53 208 -55 200 -55 c 0
 175 -55 168 -36 168 -25 c 0
 168 -21 169 -16 171 -12 c 0
 173 -8 257 95 432 309 c 2
 691 625 l 1
 690 625 685 623 678 621 c 0
 584 587 484 597 386 644 c 0
 385 644 401 610 403 557 c 0
 407 443 340 347 245 347 c 0
348 549 m 0
 348 640 315 698 268 711 c 0
 259 713 240 713 232 712 c 0
 189 700 169 650 169 549 c 0
 169 490 173 401 233 385 c 1
 308 377 348 446 348 549 c 0
940 146 m 0
 940 34 874 -56 782 -56 c 0
 766 -56 750 -53 733 -48 c 0
 657 -24 604 57 604 145 c 0
 604 226 648 300 713 331 c 0
 743 345 769 346 784 346 c 0
 873 346 940 259 940 146 c 0
885 146 m 0
 885 237 852 295 805 308 c 0
 796 310 777 310 769 309 c 0
 726 297 706 247 706 146 c 0
 706 87 710 -2 770 -18 c 1
 844 -26 865 38 873 61 c 0
 882 87 885 111 885 146 c 0
1343 146 m 0
 1343 34 1277 -56 1185 -56 c 0
 1169 -56 1153 -53 1136 -48 c 0
 1060 -24 1007 57 1007 145 c 0
 1007 226 1051 300 1116 331 c 0
 1146 345 1172 346 1187 346 c 0
 1276 346 1343 259 1343 146 c 0
1288 146 m 0
 1288 237 1255 295 1208 308 c 0
 1199 310 1180 310 1172 309 c 0
 1129 297 1109 247 1109 146 c 0
 1109 87 1113 -2 1173 -18 c 1
 1247 -26 1268 38 1276 61 c 0
 1285 87 1288 111 1288 146 c 0
EndSplineSet
EndChar

StartChar: uni0259
Encoding: 601 601 26
Width: 547
Flags: MW
HStem: -5 37 196 34<220 392 220 392>
VStem: 34 87<185 196 185 208>
LayerCount: 2
Fore
SplineSet
42 354 m 0
 108 487 364 486 464 364 c 0
 499 318 511 274 511 223 c 0
 511 90 420 0 266 -5 c 0
 73 -10 34 118 34 206 c 0
 34 210 34 223 44 228 c 0
 48 230 55 230 220 230 c 2
 392 230 l 1
 392 245 l 2
 389 308 376 344 346 372 c 0
 329 388 296 413 231 413 c 0
 202 413 117 401 88 328 c 0
 83 315 79 313 61 313 c 0
 38 313 32 322 35 336 c 0
 36 338 39 346 42 354 c 0
255 32 m 0
 337 32 386 85 391 179 c 0
 391 185 391 192 392 193 c 2
 392 196 l 1
 121 196 l 1
 121 185 l 1
 126 118 148 32 255 32 c 0
EndSplineSet
EndChar

StartChar: uni03E1
Encoding: 993 993 27
Width: 874
Flags: MW
HStem: -10 21G<734 755.5> 617 82<129.5 135>
LayerCount: 2
Fore
SplineSet
258 266 m 0
 231 266 224 285 224 300 c 0
 224 307 224 309 226 314 c 0
 228 319 247 338 329 423 c 2
 428 527 l 2
 428 528 399 545 383 553 c 0
 306 593 223 614 135 617 c 0
 124 617 112 618 110 618 c 0
 90 622 78 640 78 658 c 0
 78 681 93 695 108 699 c 0
 114 700 135 700 159 699 c 0
 372 686 565 580 678 426 c 0
 756 324 801 201 806 63 c 0
 806 41 807 12 777 -3 c 0
 768 -8 760 -10 751 -10 c 0
 717 -10 694 13 694 48 c 0
 694 108 682 222 617 332 c 1
 611 343 l 1
 514 242 l 2
 460 187 415 140 413 139 c 0
 407 135 401 134 395 134 c 0
 382 134 361 141 361 168 c 0
 361 175 361 177 363 182 c 0
 365 187 384 207 468 293 c 0
 524 351 570 399 570 400 c 0
 570 406 491 486 485 486 c 0
 484 486 447 448 284 278 c 0
 275 269 268 266 258 266 c 0
EndSplineSet
EndChar

StartChar: quoteleft
Encoding: 8216 8216 28
Width: 336
Flags: MW
HStem: 674 20G<195 201>
VStem: 71 37<479 480.5 479 506>
LayerCount: 2
Fore
SplineSet
167 339 m 0
 109 339 71 390 71 465 c 0
 71 547 105 618 159 667 c 0
 175 680 191 694 199 694 c 0
 203 694 206 692 211 687 c 0
 219 680 221 673 216 666 c 0
 216 665 210 660 203 655 c 0
 156 622 118 563 109 493 c 0
 108 488 108 482 108 479 c 2
 107 475 l 1
 127 492 143 500 168 500 c 0
 213 500 249 468 249 419 c 0
 249 372 216 339 167 339 c 0
EndSplineSet
EndChar

StartChar: quoteright
Encoding: 8217 8217 29
Width: 336
Flags: MW
VStem: 88 177<588.5 620 523 621>
LayerCount: 2
Fore
SplineSet
168 532 m 0
 123 532 88 564 88 613 c 0
 88 629 92 683 155 693 c 0
 193 699 265 673 265 567 c 0
 265 479 226 400 156 348 c 0
 147 341 142 338 137 338 c 0
 133 338 130 340 126 344 c 0
 117 352 115 359 120 366 c 0
 120 367 126 372 133 377 c 0
 180 410 218 469 227 539 c 0
 228 544 228 550 228 553 c 2
 229 557 l 1
 209 540 193 532 168 532 c 0
EndSplineSet
EndChar

StartChar: breve
Encoding: 728 728 30
Width: 470
Flags: MW
HStem: 507 63<226.5 243 226.5 257> 674 20G<0 37 37 37 432 469 469 469>
VStem: 0 37<685 694 685 694 685 694> 432 37<685 694 684 694>
LayerCount: 2
Fore
SplineSet
0 684 m 1
 0 694 l 1
 37 694 l 1
 37 685 l 2
 40 658 59 588 193 571 c 0
 202 570 218 570 235 570 c 0
 251 570 268 570 277 571 c 0
 371 584 427 625 432 685 c 1
 432 694 l 1
 469 694 l 1
 469 684 l 1
 465 621 426 569 361 536 c 0
 322 517 279 507 235 507 c 0
 202 507 135 514 82 551 c 0
 32 584 4 631 0 684 c 1
EndSplineSet
EndChar

StartChar: macron
Encoding: 175 175 31
Width: 470
Flags: MW
HStem: 544 52<0 469 0 469>
LayerCount: 2
Fore
SplineSet
0 544 m 1
 0 596 l 1
 469 596 l 1
 469 544 l 1
 0 544 l 1
EndSplineSet
EndChar

StartChar: uni1FC1
Encoding: 8129 8129 32
Width: 538
Flags: MW
HStem: 674 20G<432 453>
VStem: 67 59<607 614.5 607 636> 411 59<674.5 682>
LayerCount: 2
Fore
SplineSet
97 595 m 0
 74 595 67 596 67 612 c 0
 67 660 121 689 161 693 c 0
 265 703 304 649 337 636 c 0
 344 633 345 633 356 633 c 0
 402 633 411 670 411 679 c 0
 411 685 414 689 418 692 c 0
 421 694 423 694 441 694 c 0
 465 694 470 693 470 678 c 0
 470 631 412 575 297 602 c 0
 224 621 224 656 182 656 c 0
 135 656 126 619 126 610 c 0
 126 604 123 600 119 597 c 0
 116 595 114 595 97 595 c 0
96 519 m 0
 96 561 141 572 155 572 c 0
 193 572 218 549 218 520 c 0
 218 489 191 467 155 467 c 0
 130 467 96 486 96 519 c 0
441 520 m 0
 441 490 413 467 377 467 c 0
 343 469 319 491 319 519 c 0
 319 544 337 564 366 571 c 0
 420 578 441 542 441 520 c 0
EndSplineSet
EndChar

StartChar: exclam
Encoding: 33 33 33
Width: 367
Flags: MW
HStem: 0 21G<167.5 188.5>
LayerCount: 2
Fore
SplineSet
101 628 m 0
 101 671 135 705 186 705 c 0
 196 704 200 704 208 702 c 0
 249 689 265 656 265 628 c 0
 260 589 210 242 209 239 c 0
 204 229 195 231 183 231 c 0
 163 231 161 232 158 238 c 0
 154 245 104 620 101 628 c 0
102 81 m 0
 102 148 166 162 183 162 c 0
 248 162 264 100 264 81 c 0
 264 49 246 19 214 6 c 0
 204 2 194 0 183 0 c 0
 152 0 121 19 108 50 c 0
 104 60 102 70 102 81 c 0
EndSplineSet
EndChar

StartChar: dieresis
Encoding: 168 168 34
Width: 269
Flags: MW
HStem: 482 162<14.5 50 246.5 282>
LayerCount: 2
Fore
SplineSet
18 644 m 0
 87 644 99 580 99 563 c 0
 99 543 82 482 18 482 c 0
 6 482 -6 485 -16 490 c 0
 -45 504 -63 533 -63 565 c 0
 -63 597 -42 632 -2 642 c 0
 4 644 11 644 18 644 c 0
250 644 m 0
 319 644 331 580 331 563 c 0
 331 543 314 482 250 482 c 0
 238 482 226 485 216 490 c 0
 187 504 169 533 169 565 c 0
 169 597 190 632 230 642 c 0
 236 644 243 644 250 644 c 0
EndSplineSet
EndChar

StartChar: dieresistonos
Encoding: 901 901 35
Width: 336
Flags: MW
HStem: 489 80<37 39 15.5 62.5 282.5 299>
LayerCount: 2
Fore
SplineSet
151 669 m 0
 161 716 218 728 255 691 c 0
 264 680 269 669 269 657 c 0
 269 636 262 630 210 557 c 2
 161 490 l 1
 140 498 l 1
 140 502 l 2
 140 513 150 663 151 669 c 0
-24 528 m 0
 -24 550 -8 569 39 569 c 0
 63 568 97 561 97 528 c 0
 97 512 88 489 37 489 c 0
 26 488 -8 488 -21 513 c 0
 -24 519 -24 520 -24 528 c 0
238 528 m 0
 238 545 250 569 295 569 c 0
 350 569 360 545 360 528 c 0
 360 511 346 487 299 489 c 0
 266 489 238 497 238 528 c 0
EndSplineSet
EndChar

StartChar: uni1FED
Encoding: 8173 8173 36
Width: 336
Flags: MW
HStem: 489 80<37 39 15.5 62.5 282.5 299>
LayerCount: 2
Fore
SplineSet
66 657 m 0
 66 692 107 719 146 711 c 0
 165 706 179 690 184 669 c 0
 185 663 195 513 195 502 c 2
 195 498 l 1
 174 490 l 1
 125 557 l 2
 73 630 66 635 66 657 c 0
-24 528 m 0
 -24 550 -8 569 39 569 c 0
 63 568 97 561 97 528 c 0
 97 512 88 489 37 489 c 0
 26 488 -8 488 -21 513 c 0
 -24 519 -24 520 -24 528 c 0
238 528 m 0
 238 545 250 569 295 569 c 0
 350 569 360 545 360 528 c 0
 360 511 346 487 299 489 c 0
 266 489 238 497 238 528 c 0
EndSplineSet
EndChar

StartChar: percent
Encoding: 37 37 37
Width: 1008
Flags: MW
HStem: 608 36<545 571>
VStem: 68 102<517.5 562 517.5 631.5> 348 55<533.5 560.5 488 613> 604 102<115 159.5 115 231> 886 54<131 206.5 85.5 210.5>
LayerCount: 2
Fore
SplineSet
247 347 m 0
 177 347 68 387 68 548 c 0
 68 715 193 769 288 744 c 0
 340 727 345 703 425 673 c 0
 476 653 520 644 570 644 c 0
 695 644 751 703 778 732 c 0
 792 747 796 749 809 749 c 0
 832 749 838 732 838 719 c 0
 838 712 838 710 836 706 c 0
 834 701 225 -44 219 -49 c 0
 214 -53 208 -55 200 -55 c 0
 175 -55 168 -36 168 -25 c 0
 168 -21 169 -16 171 -12 c 0
 173 -9 263 102 432 309 c 0
 574 482 691 625 692 627 c 1
 692 627 657 617 633 612 c 0
 611 608 601 607 571 608 c 0
 517 608 466 616 404 642 c 0
 384 650 386 650 388 644 c 0
 401 610 403 570 403 551 c 0
 403 425 340 347 247 347 c 0
348 548 m 0
 348 678 290 719 234 712 c 1
 200 703 176 675 171 612 c 0
 170 604 170 576 170 548 c 0
 170 487 169 436 202 403 c 0
 219 386 247 376 281 392 c 0
 346 424 348 519 348 548 c 0
781 -56 m 0
 715 -56 604 -15 604 146 c 0
 604 316 728 342 762 346 c 0
 876 358 940 268 940 145 c 0
 940 26 879 -56 781 -56 c 0
886 146 m 0
 886 275 827 316 771 309 c 1
 737 300 713 272 708 209 c 0
 707 201 706 173 706 146 c 0
 706 84 706 33 739 0 c 0
 756 -17 784 -27 818 -11 c 0
 883 21 886 116 886 146 c 0
EndSplineSet
EndChar

StartChar: periodcentered
Encoding: 183 183 38
Width: 336
Flags: MW
VStem: 134 68<246.5 260.5 246.5 260.5>
LayerCount: 2
Fore
SplineSet
168 215 m 0
 149 215 134 229 134 250 c 0
 134 271 148 281 162 284 c 0
 184 288 202 271 202 250 c 0
 202 243 196 215 168 215 c 0
EndSplineSet
EndChar

StartChar: tonos
Encoding: 900 900 39
Width: 202
Flags: W
LayerCount: 2
Fore
SplineSet
51 672 m 0
 68 717 103 720 135 705 c 0
 157 694 169 676 169 656 c 0
 169 647 166 637 160 627 c 0
 143 601 60 491 59 491 c 0
 57 491 44 496 40 498 c 0
 38 499 50 665 51 672 c 0
EndSplineSet
EndChar

StartChar: parenleft
Encoding: 40 40 40
Width: 470
Flags: MW
VStem: 116 98<154.5 330.5>
LayerCount: 2
Fore
SplineSet
402 -235 m 0
 402 -241 399 -250 384 -250 c 0
 374 -250 373 -250 353 -235 c 0
 199 -124 116 59 116 250 c 0
 116 411 170 543 255 645 c 0
 276 670 358 750 383 750 c 0
 394 750 402 748 402 735 c 0
 402 733 402 732 401 730 c 2
 380 709 l 2
 319 650 214 525 214 250 c 0
 214 9 296 -115 350 -178 c 0
 394 -227 402 -224 402 -235 c 0
EndSplineSet
EndChar

StartChar: parenright
Encoding: 41 41 41
Width: 470
Flags: MW
VStem: 254 98<236 329 171 387.5>
LayerCount: 2
Fore
SplineSet
68 732 m 0
 65 740 70 750 83 750 c 0
 96 750 101 749 146 712 c 0
 164 698 200 662 214 645 c 0
 302 540 352 408 352 250 c 0
 352 92 302 -40 214 -145 c 0
 192 -172 127 -233 97 -248 c 0
 95 -249 89 -250 84 -250 c 0
 70 -250 66 -241 67 -233 c 0
 68 -230 71 -226 89 -210 c 0
 147 -153 235 -44 253 183 c 0
 254 194 254 222 254 250 c 0
 254 525 150 649 89 709 c 0
 76 722 69 730 68 732 c 0
EndSplineSet
EndChar

StartChar: asterisk
Encoding: 42 42 42
Width: 605
Flags: W
VStem: 258 88<341 344 711.5 715> 282 40<495 495.5 560.5 561>
LayerCount: 2
Fore
SplineSet
258 716 m 0x80
 260 733 278 750 301 750 c 0
 323 750 343 735 346 715 c 0x80
 346 708 326 587 322 561 c 0
 322 560 354 582 392 609 c 2
 467 661 l 2
 471 663 473 663 482 663 c 0
 518 663 525 627 525 617 c 0
 525 583 500 580 426 555 c 2
 348 528 l 1
 426 501 l 2
 495 478 525 475 525 439 c 0
 525 429 519 393 482 393 c 0
 473 393 471 393 467 395 c 2
 392 447 l 2
 354 474 322 496 322 495 c 0x40
 340 372 346 368 346 341 c 0
 344 322 324 306 302 306 c 0
 280 306 261 321 258 340 c 0x80
 258 348 278 469 282 495 c 0
 282 496 250 474 212 447 c 0
 137 394 140 393 122 393 c 0
 86 393 79 429 79 439 c 0
 79 473 104 476 178 501 c 2
 256 528 l 1
 178 555 l 2
 109 578 79 581 79 617 c 0
 79 627 85 663 122 663 c 0
 140 663 135 664 212 609 c 0
 250 582 282 560 282 561 c 0x40
 264 685 258 689 258 716 c 0x80
EndSplineSet
EndChar

StartChar: plus
Encoding: 43 43 43
Width: 941
Flags: MW
HStem: 219 62<264 439 264 264 501 676>
VStem: 439 62<44 219 281 454 454 550>
LayerCount: 2
Fore
SplineSet
501 -130 m 1
 494 -142 489 -152 470 -152 c 0
 447 -152 443 -135 440 -130 c 2
 439 44 l 1
 439 219 l 1
 264 219 l 1
 90 220 l 1
 78 225 68 232 68 250 c 0
 68 262 72 272 90 281 c 1
 439 281 l 1
 439 454 l 2
 439 646 439 632 446 641 c 0
 452 648 460 653 469 653 c 0
 495 653 495 634 501 631 c 1
 501 281 l 1
 851 281 l 1
 869 268 872 267 872 250 c 0
 872 238 871 230 851 220 c 1
 676 219 l 1
 501 219 l 1
 501 -130 l 1
EndSplineSet
EndChar

StartChar: comma
Encoding: 44 44 44
Width: 336
Flags: MW
HStem: 0 21G<145 179.5>
LayerCount: 2
Fore
SplineSet
170 0 m 0
 120 0 88 33 88 81 c 0
 88 97 92 151 155 161 c 0
 161 163 183 161 190 159 c 0
 228 148 255 108 261 55 c 0
 267 -5 248 -79 198 -142 c 0
 183 -161 150 -191 142 -193 c 0
 130 -197 114 -181 118 -170 c 0
 119 -166 121 -164 130 -158 c 0
 170 -125 198 -85 213 -37 c 0
 219 -20 225 11 224 18 c 0
 224 20 223 20 218 16 c 0
 204 5 189 0 170 0 c 0
EndSplineSet
EndChar

StartChar: hyphen
Encoding: 45 45 45
Width: 403
Flags: MW
HStem: 174 97<13 335 13 335>
LayerCount: 2
Fore
SplineSet
13 174 m 1
 13 271 l 1
 335 271 l 1
 335 174 l 1
 13 174 l 1
EndSplineSet
EndChar

StartChar: period
Encoding: 46 46 46
Width: 336
Flags: MW
HStem: 1 21G<145 190.5>
LayerCount: 2
Fore
SplineSet
168 1 m 0
 122 1 88 36 88 81 c 0
 88 139 143 172 190 159 c 0
 229 147 248 115 248 81 c 0
 248 35 213 1 168 1 c 0
EndSplineSet
EndChar

StartChar: slash
Encoding: 47 47 47
Width: 605
Flags: W
LayerCount: 2
Fore
SplineSet
98 -249 m 0
 72 -249 68 -230 68 -219 c 2
 68 -210 l 1
 272 260 l 2
 385 519 478 732 479 734 c 0
 484 743 495 750 506 750 c 0
 518 750 536 743 536 719 c 2
 536 711 l 1
 332 240 l 2
 219 -19 126 -232 125 -234 c 0
 116 -249 106 -249 98 -249 c 0
EndSplineSet
EndChar

StartChar: zero
Encoding: 48 48 48
Width: 605
Flags: MW
HStem: -10 36<286 318 286 324>
VStem: 48 120 437 119<309 383.5 255.5 414.5>
LayerCount: 2
Fore
SplineSet
115 581 m 0
 171 649 284 670 384 645 c 0
 540 601 556 448 556 319 c 0
 556 192 538 145 520 108 c 0
 463 -8 346 -10 302 -10 c 0
 154 -10 79 65 56 198 c 0
 49 234 48 259 48 319 c 0
 48 421 56 510 115 581 c 0
393 583 m 0
 342 634 240 629 196 567 c 0
 178 540 171 501 168 416 c 0
 167 380 167 243 169 215 c 0
 174 125 184 89 213 62 c 0
 237 38 270 26 302 26 c 0
 334 26 367 38 391 62 c 0
 416 86 427 116 432 180 c 0
 435 212 436 233 437 309 c 0
 437 520 426 552 393 583 c 0
EndSplineSet
EndChar

StartChar: one
Encoding: 49 49 49
Width: 605
Flags: MW
HStem: 0 48<101 115 101 250 115 250 368 505 505 519> 543 48<92 108 92 108>
LayerCount: 2
Fore
SplineSet
248 564 m 0
 237 553 138 543 108 543 c 2
 92 543 l 1
 92 591 l 1
 108 591 l 2
 150 591 258 597 325 653 c 0
 327 655 329 655 341 655 c 0
 358 655 363 653 366 644 c 0
 368 640 368 608 368 344 c 2
 368 48 l 1
 519 48 l 1
 519 0 l 1
 505 0 l 2
 480 3 139 3 115 0 c 2
 101 0 l 1
 101 48 l 1
 250 48 l 1
 250 306 l 2
 250 551 250 564 248 564 c 0
EndSplineSet
EndChar

StartChar: two
Encoding: 50 50 50
Width: 605
Flags: W
HStem: 0 21G<60 513 60 60>
VStem: 60 87<479 569> 410 134<445 471> 490 54<218 221 218 221 218 221>
LayerCount: 2
Fore
SplineSet
130 429 m 0xe0
 92 429 60 456 60 502 c 0
 60 525 68 551 82 571 c 0
 112 616 177 647 256 654 c 0
 361 662 506 631 539 506 c 0
 542 492 544 478 544 464 c 0xe0
 544 413 520 365 473 322 c 0
 450 301 430 286 378 251 c 2
 208 125 l 1
 279 124 l 2
 383 124 456 126 463 129 c 0
 474 136 481 166 490 217 c 1
 490 221 l 1
 544 221 l 1
 544 218 l 2xd0
 542 214 514 5 513 3 c 2
 513 0 l 1
 60 0 l 1
 60 19 l 2
 60 36 61 39 62 41 c 0
 63 43 115 91 176 148 c 0
 290 254 316 278 336 301 c 0
 402 378 410 429 410 461 c 0
 410 578 314 610 251 607 c 0
 185 603 164 579 147 569 c 0
 147 566 201 563 201 496 c 1
 197 436 144 429 130 429 c 0xe0
EndSplineSet
EndChar

StartChar: three
Encoding: 51 51 51
Width: 605
Flags: W
HStem: -11 45<266 291.5 266 390> 329 42<233.5 285>
VStem: 385 134<509.5 545> 400 154<169 207.5>
LayerCount: 2
Fore
SplineSet
170 578 m 1xe0
 195 568 219 551 219 512 c 0
 219 454 168 445 155 444 c 0
 115 442 84 471 84 513 c 0
 84 524 86 536 90 548 c 0
 108 605 173 646 261 654 c 0
 275 655 326 654 343 653 c 0
 381 649 519 626 519 516 c 0xe0
 519 503 519 496 518 490 c 0
 508 441 479 404 427 374 c 0
 412 366 386 354 375 351 c 0
 372 351 374 350 383 348 c 0
 462 332 554 281 554 181 c 0
 554 104 499 -11 281 -11 c 0
 153 -11 50 46 50 139 c 0
 50 185 82 215 126 215 c 0
 168 215 201 186 201 141 c 0
 201 125 199 87 148 67 c 0
 146 66 175 52 189 47 c 0
 217 38 249 34 283 34 c 0
 300 34 306 34 313 35 c 0
 351 43 384 67 395 117 c 0
 398 133 400 157 400 181 c 0xd0
 400 234 393 284 354 310 c 0
 323 332 275 329 254 329 c 0
 213 329 212 329 208 331 c 0
 203 334 201 338 201 348 c 0
 201 368 209 366 245 368 c 0
 263 369 281 371 285 371 c 0
 332 377 385 429 385 517 c 0
 385 573 365 615 287 615 c 0
 263 615 209 609 170 578 c 1xe0
EndSplineSet
EndChar

StartChar: four
Encoding: 52 52 52
Width: 605
Flags: MW
HStem: 0 48<224 236 224 341 236 341 465 559 559 570> 156 48<221 341 34 34 465 570>
LayerCount: 2
Fore
SplineSet
559 0 m 2
 539 3 255 3 236 0 c 2
 224 0 l 1
 224 48 l 1
 341 48 l 1
 341 156 l 1
 34 156 l 1
 34 204 l 1
 219 427 l 2
 330 562 404 651 407 652 c 0
 408 653 411 655 413 655 c 0
 414 655 423 656 433 656 c 0
 455 656 459 654 463 645 c 0
 465 641 465 617 465 423 c 2
 465 204 l 1
 570 204 l 1
 570 156 l 1
 465 156 l 1
 465 48 l 1
 570 48 l 1
 570 0 l 1
 559 0 l 2
352 204 m 1
 352 519 l 1
 91 205 l 1
 221 204 l 1
 352 204 l 1
EndSplineSet
EndChar

StartChar: five
Encoding: 53 53 53
Width: 605
Flags: W
HStem: 372 36<297 306>
VStem: 60 75<95.5 179.5> 114 54<397.5 439 372 572> 401 143
LayerCount: 2
Fore
SplineSet
137 304 m 0xd0
 107 304 114 314 114 481 c 0
 114 663 113 649 121 653 c 0
 123 654 126 655 127 655 c 0
 141 655 189 624 305 624 c 0
 364 623 415 632 467 650 c 0
 494 661 497 649 497 636 c 0
 497 612 426 543 351 516 c 0
 335 510 294 499 256 499 c 0
 221 499 184 502 170 506 c 0
 168 506 168 502 168 439 c 2
 168 372 l 1xb0
 190 388 234 408 306 408 c 0
 451 408 544 326 544 202 c 0
 544 70 427 -14 264 -11 c 0
 225 -9 127 1 75 94 c 0
 66 113 60 139 60 159 c 0
 60 200 87 226 125 226 c 0
 161 226 190 201 190 161 c 0
 190 122 163 101 135 96 c 0
 135 95 150 78 156 73 c 0
 224 13 330 27 368 69 c 0
 404 105 402 158 401 218 c 0
 400 283 401 342 339 366 c 0
 326 371 315 372 297 372 c 0
 169 366 170 304 137 304 c 0xd0
EndSplineSet
EndChar

StartChar: six
Encoding: 54 54 54
Width: 605
Flags: MW
HStem: -11 45<306 323 306 336.5> 381 37<283.5 319.5> 614 41<361 391.5>
LayerCount: 2
Fore
SplineSet
463 471 m 0
 430 471 403 495 403 531 c 0
 403 554 415 574 434 584 c 0
 438 586 443 588 444 588 c 0
 446 589 446 589 444 591 c 0
 439 598 415 614 368 614 c 0
 224 614 194 490 188 452 c 0
 184 426 181 386 181 350 c 2
 181 333 l 1
 187 342 l 2
 201 366 236 418 322 418 c 0
 429 418 474 375 500 349 c 0
 575 274 566 144 515 79 c 0
 501 61 473 37 450 23 c 0
 412 0 367 -11 306 -11 c 0
 115 -11 40 140 51 352 c 1
 70 609 270 648 338 654 c 0
 344 654 356 655 366 655 c 0
 492 655 523 582 523 535 c 0
 523 497 499 471 463 471 c 0
404 338 m 0
 375 382 330 381 309 381 c 0
 258 381 207 346 189 272 c 0
 184 252 184 242 184 214 c 0
 184 187 185 166 189 143 c 0
 194 104 203 85 225 64 c 0
 247 42 274 32 306 34 c 0
 340 34 366 38 390 62 c 0
 409 81 423 91 423 207 c 0
 423 285 418 317 404 338 c 0
EndSplineSet
EndChar

StartChar: seven
Encoding: 55 55 55
Width: 605
Flags: MW
HStem: -11 21G<257 279.5> 520 124<286.5 587> 656 20G<102 129 129 141.5>
VStem: 67 54<423 425 425 426> 208 120<55 64>
LayerCount: 2
Fore
SplineSet
156 674 m 0
 156 653 185 648 272 648 c 1
 331 644 351 644 467 644 c 2
 587 644 l 1
 587 627 l 2
 587 614 587 610 585 607 c 2
 585 607 428 428 407 407 c 0
 368 359 328 286 328 72 c 0
 328 37 327 32 321 20 c 0
 311 1 290 -11 269 -11 c 0
 245 -11 216 3 209 35 c 0
 208 42 208 46 208 64 c 0
 211 165 245 265 306 358 c 0
 331 396 347 415 403 477 c 2
 441 519 l 2
 441 520 400 520 350 520 c 0
 223 520 156 518 149 515 c 0
 140 506 133 495 121 427 c 1
 121 423 l 1
 67 423 l 1
 67 425 l 2
 67 427 76 484 85 552 c 2
 102 676 l 1
 129 676 l 2
 154 676 156 676 156 674 c 0
EndSplineSet
EndChar

StartChar: eight
Encoding: 56 56 56
Width: 605
Flags: W
HStem: -11 45<244.5 372 235 378.5>
VStem: 50 90<136.5 194.5> 85 77<527 539 527 550.5> 443 77 464 90<125.5 138.5>
LayerCount: 2
Fore
SplineSet
85 481 m 0xb0
 85 620 216 655 301 655 c 0
 431 655 501 606 515 546 c 0
 518 533 520 520 520 508 c 0xb0
 520 425 446 387 413 370 c 1
 431 360 l 2
 495 325 536 287 551 219 c 0
 553 210 554 197 554 184 c 0
 554 67 457 -11 300 -11 c 0
 189 -11 50 23 50 161 c 0xc8
 50 228 83 280 163 319 c 2
 184 330 l 1
 174 335 l 1
 128 363 96 403 86 452 c 0
 85 459 85 465 85 481 c 0xb0
443 503 m 0
 447 588 363 622 277 614 c 0
 223 611 162 599 162 539 c 2
 162 527 l 1
 170 510 176 499 193 488 c 0
 200 483 355 400 364 396 c 0
 372 393 417 427 430 455 c 0
 438 470 442 484 443 503 c 0
305 34 m 0
 439 34 464 90 464 132 c 0
 464 145 462 158 453 171 c 0
 447 180 432 195 422 202 c 2
 235 303 l 1
 225 297 l 2
 201 283 140 243 140 162 c 0xc8
 140 111 165 34 305 34 c 0
EndSplineSet
EndChar

StartChar: nine
Encoding: 57 57 57
Width: 605
Flags: W
HStem: -11 44 227 37<288.5 294.5>
VStem: 50 131 81 81<55.5 130>
LayerCount: 2
Fore
SplineSet
201 113 m 0xd0
 201 74 173 61 162 56 c 0xd0
 162 55 173 49 181 45 c 0
 199 37 224 33 249 33 c 0
 298 33 342 51 375 88 c 0
 423 147 422 240 423 281 c 2
 423 313 l 1
 420 306 421 309 413 298 c 0
 369 228 307 227 282 227 c 0
 177 227 131 269 105 295 c 0
 84 316 50 353 50 439 c 0xe0
 50 489 59 525 89 564 c 0
 112 593 153 624 190 638 c 0
 212 645 259 657 309 654 c 0
 381 654 449 627 491 572 c 0
 519 534 562 458 553 293 c 0
 539 93 409 -16 242 -11 c 0
 110 -6 81 61 81 111 c 0
 81 149 108 173 141 173 c 0
 172 173 201 150 201 113 c 0xd0
408 542 m 0
 397 576 368 610 309 615 c 0
 300 615 291 615 290 614 c 0
 259 614 227 601 206 574 c 0
 178 540 182 481 181 452 c 0xe0
 180 378 173 280 267 266 c 0
 274 265 284 264 293 264 c 0
 373 264 421 339 421 430 c 0
 421 468 415 520 408 542 c 0
EndSplineSet
EndChar

StartChar: colon
Encoding: 58 58 58
Width: 336
Flags: MW
HStem: 1 21G<145 190.5>
VStem: 88 160<58.5 98 58 110 340.5 380>
LayerCount: 2
Fore
SplineSet
168 283 m 0
 122 283 88 318 88 363 c 0
 88 421 143 454 190 441 c 0
 229 429 248 397 248 363 c 0
 248 317 213 283 168 283 c 0
168 1 m 0
 122 1 88 36 88 81 c 0
 88 139 143 172 190 159 c 0
 229 147 248 115 248 81 c 0
 248 35 213 1 168 1 c 0
EndSplineSet
EndChar

StartChar: anoteleia
Encoding: 903 903 59
Width: 336
Flags: W
LayerCount: 2
Fore
SplineSet
168 283 m 0
 122 283 88 318 88 363 c 0
 88 421 143 454 190 441 c 0
 229 429 248 397 248 363 c 0
 248 317 213 283 168 283 c 0
EndSplineSet
EndChar

StartChar: uni1FFE
Encoding: 8190 8190 60
Width: 269
Flags: MW
HStem: 499 28<172 177.5> 674 20G<122 145>
VStem: 37 29<575.5 603.5 575.5 636>
LayerCount: 2
Fore
SplineSet
170 499 m 0
 94 502 37 538 37 598 c 0
 37 674 111 694 133 694 c 0
 157 694 194 680 194 633 c 0
 194 595 168 572 134 572 c 0
 97 572 77 598 72 628 c 1
 69 616 66 610 66 597 c 0
 66 554 110 530 172 527 c 0
 186 527 195 525 195 513 c 0
 195 499 185 499 170 499 c 0
EndSplineSet
EndChar

StartChar: equal
Encoding: 61 61 61
Width: 941
Flags: MW
HStem: 108 61<472 850 472 851> 332 61<472 850>
LayerCount: 2
Fore
SplineSet
90 332 m 1
 80 337 67 344 67 362 c 0
 67 380 82 389 88 391 c 0
 92 393 130 393 472 393 c 2
 851 393 l 1
 857 389 873 382 873 362 c 0
 873 344 861 337 850 332 c 1
 90 332 l 1
90 108 m 1
 72 115 67 127 67 138 c 0
 67 151 74 160 89 168 c 0
 93 169 166 169 472 169 c 2
 850 169 l 1
 862 161 873 156 873 138 c 0
 873 132 871 117 851 108 c 1
 90 108 l 1
EndSplineSet
EndChar

StartChar: uni1FBF
Encoding: 8127 8127 62
Width: 269
Flags: MW
HStem: 499 28<89 96 89 120> 674 20G<123 144.5>
VStem: 202 29
LayerCount: 2
Fore
SplineSet
74 633 m 0
 74 682 112 694 134 694 c 0
 155 694 225 680 231 602 c 0
 234 525 146 499 94 499 c 0
 82 499 73 502 73 513 c 0
 73 525 82 527 96 527 c 0
 157 530 202 553 202 597 c 0
 202 609 197 624 196 628 c 1
 191 614 184 572 134 572 c 0
 100 572 74 595 74 633 c 0
EndSplineSet
EndChar

StartChar: semicolon
Encoding: 59 59 63
Width: 336
Flags: MW
HStem: 1 21G<143.5 182>
VStem: 87 164<57.5 72 -7 104.5>
LayerCount: 2
Fore
SplineSet
168 283 m 0
 122 283 88 318 88 363 c 0
 88 421 143 454 190 441 c 0
 229 429 248 397 248 363 c 0
 248 317 213 283 168 283 c 0
87 81 m 0
 87 128 120 162 170 162 c 0
 224 158 251 109 251 35 c 0
 251 -49 217 -127 155 -183 c 0
 145 -193 141 -195 135 -194 c 0
 130 -193 117 -181 117 -173 c 0
 117 -162 146 -147 172 -106 c 0
 202 -60 211 -15 214 13 c 1
 205 8 196 1 168 1 c 0
 119 1 87 34 87 81 c 0
EndSplineSet
EndChar

StartChar: uni1FDF
Encoding: 8159 8159 64
Width: 403
Flags: MW
HStem: 488 28<215 219.5> 525 68<197 203 188 215.5> 595 38<266.5 311.5 266.5 320.5> 674 20G<364 385>
VStem: 0 59<607 614.5 607 640.5> 149 87 343 59<674 682>
LayerCount: 2
Fore
SplineSet
30 595 m 0
 7 595 0 596 0 612 c 0
 0 669 77 708 162 689 c 0
 237 676 244 633 289 633 c 0
 334 633 343 669 343 679 c 0
 343 685 346 689 350 692 c 0
 353 694 355 694 373 694 c 0
 397 694 402 693 402 678 c 0
 402 631 355 595 286 595 c 0
 237 595 203 607 167 632 c 0
 136 654 130 656 114 656 c 0
 67 656 59 619 59 610 c 0
 59 604 56 600 52 597 c 0
 49 595 47 595 30 595 c 0
236 558 m 0
 236 547 230 525 201 525 c 0
 193 525 192 525 186 528 c 0
 180 531 180 531 182 528 c 0
 188 522 206 516 220 516 c 0
 240 516 237 495 229 490 c 0
 225 488 224 488 215 488 c 0
 160 492 150 525 149 538 c 0
 148 568 173 593 203 593 c 0
 210 592 236 588 236 558 c 0
EndSplineSet
EndChar

StartChar: Alpha
Encoding: 913 913 65
Width: 913
Flags: MW
HStem: 0 48<43 51 43 71 51 71 283 285 285 294 527 539 539 574 574 586.5 771 858 858 869> 196 48<377 444.5 377 556> 678 20G<449.5 465>
LayerCount: 2
Fore
SplineSet
285 0 m 2
 272 3 66 4 51 0 c 1
 43 0 l 1
 43 48 l 1
 71 48 l 2
 118 49 144 53 146 59 c 0
 147 60 208 201 283 372 c 0
 366 561 421 685 423 687 c 0
 436 700 441 698 458 698 c 0
 472 698 474 697 478 695 c 0
 490 690 478 714 631 366 c 2
 771 48 l 1
 869 48 l 1
 869 0 l 1
 858 0 l 2
 838 3 560 3 539 0 c 2
 527 0 l 1
 527 48 l 1
 574 48 l 2
 599 48 620 48 620 49 c 2
 556 196 l 1
 265 196 l 1
 235 127 l 2
 219 90 205 58 206 58 c 0
 208 53 251 48 283 48 c 2
 294 48 l 1
 294 0 l 1
 285 0 l 2
474 382 m 2
 423 498 422 502 410 527 c 1
 287 245 l 2
 287 244 343 244 411 244 c 0
 478 244 534 244 534 245 c 2
 474 382 l 2
EndSplineSet
EndChar

StartChar: Beta
Encoding: 914 914 66
Width: 860
Flags: MW
HStem: 0 48<47 59 47 155 348 394 394 434.5> 338 37<287 383 287 407 287 383> 638 47<287 466.5 289.5 399>
LayerCount: 2
Fore
SplineSet
47 638 m 1
 47 686 l 1
 59 686 l 1
 86 682 151 685 428 685 c 0
 505 685 570 691 649 658 c 0
 682 643 758 600 758 514 c 0
 758 421 666 374 577 359 c 1
 587 357 l 1
 706 345 774 283 790 213 c 0
 791 207 791 198 791 188 c 0
 791 120 749 51 662 22 c 0
 586 -6 494 0 443 0 c 0
 253 0 276 4 145 2 c 0
 104 1 65 1 59 0 c 2
 47 0 l 1
 47 48 l 1
 155 48 l 1
 155 638 l 1
 47 638 l 1
583 601 m 0
 543 643 510 637 399 638 c 2
 287 638 l 1
 287 375 l 1
 383 375 l 2
 486 376 486 376 509 381 c 0
 628 412 639 542 583 601 c 0
537 335 m 0
 528 337 527 337 407 338 c 2
 287 338 l 1
 287 48 l 1
 394 48 l 2
 475 48 534 40 588 75 c 0
 657 124 661 242 602 301 c 0
 585 318 564 329 537 335 c 0
EndSplineSet
EndChar

StartChar: uni1FDD
Encoding: 8157 8157 67
Width: 336
Flags: MW
HStem: 499 28<117 122.5> 674 20G<67 90>
VStem: -18 29<575.5 603.5 575.5 636>
LayerCount: 2
Fore
SplineSet
156 657 m 0
 156 692 197 719 236 711 c 0
 255 706 269 690 274 669 c 0
 275 663 285 513 285 502 c 2
 285 498 l 1
 264 490 l 1
 215 557 l 2
 163 630 156 635 156 657 c 0
115 499 m 0
 39 502 -18 538 -18 598 c 0
 -18 674 56 694 78 694 c 0
 102 694 139 680 139 633 c 0
 139 595 113 572 79 572 c 0
 42 572 22 598 17 628 c 1
 14 616 11 610 11 597 c 0
 11 554 55 530 117 527 c 0
 131 527 140 525 140 513 c 0
 140 499 130 499 115 499 c 0
EndSplineSet
EndChar

StartChar: uni0394
Encoding: 916 916 68
Width: 1008
Flags: MW
HStem: 0 122<320 584 320 695.5>
LayerCount: 2
Fore
SplineSet
462 681 m 0
 473 701 497 698 505 698 c 0
 520 697 523 697 528 695 c 0
 540 690 526 713 745 350 c 0
 930 44 947 16 947 12 c 0
 947 7 945 4 941 1 c 0
 938 0 887 0 504 0 c 0
 120 0 69 0 66 1 c 0
 62 4 60 7 60 12 c 0
 60 16 77 44 259 346 c 0
 369 527 460 678 462 681 c 0
716 123 m 1
 451 560 l 1
 187 123 l 1
 320 122 l 1
 584 122 l 1
 716 123 l 1
EndSplineSet
EndChar

StartChar: Epsilon
Encoding: 917 917 69
Width: 795
Flags: W
HStem: 0 48<45 57 45 153 369 386 386 440> 329 48<296 343 296 343> 632 48<45 57 57 153 45 57 296 385 296 296>
VStem: 153 143<48 329 377 632> 472 54<212 229 229 229 477 494 212 494> 673 54<438.5 440> 706 54<272 275 272 275>
LayerCount: 2
Fore
SplineSet
696 676 m 1xfa
 700 667 723 450 727 442 c 1
 727 438 l 1
 700 438 l 2
 685 438 673 438 673 439 c 0xfc
 673 441 667 476 665 485 c 0
 647 576 605 618 520 628 c 0
 497 631 474 632 385 632 c 2
 296 632 l 1
 296 377 l 1
 343 377 l 2
 365 378 442 371 460 419 c 0
 468 435 471 448 472 477 c 2
 472 494 l 1
 526 494 l 1
 526 212 l 1
 472 212 l 1
 472 229 l 2
 470 288 453 317 402 326 c 0
 392 328 385 328 343 329 c 2
 296 329 l 1
 296 48 l 1
 386 48 l 2
 494 48 582 44 639 101 c 0
 672 134 690 178 703 260 c 0
 704 265 705 271 706 272 c 2
 706 275 l 1
 760 275 l 1
 760 272 l 2
 759 271 749 210 737 138 c 0
 725 65 715 4 714 3 c 2
 714 0 l 1
 520 0 l 2
 218 0 306 4 148 2 c 0
 104 1 63 1 57 0 c 2
 45 0 l 1
 45 48 l 1
 153 48 l 1
 153 632 l 1
 45 632 l 1
 45 680 l 1
 57 680 l 1
 90 674 216 680 511 680 c 2
 696 680 l 1
 696 676 l 1xfa
EndSplineSet
EndChar

StartChar: Phi
Encoding: 934 934 70
Width: 874
Flags: MW
HStem: 0 48<230 243 230 365 243 365 497 619 619 632> 153 37<497 501 497 501 497 508> 496 37<497 501> 638 48<230 243 243 365 230 243 497 497 497 619 619 632>
VStem: 68 147<338.5 366.5 314 387.5> 658 148<330 347.5 330 373>
LayerCount: 2
Fore
SplineSet
619 0 m 2
 595 3 270 3 243 0 c 2
 230 0 l 1
 230 48 l 1
 365 48 l 1
 365 153 l 1
 362 153 l 2
 360 154 349 155 338 156 c 0
 276 163 98 191 69 319 c 0
 68 325 68 334 68 343 c 0
 68 432 153 477 187 492 c 0
 233 512 281 524 338 530 c 0
 349 531 360 532 362 533 c 2
 365 533 l 1
 365 638 l 1
 230 638 l 1
 230 686 l 1
 243 686 l 2
 267 683 592 683 619 686 c 2
 632 686 l 1
 632 638 l 1
 497 638 l 1
 497 533 l 1
 508 533 l 1
 579 529 772 501 804 367 c 0
 805 361 806 352 806 343 c 0
 806 317 800 273 743 228 c 0
 692 187 603 159 508 153 c 1
 497 153 l 1
 497 48 l 1
 632 48 l 1
 632 0 l 1
 619 0 l 2
501 190 m 1
 578 202 658 221 658 343 c 0
 658 403 642 479 516 493 c 0
 510 494 503 495 501 496 c 2
 497 496 l 1
 497 190 l 1
 501 190 l 1
365 191 m 1
 365 495 l 1
 355 493 l 2
 313 487 272 470 251 450 c 0
 227 427 215 390 215 343 c 0
 215 285 228 211 355 193 c 1
 365 191 l 1
EndSplineSet
EndChar

StartChar: Gamma
Encoding: 915 915 71
Width: 728
Flags: MW
HStem: 0 48<45 57 45 153 57 153 296 418 418 431> 632 48<45 57 45 153 45 57>
VStem: 623 54<438.5 440.5>
LayerCount: 2
Fore
SplineSet
418 0 m 2
 395 3 81 3 57 0 c 2
 45 0 l 1
 45 48 l 1
 153 48 l 1
 153 632 l 1
 45 632 l 1
 45 680 l 1
 57 680 l 2
 68 678 229 677 277 678 c 0
 308 679 386 680 486 680 c 2
 646 680 l 1
 646 676 l 1
 650 667 673 450 677 442 c 1
 677 438 l 1
 650 438 l 2
 635 438 623 438 623 439 c 0
 623 442 616 485 614 496 c 0
 585 640 489 631 377 632 c 2
 296 632 l 1
 296 48 l 1
 431 48 l 1
 431 0 l 1
 418 0 l 2
EndSplineSet
EndChar

StartChar: Eta
Encoding: 919 919 72
Width: 943
Flags: MW
HStem: 0 48<45 57 45 153 57 153 296 392 392 404 538 550 550 646 789 885 885 897> 333 48<296 646 296 646> 638 48<45 57 57 153 45 57 296 296 296 392 392 404 538 550 550 646 789 789 789 885 885 897>
VStem: 646 143<48 333 333 333 381 638 48 638>
LayerCount: 2
Fore
SplineSet
392 0 m 2
 368 3 78 3 57 0 c 2
 45 0 l 1
 45 48 l 1
 153 48 l 1
 153 638 l 1
 45 638 l 1
 45 686 l 1
 57 686 l 2
 81 683 371 683 392 686 c 2
 404 686 l 1
 404 638 l 1
 296 638 l 1
 296 381 l 1
 646 381 l 1
 646 638 l 1
 538 638 l 1
 538 686 l 1
 550 686 l 2
 571 683 861 683 885 686 c 2
 897 686 l 1
 897 638 l 1
 789 638 l 1
 789 48 l 1
 897 48 l 1
 897 0 l 1
 885 0 l 2
 861 3 571 3 550 0 c 2
 538 0 l 1
 538 48 l 1
 646 48 l 1
 646 333 l 1
 296 333 l 1
 296 48 l 1
 404 48 l 1
 404 0 l 1
 392 0 l 2
EndSplineSet
EndChar

StartChar: Iota
Encoding: 921 921 73
Width: 449
Flags: MW
HStem: 0 48<39 52 39 153 52 153 296 397 397 410> 638 48<39 52 52 153 39 52 296 296 296 397 397 410>
LayerCount: 2
Fore
SplineSet
397 0 m 2
 374 3 74 3 52 0 c 2
 39 0 l 1
 39 48 l 1
 153 48 l 1
 153 638 l 1
 39 638 l 1
 39 686 l 1
 52 686 l 2
 74 683 375 683 397 686 c 2
 410 686 l 1
 410 638 l 1
 296 638 l 1
 296 48 l 1
 410 48 l 1
 410 0 l 1
 397 0 l 2
EndSplineSet
EndChar

StartChar: Theta
Encoding: 920 920 74
Width: 941
Flags: MW
HStem: -11 39<446.5 492 446.5 593>
VStem: 67 143 278 54<249 283 405 439> 608 54<249 283 283 283 405 439 249 439> 730 143
LayerCount: 2
Fore
SplineSet
470 -11 m 0
 224 -11 67 131 67 339 c 0
 67 371 71 405 80 437 c 0
 100 516 184 718 525 695 c 1
 741 670 830 555 860 437 c 0
 869 405 873 371 873 339 c 0
 873 129 716 -11 470 -11 c 0
685 547 m 0
 607 674 446 679 352 634 c 0
 204 565 209 383 210 326 c 0
 212 273 215 121 345 56 c 0
 384 37 423 28 470 28 c 0
 514 28 639 36 697 161 c 0
 718 205 728 255 730 326 c 0
 732 421 717 493 685 547 c 0
278 249 m 1
 278 439 l 1
 332 439 l 1
 332 405 l 1
 608 405 l 1
 608 439 l 1
 662 439 l 1
 662 249 l 1
 608 249 l 1
 608 283 l 1
 332 283 l 1
 332 249 l 1
 278 249 l 1
EndSplineSet
EndChar

StartChar: Kappa
Encoding: 922 922 75
Width: 946
Flags: MW
HStem: 0 48<45 57 45 153 57 153 296 392 392 404 569 582 582 591 873 886 886 895> 638 48<45 57 57 153 45 57 296 296 296 392 392 404 618 629 629 633 852 852 852 872 872 878>
LayerCount: 2
Fore
SplineSet
392 0 m 2
 368 3 78 3 57 0 c 2
 45 0 l 1
 45 48 l 1
 153 48 l 1
 153 638 l 1
 45 638 l 1
 45 686 l 1
 57 686 l 2
 81 683 371 683 392 686 c 2
 404 686 l 1
 404 638 l 1
 296 638 l 1
 296 479 l 2
 296 352 296 320 297 321 c 0
 328 345 681 624 683 626 c 0
 685 628 685 628 684 630 c 0
 681 633 655 637 633 638 c 2
 618 638 l 1
 618 686 l 1
 629 686 l 2
 650 683 860 683 872 686 c 2
 878 686 l 1
 878 638 l 1
 852 638 l 2
 814 637 790 634 779 630 c 0
 775 628 744 605 643 525 c 0
 571 468 512 421 511 420 c 0
 509 419 518 407 656 238 c 0
 737 139 804 57 806 55 c 0
 814 50 833 48 873 48 c 2
 895 48 l 1
 895 0 l 1
 886 0 l 2
 871 3 607 4 582 0 c 1
 569 0 l 1
 569 48 l 1
 591 48 l 2
 623 49 639 52 638 58 c 2
 638 58 426 323 409 340 c 1
 296 251 l 1
 296 48 l 1
 404 48 l 1
 404 0 l 1
 392 0 l 2
EndSplineSet
EndChar

StartChar: Lambda
Encoding: 923 923 76
Width: 845
Flags: MW
HStem: 0 48<42 49 42 67 49 67 271 273 273 282 466 479 479 513 715 792 792 802>
LayerCount: 2
Fore
SplineSet
273 0 m 2
 258 3 63 4 49 0 c 1
 42 0 l 1
 42 48 l 1
 67 48 l 2
 102 49 124 52 130 56 c 0
 133 58 144 85 256 360 c 0
 323 526 380 667 383 673 c 0
 394 700 405 698 424 698 c 0
 437 697 447 699 456 684 c 0
 457 683 514 544 582 377 c 0
 650 210 707 67 710 60 c 2
 715 48 l 1
 802 48 l 1
 802 0 l 1
 792 0 l 1
 769 4 497 3 479 0 c 2
 466 0 l 1
 466 48 l 1
 513 48 l 1
 561 49 l 1
 374 507 l 2
 373 507 193 62 192 59 c 0
 192 53 239 48 271 48 c 2
 282 48 l 1
 282 0 l 1
 273 0 l 2
EndSplineSet
EndChar

StartChar: Mu
Encoding: 924 924 77
Width: 1145
Flags: MW
HStem: 0 48<50 59 50 69 59 69 69 96.5 307 317 317 326 752 763 763 860 986 1083 1083 1094> 638 48<50 158 50 298 986 986 986 1094>
VStem: 158 60<58 340 58 638>
LayerCount: 2
Fore
SplineSet
69 48 m 2
 124 48 143 51 158 58 c 1
 158 638 l 1
 50 638 l 1
 50 686 l 1
 298 686 l 1
 302 683 l 2
 314 678 304 697 444 400 c 0
 557 162 573 128 574 130 c 0
 574 132 632 254 702 402 c 0
 841 697 831 678 843 683 c 2
 848 686 l 1
 1094 686 l 1
 1094 638 l 1
 986 638 l 1
 986 48 l 1
 1094 48 l 1
 1094 0 l 1
 1083 0 l 2
 1064 3 782 3 763 0 c 2
 752 0 l 1
 752 48 l 1
 860 48 l 1
 860 635 l 1
 711 320 l 2
 553 -14 565 9 553 3 c 0
 549 1 547 1 536 1 c 0
 525 1 523 1 519 3 c 0
 507 9 519 -14 362 318 c 2
 219 621 l 1
 218 340 l 1
 218 58 l 2
 221 52 259 48 307 48 c 2
 326 48 l 1
 326 0 l 1
 317 0 l 2
 301 3 75 3 59 0 c 2
 50 0 l 1
 50 48 l 1
 69 48 l 2
EndSplineSet
EndChar

StartChar: Nu
Encoding: 925 925 78
Width: 943
Flags: MW
HStem: 0 48<45 54 45 64 54 64 64 91.5 302 312 312 321> 638 48<45 153 45 296 621 630 630 640 859.5 878 878 888 888 897>
VStem: 153 61<58 638> 729 61<202 629 629 629>
LayerCount: 2
Fore
SplineSet
64 48 m 2
 119 48 138 51 153 58 c 1
 153 638 l 1
 45 638 l 1
 45 686 l 1
 296 686 l 1
 306 681 330 651 513 446 c 0
 627 316 723 209 725 206 c 2
 729 202 l 1
 729 629 l 1
 715 635 693 638 640 638 c 2
 621 638 l 1
 621 686 l 1
 630 686 l 2
 646 683 872 683 888 686 c 2
 897 686 l 1
 897 638 l 1
 878 638 l 2
 841 638 805 636 790 629 c 1
 789 321 l 2
 789 37 788 12 787 9 c 0
 783 2 778 0 759 0 c 0
 748 0 743 0 740 2 c 0
 737 3 696 48 476 296 c 0
 333 458 216 590 215 591 c 0
 213 593 213 579 213 326 c 2
 214 58 l 1
 225 49 262 48 302 48 c 2
 321 48 l 1
 321 0 l 1
 312 0 l 2
 296 3 70 3 54 0 c 2
 45 0 l 1
 45 48 l 1
 64 48 l 2
EndSplineSet
EndChar

StartChar: Omicron
Encoding: 927 927 79
Width: 910
Flags: MW
HStem: -10 42<404.5 545 404.5 575.5>
VStem: 68 153<235 370 217 390.5> 688 154<346.5 347 236 370>
LayerCount: 2
Fore
SplineSet
455 -10 m 0
 215 -10 68 131 68 339 c 0
 68 442 104 542 185 610 c 0
 236 652 330 707 507 695 c 1
 797 665 833 444 840 379 c 0
 841 372 842 355 842 339 c 0
 842 133 696 -10 455 -10 c 0
688 370 m 0
 686 428 686 623 491 654 c 1
 348 668 248 592 227 448 c 0
 223 421 221 387 221 353 c 0
 221 81 355 32 454 32 c 0
 636 32 673 196 681 249 c 0
 686 284 688 323 688 370 c 0
EndSplineSet
EndChar

StartChar: Pi
Encoding: 928 928 80
Width: 943
Flags: MW
HStem: 0 48<45 57 45 153 57 153 296 392 392 404 538 550 550 646 789 885 885 897> 632 48<45 57 45 153 45 57 400 608 885 897>
LayerCount: 2
Fore
SplineSet
392 0 m 2
 368 3 78 3 57 0 c 2
 45 0 l 1
 45 48 l 1
 153 48 l 1
 153 632 l 1
 45 632 l 1
 45 680 l 1
 57 680 l 2
 63 679 209 676 256 678 c 0
 281 679 329 680 471 680 c 0
 745 680 651 676 796 678 c 0
 838 679 878 679 885 680 c 2
 897 680 l 1
 897 632 l 1
 789 632 l 1
 789 48 l 1
 897 48 l 1
 897 0 l 1
 885 0 l 2
 861 3 571 3 550 0 c 2
 538 0 l 1
 538 48 l 1
 646 48 l 1
 646 632 l 1
 296 632 l 1
 296 48 l 1
 404 48 l 1
 404 0 l 1
 392 0 l 2
EndSplineSet
EndChar

StartChar: Chi
Encoding: 935 935 81
Width: 913
Flags: MW
HStem: 0 48<37 46 37 58 46 58 58 83.5 37 313 316 324 529 542 542 569 569 580 777 865 865 876> 638 48<52 63 63 152 52 63 319 319 319 387 387 399 537 548 548 555 791 791 791 816 816 825>
LayerCount: 2
Fore
SplineSet
313 0 m 2
 294 3 63 3 46 0 c 2
 37 0 l 1
 37 48 l 1
 58 48 l 2
 109 48 153 52 162 57 c 0
 165 59 200 102 277 196 c 0
 338 272 388 333 388 334 c 2
 152 638 l 1
 52 638 l 1
 52 686 l 1
 63 686 l 1
 85 682 367 683 387 686 c 2
 399 686 l 1
 399 638 l 1
 319 638 l 1
 396 539 l 2
 438 484 473 440 474 440 c 0
 475 440 626 626 626 628 c 0
 626 631 592 636 555 638 c 2
 537 638 l 1
 537 686 l 1
 548 686 l 2
 567 683 799 683 816 686 c 2
 825 686 l 1
 825 638 l 1
 791 638 l 2
 757 637 703 636 695 625 c 0
 686 616 509 396 509 395 c 0
 509 394 569 316 643 221 c 2
 777 48 l 1
 876 48 l 1
 876 0 l 1
 865 0 l 1
 843 4 562 3 542 0 c 2
 529 0 l 1
 529 48 l 1
 569 48 l 2
 591 48 609 48 609 49 c 2
 609 49 423 289 422 289 c 0
 421 289 236 60 236 59 c 0
 236 55 285 48 316 48 c 2
 324 48 l 1
 324 0 l 1
 313 0 l 2
EndSplineSet
EndChar

StartChar: Rho
Encoding: 929 929 82
Width: 826
Flags: MW
HStem: 0 48<45 57 45 153 57 153 296 392 392 404> 301 42<296 382 290 408 296 296> 638 48<45 56 45 153 45 56>
VStem: 153 137<343 638 343 638 343 638>
LayerCount: 2
Fore
SplineSet
392 0 m 2
 368 3 78 3 57 0 c 2
 45 0 l 1
 45 48 l 1
 153 48 l 1
 153 638 l 1
 45 638 l 1
 45 686 l 1
 56 686 l 1
 100 679 416 689 506 685 c 0
 658 677 758 600 758 491 c 0
 758 450 738 337 559 307 c 0
 527 302 527 302 408 301 c 2
 296 301 l 1
 296 48 l 1
 404 48 l 1
 404 0 l 1
 392 0 l 2
546 619 m 0
 514 636 497 637 382 638 c 2
 290 638 l 1
 290 343 l 1
 382 343 l 2
 459 344 530 337 577 384 c 0
 610 417 605 495 603 528 c 0
 599 577 584 601 546 619 c 0
EndSplineSet
EndChar

StartChar: Sigma
Encoding: 931 931 83
Width: 874
Flags: MW
HStem: 0 67<340 428 428 430.5 340 775> 444 21G<752 806 752 752> 638 48
VStem: 752 54<260 260.5>
LayerCount: 2
Fore
SplineSet
78 2 m 0
 74 2 67 11 67 18 c 0
 67 27 61 21 223 159 c 2
 376 289 l 1
 370 296 l 2
 232 456 70 646 69 649 c 0
 68 651 67 655 67 662 c 0
 67 675 70 680 78 684 c 0
 81 686 94 686 428 686 c 2
 775 686 l 1
 775 682 l 1
 779 673 802 456 806 448 c 1
 806 444 l 1
 752 444 l 1
 746 472 736 574 653 612 c 0
 602 637 526 638 375 638 c 2
 266 638 l 1
 387 497 l 2
 453 419 509 354 510 352 c 0
 512 349 512 346 512 343 c 0
 512 340 512 337 510 334 c 0
 508 331 461 290 353 199 c 2
 199 68 l 1
 340 67 l 2
 521 67 550 68 597 76 c 0
 639 84 666 96 689 118 c 0
 730 157 741 201 752 260 c 0
 752 261 763 261 779 261 c 2
 806 261 l 1
 806 257 l 1
 801 248 779 12 775 4 c 1
 775 0 l 1
 428 0 l 2
 119 0 82 0 78 2 c 0
EndSplineSet
EndChar

StartChar: Tau
Encoding: 932 932 84
Width: 843
Flags: MW
HStem: 0 48<197 212 197 350 212 350 493 631 631 646> 627 46
VStem: 44 54<433.5 438 438 438> 744 54<433.5 434>
LayerCount: 2
Fore
SplineSet
44 438 m 2
 46 444 64 666 65 670 c 2
 65 675 l 1
 191 675 l 2
 396 675 362 670 474 673 c 0
 502 674 581 675 651 675 c 2
 777 675 l 1
 777 670 l 2
 779 664 797 442 798 438 c 2
 798 433 l 1
 771 433 l 2
 756 433 744 433 744 434 c 2
 742 455 l 2
 733 538 725 615 603 626 c 0
 596 627 568 627 541 627 c 2
 493 627 l 1
 493 48 l 1
 646 48 l 1
 646 0 l 1
 631 0 l 2
 605 3 238 3 212 0 c 2
 197 0 l 1
 197 48 l 1
 350 48 l 1
 350 627 l 1
 293 627 l 2
 252 626 159 634 125 563 c 0
 112 538 98 474 98 434 c 0
 98 433 86 433 71 433 c 2
 44 433 l 1
 44 438 l 2
EndSplineSet
EndChar

StartChar: Upsilon
Encoding: 933 933 85
Width: 845
Flags: MW
HStem: 0 48<245 256 245 353 256 353 490 587 587 599> 638 48<19 30 30 116 19 30 280 280 280 352 352 365 578 587 587 597 798 798 798 818 818 825>
LayerCount: 2
Fore
SplineSet
587 0 m 2
 564 3 275 3 256 0 c 2
 245 0 l 1
 245 48 l 1
 353 48 l 1
 353 275 l 1
 116 638 l 1
 19 638 l 1
 19 686 l 1
 30 686 l 1
 54 682 336 684 352 686 c 2
 365 686 l 1
 365 638 l 1
 280 638 l 1
 462 358 l 1
 472 344 l 1
 562 483 l 2
 612 559 654 623 655 625 c 0
 656 627 656 628 655 629 c 0
 652 633 625 637 597 638 c 2
 578 638 l 1
 578 686 l 1
 587 686 l 2
 600 683 803 682 818 686 c 1
 825 686 l 1
 825 638 l 1
 798 638 l 2
 759 637 734 634 726 630 c 0
 722 628 712 614 606 451 c 2
 490 274 l 1
 490 48 l 1
 599 48 l 1
 599 0 l 1
 587 0 l 2
EndSplineSet
EndChar

StartChar: uni1FDE
Encoding: 8158 8158 86
Width: 336
Flags: MW
HStem: 499 28<147 152.5> 674 20G<97 120>
VStem: 12 29<575.5 603.5 575.5 636>
LayerCount: 2
Fore
SplineSet
191 669 m 0
 201 716 258 728 295 691 c 0
 304 680 309 669 309 657 c 0
 309 636 302 630 250 557 c 2
 201 490 l 1
 180 498 l 1
 180 502 l 2
 180 513 190 663 191 669 c 0
145 499 m 0
 69 502 12 538 12 598 c 0
 12 674 86 694 108 694 c 0
 132 694 169 680 169 633 c 0
 169 595 143 572 109 572 c 0
 82 572 55 587 47 628 c 1
 44 616 41 610 41 597 c 0
 41 554 85 530 147 527 c 0
 161 527 170 525 170 513 c 0
 170 499 160 499 145 499 c 0
EndSplineSet
EndChar

StartChar: uni03A9
Encoding: 937 937 87
Width: 874
Flags: MW
HStem: 0 21G<91 203 91 91 617 670 670 782>
VStem: 68 154<393 499.5 393 501.5> 544 58<21.5 105.5> 651 155<391 461.5 391 543.5>
LayerCount: 2
Fore
SplineSet
91 2 m 2
 89 4 57 196 54 199 c 2
 54 201 l 1
 108 201 l 1
 126 111 123 108 169 105 c 0
 184 104 271 104 271 105 c 0
 271 106 258 129 252 139 c 0
 175 252 68 328 68 455 c 0
 68 548 131 643 286 681 c 0
 359 698 566 721 699 635 c 0
 758 599 792 551 804 485 c 0
 805 480 806 468 806 455 c 0
 806 327 693 245 621 139 c 0
 615 129 602 106 602 105 c 0
 602 104 689 104 704 105 c 0
 731 107 740 111 745 120 c 0
 755 140 764 197 765 201 c 1
 819 201 l 1
 819 199 l 1
 815 195 786 6 782 2 c 1
 782 0 l 1
 670 0 l 2
 564 0 558 0 554 2 c 0
 544 7 544 19 544 24 c 0
 544 170 651 306 651 458 c 0
 651 629 524 659 437 659 c 0
 254 659 222 541 222 458 c 0
 222 328 295 225 321 93 c 0
 326 71 329 40 329 24 c 0
 329 -7 316 0 203 0 c 2
 91 0 l 1
 91 2 l 2
EndSplineSet
EndChar

StartChar: Xi
Encoding: 926 926 88
Width: 806
Flags: W
HStem: 562 113<285.5 520>
VStem: 50 54<209 209.5> 57 54<476 487 476 487> 168 54<250 295 408 453> 583 54<250 295 295 295 408 453 250 453> 694 54<476 487 476 487> 701 54<209 209.5 209 210 209 210>
LayerCount: 2
Fore
SplineSet
57 487 m 1xbc
 61 509 63 647 66 664 c 2
 66 675 l 1
 739 675 l 1
 739 664 l 1
 744 636 742 521 748 487 c 1
 748 476 l 1
 694 476 l 1
 694 487 l 1
 690 534 686 555 671 558 c 0
 651 561 637 562 403 562 c 0
 168 562 154 561 134 558 c 0
 119 555 115 533 111 487 c 1
 111 476 l 1
 57 476 l 1
 57 487 l 1xbc
168 250 m 1
 168 453 l 1
 222 453 l 1
 222 408 l 1
 583 408 l 1
 583 453 l 1
 637 453 l 1
 637 250 l 1
 583 250 l 1
 583 295 l 1
 222 295 l 1
 222 250 l 1
 168 250 l 1
59 1 m 2
 50 209 l 2
 50 210 62 210 77 210 c 2
 104 210 l 1
 104 198 l 2
 107 149 113 124 122 120 c 0
 136 113 192 114 403 114 c 0
 521 114 640 114 652 115 c 0
 670 116 679 118 683 120 c 0
 692 124 698 149 701 198 c 2
 701 210 l 1
 728 210 l 2
 743 210 755 210 755 209 c 2xda
 746 1 l 2
 746 0 59 0 59 1 c 2
EndSplineSet
EndChar

StartChar: Psi
Encoding: 936 936 89
Width: 941
Flags: MW
HStem: 0 48<264 277 264 399 277 399 531 653 653 666> 154 42<396.5 398.5 396.5 399 391 398.5> 498 48<67 83 67 136 67 83 321 338 602 619 857 873> 638 48<264 277 277 399 264 277 531 531 531 653 653 666>
LayerCount: 2
Fore
SplineSet
653 0 m 2
 629 3 304 3 277 0 c 2
 264 0 l 1
 264 48 l 1
 399 48 l 1
 399 154 l 1
 391 154 l 1
 280 164 163 218 139 367 c 0
 137 384 136 405 136 452 c 2
 136 498 l 1
 67 498 l 1
 67 546 l 1
 83 546 l 2
 112 544 156 544 202 544 c 0
 247 544 292 544 321 546 c 2
 338 546 l 1
 338 498 l 1
 268 498 l 1
 268 440 l 2
 269 396 267 356 283 305 c 0
 298 259 326 227 365 208 c 0
 374 204 395 196 398 196 c 0
 399 196 399 294 399 417 c 2
 399 638 l 1
 264 638 l 1
 264 686 l 1
 277 686 l 2
 301 683 626 683 653 686 c 2
 666 686 l 1
 666 638 l 1
 531 638 l 1
 531 195 l 1
 549 201 581 205 616 240 c 0
 670 294 672 368 672 453 c 2
 672 498 l 1
 602 498 l 1
 602 546 l 1
 619 546 l 2
 648 544 693 544 738 544 c 0
 784 544 828 544 857 546 c 2
 873 546 l 1
 873 498 l 1
 804 498 l 1
 804 442 l 2
 803 399 803 384 802 375 c 0
 770 148 540 160 533 153 c 1
 531 153 l 1
 531 48 l 1
 666 48 l 1
 666 0 l 1
 653 0 l 2
EndSplineSet
EndChar

StartChar: Zeta
Encoding: 918 918 90
Width: 739
Flags: MW
HStem: 0 52<292.5 331 292.5 371 292.5 660> 444 21G<84 138 84 84> 638 48<405 427 427 500>
VStem: 84 54<444 452 444 454 444 454> 624 54<277 285 277 285>
LayerCount: 2
Fore
SplineSet
84 454 m 2
 86 462 94 668 96 676 c 2
 96 686 l 1
 376 686 l 2
 646 686 657 686 661 684 c 0
 669 680 671 675 671 661 c 0
 671 655 670 650 670 648 c 0
 669 645 247 62 240 53 c 0
 239 52 254 52 331 52 c 0
 422 53 429 53 454 57 c 0
 573 74 613 144 624 277 c 1
 624 285 l 1
 678 285 l 1
 678 277 l 1
 672 254 666 31 660 8 c 1
 660 0 l 1
 371 0 l 2
 113 0 82 0 78 2 c 0
 69 5 67 10 67 26 c 0
 67 34 67 39 68 41 c 0
 69 43 167 178 285 341 c 2
 500 638 l 1
 427 638 l 2
 383 638 277 646 215 603 c 0
 166 571 144 514 138 452 c 1
 138 444 l 1
 84 444 l 1
 84 454 l 2
EndSplineSet
EndChar

StartChar: bracketleft
Encoding: 91 91 91
Width: 336
Flags: MW
HStem: -250 62<197 309 197 309> 688 62<197 309 197 197>
VStem: 135 62<-188 688 -188 750>
LayerCount: 2
Fore
SplineSet
135 -250 m 1
 135 750 l 1
 309 750 l 1
 309 688 l 1
 197 688 l 1
 197 -188 l 1
 309 -188 l 1
 309 -250 l 1
 135 -250 l 1
EndSplineSet
EndChar

StartChar: uni1FCF
Encoding: 8143 8143 92
Width: 403
Flags: MW
HStem: 488 28<183 189> 525 67<191.5 206> 595 38<266.5 311.5 266.5 320.5> 674 20G<364 385>
VStem: 0 59<607 614.5 607 640.5> 343 59<674 682>
LayerCount: 2
Fore
SplineSet
30 595 m 0
 7 595 0 596 0 612 c 0
 0 669 77 708 162 689 c 0
 237 676 244 633 289 633 c 0
 334 633 343 669 343 679 c 0
 343 685 346 689 350 692 c 0
 353 694 355 694 373 694 c 0
 397 694 402 693 402 678 c 0
 402 631 355 595 286 595 c 0
 237 595 203 607 167 632 c 0
 136 654 130 656 114 656 c 0
 67 656 59 619 59 610 c 0
 59 604 56 600 52 597 c 0
 49 595 47 595 30 595 c 0
167 559 m 0
 167 576 181 592 202 592 c 0
 242 592 266 548 247 517 c 0
 238 501 215 490 189 488 c 0
 177 488 167 489 167 502 c 0
 167 510 173 516 183 516 c 0
 197 516 215 522 221 528 c 0
 223 531 223 531 217 528 c 0
 211 525 210 525 202 525 c 0
 173 525 167 547 167 559 c 0
EndSplineSet
EndChar

StartChar: bracketright
Encoding: 93 93 93
Width: 336
Flags: MW
HStem: -250 62<26 138 26 200 26 138> 688 62<26 200 26 138>
VStem: 138 62<-188 688 688 688>
LayerCount: 2
Fore
SplineSet
26 688 m 1
 26 750 l 1
 200 750 l 1
 200 -250 l 1
 26 -250 l 1
 26 -188 l 1
 138 -188 l 1
 138 688 l 1
 26 688 l 1
EndSplineSet
EndChar

StartChar: uni1FCE
Encoding: 8142 8142 94
Width: 336
Flags: MW
HStem: 499 28<35 42 35 66> 674 20G<69 90.5>
VStem: 148 29
LayerCount: 2
Fore
SplineSet
191 669 m 0
 201 716 258 728 295 691 c 0
 304 680 309 669 309 657 c 0
 309 636 302 630 250 557 c 2
 201 490 l 1
 180 498 l 1
 180 502 l 2
 180 513 190 663 191 669 c 0
20 633 m 0
 20 682 58 694 80 694 c 0
 101 694 171 680 177 602 c 0
 180 525 92 499 40 499 c 0
 28 499 19 502 19 513 c 0
 19 525 28 527 42 527 c 0
 103 530 148 553 148 597 c 0
 148 609 143 624 142 628 c 1
 137 614 130 572 80 572 c 0
 46 572 20 595 20 633 c 0
EndSplineSet
EndChar

StartChar: uni1FCD
Encoding: 8141 8141 95
Width: 336
Flags: MW
HStem: 499 28<7 14 7 38> 674 20G<41 62.5>
VStem: 120 29
LayerCount: 2
Fore
SplineSet
156 657 m 0
 156 692 197 719 236 711 c 0
 255 706 269 690 274 669 c 0
 275 663 285 513 285 502 c 2
 285 498 l 1
 264 490 l 1
 215 557 l 2
 163 630 156 635 156 657 c 0
-8 633 m 0
 -8 682 30 694 52 694 c 0
 73 694 143 680 149 602 c 0
 152 525 64 499 12 499 c 0
 0 499 -9 502 -9 513 c 0
 -9 525 0 527 14 527 c 0
 75 530 120 553 120 597 c 0
 120 609 115 624 114 628 c 1
 109 614 102 572 52 572 c 0
 18 572 -8 595 -8 633 c 0
EndSplineSet
EndChar

StartChar: uni1FEF
Encoding: 8175 8175 96
Width: 202
Flags: W
LayerCount: 2
Fore
SplineSet
32 656 m 0
 32 689 64 709 91 712 c 0
 106 715 126 709 137 696 c 0
 142 691 147 680 150 672 c 0
 151 665 163 499 161 498 c 0
 159 497 144 491 142 491 c 2
 142 491 60 599 41 627 c 0
 35 637 32 647 32 656 c 0
EndSplineSet
EndChar

StartChar: alpha
Encoding: 945 945 97
Width: 605
Flags: MW
HStem: -6 54<227.5 291>
VStem: 50 112<216.5 271.5 187.5 290> 532 38<55 130>
LayerCount: 2
Fore
SplineSet
395 37 m 1
 359 7 315 -6 267 -6 c 0
 143 -6 65 95 52 194 c 0
 51 200 50 211 50 222 c 0
 50 358 153 438 247 449 c 0
 304 454 361 438 397 405 c 0
 402 400 406 394 417 380 c 1
 487 450 l 1
 487 270 l 1
 488 91 l 2
 491 82 493 71 501 68 c 0
 508 64 519 66 524 73 c 0
 529 79 532 93 532 112 c 0
 532 148 557 123 563 112 c 0
 568 104 570 93 570 82 c 0
 570 28 517 -9 464 -6 c 0
 423 -3 410 18 395 37 c 1
162 222 m 0
 162 153 184 48 271 48 c 0
 315 48 369 64 374 104 c 0
 375 114 375 330 374 340 c 0
 367 396 275 398 253 395 c 0
 200 384 162 321 162 222 c 0
EndSplineSet
EndChar

StartChar: beta
Encoding: 946 946 98
Width: 538
Flags: W
VStem: 51 94<330 330> 328 95<527 591> 375 112<156.5 251>
LayerCount: 2
Fore
SplineSet
214 699 m 1xa0
 331 709 423 641 423 555 c 0xc0
 423 499 393 449 348 416 c 1
 340 411 l 1
 351 406 l 2
 392 388 487 322 487 196 c 0
 487 116 433 29 321 2 c 0
 175 -36 64 58 51 330 c 2
 50 356 l 1
 56 446 l 2
 64 546 64 550 68 566 c 0
 86 637 142 688 214 699 c 1xa0
328 555 m 0
 328 627 262 650 223 645 c 0
 221 644 215 643 212 642 c 0
 137 614 145 479 145 441 c 2
 146 383 l 1
 165 389 l 2
 280 429 328 485 328 555 c 0
260 49 m 0
 329 49 375 114 375 199 c 0
 375 303 327 358 300 376 c 0
 295 379 291 382 290 382 c 0
 266 370 211 350 157 337 c 2
 145 335 l 1
 145 316 l 2
 145 104 191 49 260 49 c 0
EndSplineSet
EndChar

StartChar: sigma1
Encoding: 962 962 99
Width: 538
Flags: MW
VStem: 432 70<-97 -39.5>
LayerCount: 2
Fore
SplineSet
34 176 m 0
 34 339 145 450 268 450 c 0
 326 450 379 425 401 386 c 0
 409 372 413 355 413 341 c 0
 413 294 370 284 358 284 c 0
 329 284 302 306 302 340 c 0
 302 367 318 379 325 386 c 1
 305 390 247 413 182 370 c 0
 118 329 79 234 89 163 c 0
 96 140 118 123 153 115 c 0
 177 110 330 114 359 109 c 0
 396 102 482 72 501 -19 c 0
 502 -26 502 -32 502 -47 c 0
 502 -64 505 -92 469 -128 c 0
 441 -156 398 -177 330 -194 c 0
 307 -200 268 -208 264 -208 c 0
 255 -208 242 -198 242 -183 c 0
 242 -156 269 -154 291 -149 c 0
 349 -137 432 -119 432 -75 c 0
 432 -46 408 -14 355 -3 c 0
 332 2 175 -2 155 3 c 0
 62 22 38 119 35 153 c 0
 34 158 34 167 34 176 c 0
EndSplineSet
EndChar

StartChar: delta
Encoding: 948 948 100
Width: 571
Flags: MW
HStem: -6 54<246.5 324 246.5 359>
VStem: 34 112<172 251 172 279.5> 424 112<173 231 162.5 273.5>
LayerCount: 2
Fore
SplineSet
285 -6 m 0
 145 -6 34 94 34 222 c 0
 34 337 118 396 148 413 c 2
 160 420 l 1
 150 426 l 2
 123 444 68 483 68 568 c 0
 68 582 65 610 100 645 c 0
 175 718 414 728 468 615 c 0
 475 601 477 591 478 575 c 0
 478 525 442 513 423 513 c 0
 411 513 367 521 367 569 c 0
 367 600 387 613 398 620 c 1
 383 627 369 640 310 645 c 0
 236 650 193 623 182 588 c 0
 180 583 179 576 179 568 c 0
 179 543 195 462 300 451 c 0
 450 431 510 349 531 272 c 0
 534 257 536 240 536 222 c 0
 536 103 433 -6 285 -6 c 0
285 48 m 0
 363 48 424 124 424 222 c 0
 424 325 361 385 303 395 c 0
 268 399 233 389 205 366 c 0
 168 335 146 280 146 222 c 0
 146 122 208 48 285 48 c 0
EndSplineSet
EndChar

StartChar: epsilon
Encoding: 949 949 101
Width: 470
Flags: MW
HStem: -6 54<209.5 264 209.5 290.5>
LayerCount: 2
Fore
SplineSet
145 122 m 0
 145 81 182 48 237 48 c 0
 291 48 350 73 382 121 c 0
 386 127 389 131 390 131 c 0
 392 130 435 105 435 104 c 2
 429 94 l 2
 408 62 350 -6 231 -6 c 0
 153 -6 68 21 43 81 c 0
 26 116 22 191 116 234 c 0
 123 237 128 239 129 239 c 0
 130 239 130 239 130 240 c 0
 130 241 130 241 129 241 c 0
 127 241 106 256 98 263 c 0
 67 294 67 321 67 334 c 0
 67 432 188 447 215 449 c 0
 225 450 262 449 275 447 c 0
 393 429 402 362 402 341 c 0
 402 309 377 284 346 284 c 0
 299 284 290 328 290 340 c 0
 290 366 305 378 312 385 c 1
 306 391 258 396 242 396 c 0
 191 396 178 359 179 335 c 0
 180 317 195 268 275 263 c 0
 289 262 293 261 298 255 c 0
 304 250 305 245 305 236 c 0
 305 194 266 221 204 195 c 0
 189 189 145 169 145 122 c 0
EndSplineSet
EndChar

StartChar: phi
Encoding: 966 966 102
Width: 672
Flags: MW
HStem: -250 48<224 232 224 279 232 279 392 439 439 447>
VStem: 34 113<240 245.5> 524 114<240 257 156.5 309.5>
LayerCount: 2
Fore
SplineSet
439 -250 m 2
 427 -247 245 -247 232 -250 c 2
 224 -250 l 1
 224 -202 l 1
 279 -202 l 1
 279 -2 l 1
 265 0 l 2
 158 16 34 89 34 224 c 0
 34 267 42 304 61 342 c 0
 105 428 174 446 202 449 c 0
 232 453 240 443 240 432 c 0
 240 428 234 416 228 406 c 0
 224 401 217 398 210 398 c 0
 173 398 155 358 148 295 c 0
 147 283 147 270 147 240 c 0
 146 195 147 191 155 169 c 0
 169 126 202 90 246 69 c 0
 255 64 276 56 279 56 c 1
 279 135 l 2
 279 226 280 273 282 291 c 0
 287 326 298 355 314 380 c 0
 388 479 515 465 580 387 c 0
 613 349 638 290 638 224 c 0
 638 89 514 19 406 0 c 2
 392 -2 l 1
 392 -202 l 1
 447 -202 l 1
 447 -250 l 1
 439 -250 l 2
524 240 m 0
 524 379 489 404 446 397 c 0
 421 391 400 359 394 318 c 0
 392 309 392 290 392 182 c 2
 392 56 l 1
 395 56 416 64 426 69 c 0
 469 90 502 126 516 169 c 0
 524 191 525 195 524 240 c 0
EndSplineSet
EndChar

StartChar: gamma
Encoding: 947 947 103
Width: 605
Flags: MW
HStem: -250 48<191 198 191 246 198 246 358 406 406 413> 396 48<14 80 14 90 425 431 431 467 524 524 524 584 584 590>
LayerCount: 2
Fore
SplineSet
406 -250 m 2
 393 -247 210 -247 198 -250 c 2
 191 -250 l 1
 191 -202 l 1
 246 -202 l 1
 246 -3 l 1
 80 396 l 1
 14 396 l 1
 14 444 l 1
 90 444 l 2
 173 444 170 444 176 438 c 0
 178 437 200 385 255 253 c 2
 331 70 l 1
 467 396 l 1
 425 396 l 1
 425 444 l 1
 431 444 l 2
 440 441 574 441 584 444 c 2
 590 444 l 1
 590 396 l 1
 524 396 l 1
 358 -3 l 1
 358 -202 l 1
 413 -202 l 1
 413 -250 l 1
 406 -250 l 2
EndSplineSet
EndChar

StartChar: eta
Encoding: 951 951 104
Width: 605
Flags: W
HStem: -250 48<392 400 392 448 400 448 560 608 608 615> 0 48<23 30 23 78 30 78 190 238 238 246> 366 84<309.5 334> 396 48<23 78 23 99>
VStem: 448 112<-202 26 26 26>
LayerCount: 2
Fore
SplineSet
190 388 m 1xd8
 228 426 283 450 336 450 c 0
 456 450 534 367 554 288 c 0
 560 263 559 281 560 29 c 2
 560 -202 l 1
 615 -202 l 1
 615 -250 l 1
 608 -250 l 2
 595 -247 412 -247 400 -250 c 2
 392 -250 l 1
 392 -202 l 1
 448 -202 l 1
 448 26 l 2
 447 274 448 258 442 278 c 0
 431 319 396 369 334 366 c 0xe8
 273 366 218 346 190 292 c 1
 190 48 l 1
 246 48 l 1
 246 0 l 1
 238 0 l 2
 225 3 43 3 30 0 c 2
 23 0 l 1
 23 48 l 1
 78 48 l 1
 78 396 l 1
 23 396 l 1
 23 444 l 1
 99 444 l 2
 171 444 176 444 180 442 c 0
 193 436 190 425 190 409 c 2
 190 388 l 1xd8
EndSplineSet
EndChar

StartChar: iota
Encoding: 953 953 105
Width: 302
Flags: MW
HStem: 0 48<39 47 39 94 47 94 207 254 254 262> 396 48<39 94 39 116>
LayerCount: 2
Fore
SplineSet
254 0 m 2
 242 3 60 3 47 0 c 2
 39 0 l 1
 39 48 l 1
 94 48 l 1
 94 396 l 1
 39 396 l 1
 39 444 l 1
 116 444 l 2
 196 444 195 449 207 431 c 1
 207 48 l 1
 262 48 l 1
 262 0 l 1
 254 0 l 2
EndSplineSet
EndChar

StartChar: theta
Encoding: 952 952 106
Width: 538
Flags: MW
HStem: -6 54<219 274> 311 72<146 391 146 391>
LayerCount: 2
Fore
SplineSet
268 -6 m 0
 123 -6 34 149 34 347 c 0
 34 493 85 638 195 685 c 0
 234 703 282 701 302 697 c 0
 344 690 380 669 412 635 c 0
 513 524 535 282 455 123 c 0
 418 51 365 7 299 -4 c 0
 292 -5 280 -6 268 -6 c 0
391 399 m 2
 391 500 381 619 296 643 c 1
 214 658 146 619 146 399 c 2
 146 383 l 1
 391 383 l 1
 391 399 l 2
146 295 m 2
 146 156 169 48 269 48 c 0
 367 48 391 154 391 295 c 2
 391 311 l 1
 146 311 l 1
 146 295 l 2
EndSplineSet
EndChar

StartChar: kappa
Encoding: 954 954 107
Width: 585
Flags: MW
HStem: 0 48<21 28 21 76 28 76 188 236 236 244 354 361 361 362 492 556 556 563> 396 48<21 76 21 97 406 408 483 483 483 551 551 556>
VStem: 76 112<48 140 318 360>
LayerCount: 2
Fore
SplineSet
236 0 m 2
 223 3 41 3 28 0 c 2
 21 0 l 1
 21 48 l 1
 76 48 l 1
 76 396 l 1
 21 396 l 1
 21 444 l 1
 97 444 l 2
 175 444 179 446 186 435 c 0
 187 433 188 402 188 318 c 2
 189 203 l 1
 299 299 l 2
 382 372 409 396 407 396 c 0
 405 396 405 397 405 420 c 2
 405 444 l 1
 410 444 l 2
 416 441 540 440 551 444 c 1
 556 444 l 1
 556 396 l 1
 483 396 l 1
 414 336 l 2
 376 303 345 276 345 275 c 2
 492 48 l 1
 563 48 l 1
 563 0 l 1
 556 0 l 2
 543 3 371 3 361 0 c 2
 354 0 l 1
 354 48 l 1
 362 48 l 1
 370 49 l 1
 261 203 l 1
 188 140 l 1
 188 48 l 1
 244 48 l 1
 244 0 l 1
 236 0 l 2
EndSplineSet
EndChar

StartChar: lambda
Encoding: 955 955 108
Width: 571
Flags: MW
HStem: 0 48<21 26 21 80 167 172 167 167 333 341 341 355 524 549 549 556> 646 48<115 180 115 269>
LayerCount: 2
Fore
SplineSet
167 0 m 2
 160 2 86 3 64 2 c 0
 46 2 29 1 26 0 c 2
 21 0 l 1
 21 48 l 1
 80 48 l 1
 241 460 l 1
 180 646 l 1
 115 646 l 1
 115 694 l 1
 269 694 l 2
 271 693 276 691 280 685 c 0
 281 683 329 538 387 365 c 2
 492 49 l 1
 524 48 l 1
 556 48 l 1
 556 0 l 1
 549 0 l 2
 537 3 354 3 341 0 c 2
 333 0 l 1
 333 48 l 1
 355 48 l 1
 378 49 l 1
 267 380 l 2
 266 380 138 53 137 50 c 0
 137 48 138 48 154 48 c 2
 172 48 l 1
 172 0 l 1
 167 0 l 2
EndSplineSet
EndChar

StartChar: uni03BC
Encoding: 956 956 109
Width: 672
Flags: W
HStem: -250 48<14 21 14 69 21 69 181 229 229 237> -6 54<292 327> -5 95<581.5 589 581.5 598> 396 48<14 69 14 90 400 456>
VStem: 69 112<-202 45 293 344.5> 601 54
LayerCount: 2
Fore
SplineSet
229 -250 m 2xdc
 216 -247 33 -247 21 -250 c 2
 14 -250 l 1
 14 -202 l 1
 69 -202 l 1
 69 396 l 1
 14 396 l 1
 14 444 l 1
 90 444 l 2
 168 444 172 446 179 435 c 0
 180 433 181 396 181 293 c 0
 182 141 181 150 187 132 c 0
 194 110 230 48 319 48 c 0xdc
 407 48 442 110 450 132 c 0
 456 150 455 143 456 275 c 2
 456 396 l 1
 400 396 l 1
 400 444 l 1
 554 444 l 2
 561 441 564 436 568 431 c 1
 568 277 l 2
 569 117 569 118 573 103 c 0
 576 94 579 90 584 90 c 0
 594 90 599 104 601 127 c 0
 602 148 606 152 628 152 c 0
 648 152 655 147 655 129 c 0
 655 100 640 -5 556 -5 c 0xbc
 543 -5 512 -4 489 28 c 0
 485 33 474 53 472 59 c 0
 469 62 451 34 410 14 c 0
 360 -7 336 -6 318 -6 c 0
 266 -6 223 11 190 38 c 2
 181 45 l 1
 181 -202 l 1
 237 -202 l 1
 237 -250 l 1
 229 -250 l 2xdc
EndSplineSet
EndChar

StartChar: nu
Encoding: 957 957 110
Width: 571
Flags: MW
HStem: -6 21G<283 287> 396 48<14 82 14 90 391 397 397 411 488 550 550 556 488 488>
LayerCount: 2
Fore
SplineSet
397 444 m 2
 406 441 540 441 550 444 c 2
 556 444 l 1
 556 396 l 1
 488 396 l 1
 394 199 l 2
 342 90 299 1 298 0 c 0
 296 -3 289 -6 285 -6 c 0
 281 -6 274 -3 272 0 c 0
 271 1 228 90 176 199 c 2
 82 396 l 1
 14 396 l 1
 14 444 l 1
 90 444 l 2
 177 444 163 445 177 438 c 0
 178 437 209 372 246 294 c 2
 314 153 l 1
 430 394 l 2
 430 396 429 396 411 396 c 2
 391 396 l 1
 391 444 l 1
 397 444 l 2
EndSplineSet
EndChar

StartChar: omicron
Encoding: 959 959 111
Width: 571
Flags: MW
HStem: -6 55<247 291.5>
VStem: 51 111<199.5 232.5> 407 112<173.5 270.5>
LayerCount: 2
Fore
SplineSet
57 276 m 0
 78 362 164 464 320 448 c 1
 411 434 519 358 519 222 c 0
 519 87 413 11 319 -4 c 0
 311 -5 298 -6 285 -6 c 0
 167 -6 106 70 88 99 c 0
 63 136 51 177 51 222 c 0
 51 243 52 256 57 276 c 0
285 49 m 0
 360 49 407 125 407 222 c 0
 407 319 360 404 269 395 c 0
 218 389 162 326 162 222 c 0
 162 126 209 49 285 49 c 0
EndSplineSet
EndChar

StartChar: pi
Encoding: 960 960 112
Width: 605
Flags: MW
HStem: 0 48<14 21 14 69 21 69 181 229 229 237 367 375 375 423 535 583 583 590> 396 48<14 69 14 590 535 535 535 590>
LayerCount: 2
Fore
SplineSet
229 0 m 2
 216 3 34 3 21 0 c 2
 14 0 l 1
 14 48 l 1
 69 48 l 1
 69 396 l 1
 14 396 l 1
 14 444 l 1
 590 444 l 1
 590 396 l 1
 535 396 l 1
 535 48 l 1
 590 48 l 1
 590 0 l 1
 583 0 l 2
 570 3 387 3 375 0 c 2
 367 0 l 1
 367 48 l 1
 423 48 l 1
 423 390 l 1
 181 390 l 1
 181 48 l 1
 237 48 l 1
 237 0 l 1
 229 0 l 2
EndSplineSet
EndChar

StartChar: chi
Encoding: 967 967 113
Width: 605
Flags: MW
HStem: -250 48<14 20 14 85 20 85 146 173 173 179 367 375 375 385 555 583 583 590> 396 48<14 83 14 90 425 431 431 458 519 519 519 584 584 590>
VStem: 255 94<75 119>
LayerCount: 2
Fore
SplineSet
173 -250 m 2
 164 -247 30 -247 20 -250 c 2
 14 -250 l 1
 14 -202 l 1
 85 -202 l 1
 171 -65 l 2
 250 62 256 73 255 75 c 0
 255 76 216 149 169 237 c 2
 83 396 l 1
 14 396 l 1
 14 444 l 1
 90 444 l 2
 177 444 163 445 177 438 c 0
 178 437 210 376 249 304 c 2
 319 173 l 1
 389 284 l 2
 427 345 458 395 458 396 c 1
 425 396 l 1
 425 444 l 1
 431 444 l 2
 440 441 574 441 584 444 c 2
 590 444 l 1
 590 396 l 1
 519 396 l 1
 433 259 l 2
 354 132 348 121 349 119 c 0
 349 118 388 45 435 -42 c 2
 521 -201 l 1
 555 -202 l 1
 590 -202 l 1
 590 -250 l 1
 583 -250 l 2
 570 -247 387 -247 375 -250 c 2
 367 -250 l 1
 367 -202 l 1
 385 -202 l 1
 404 -201 l 1
 285 21 l 1
 215 -90 l 2
 177 -151 146 -201 146 -202 c 1
 179 -202 l 1
 179 -250 l 1
 173 -250 l 2
EndSplineSet
EndChar

StartChar: rho
Encoding: 961 961 114
Width: 571
Flags: MW
HStem: -250 48<12 19 12 67 19 67 179 227 227 234>
LayerCount: 2
Fore
SplineSet
227 -250 m 2
 214 -247 31 -247 19 -250 c 2
 12 -250 l 1
 12 -202 l 1
 67 -202 l 1
 67 16 l 2
 67 258 63 268 92 323 c 0
 145 435 266 452 307 449 c 0
 398 449 518 384 535 249 c 1
 548 104 438 -5 304 -5 c 0
 277 -6 231 -3 179 55 c 1
 179 -202 l 1
 234 -202 l 1
 234 -250 l 1
 227 -250 l 2
180 222 m 0
 180 118 235 44 307 48 c 0
 357 52 408 97 422 184 c 0
 423 192 424 207 424 222 c 0
 424 318 377 404 285 395 c 0
 233 386 180 326 180 222 c 0
EndSplineSet
EndChar

StartChar: sigma
Encoding: 963 963 115
Width: 638
Flags: MW
HStem: -5 54<248 297.5> 429 20G<278.5 344.5>
VStem: 50 112<214.5 287.5 169.5 288> 408 112<172.5 232.5>
LayerCount: 2
Fore
SplineSet
490 336 m 1
 490 326 520 301 520 218 c 0
 520 127 454 28 343 1 c 0
 321 -4 310 -5 285 -5 c 0
 145 -5 63 102 51 195 c 0
 50 201 50 210 50 219 c 0
 50 357 152 432 251 448 c 0
 260 449 268 449 289 449 c 0
 400 449 484 417 580 447 c 0
 585 449 590 451 592 451 c 0
 602 454 622 444 622 417 c 0
 622 356 548 329 500 335 c 0
 495 335 490 336 490 336 c 1
287 49 m 0
 358 49 408 123 408 219 c 0
 408 246 403 312 363 359 c 0
 340 386 305 399 271 395 c 0
 244 390 162 359 162 216 c 0
 162 123 209 49 287 49 c 0
EndSplineSet
EndChar

StartChar: tau
Encoding: 964 964 116
Width: 487
Flags: MW
HStem: -6 21G<244 289.5> 424 20G<164.5 328>
LayerCount: 2
Fore
SplineSet
396 166 m 0
 406 166 423 161 423 137 c 0
 423 80 387 12 310 -4 c 0
 304 -5 294 -6 285 -6 c 0
 203 -6 159 59 149 110 c 0
 147 119 147 122 146 226 c 2
 146 332 l 1
 106 332 l 2
 77 332 28 327 19 373 c 0
 18 376 18 382 18 388 c 0
 18 421 41 440 58 442 c 0
 63 444 95 444 234 444 c 0
 422 444 411 444 424 437 c 0
 451 425 452 396 452 388 c 0
 452 378 449 350 424 339 c 0
 412 332 412 332 331 332 c 2
 258 332 l 1
 258 233 l 2
 258 154 250 98 287 74 c 0
 296 68 305 65 314 65 c 0
 359 65 368 117 369 133 c 0
 370 147 373 166 396 166 c 0
EndSplineSet
EndChar

StartChar: upsilon
Encoding: 965 965 117
Width: 605
Flags: MW
HStem: -6 54<277 327> 396 48<14 69 14 90 367 375 375 423 535 583 583 590 535 535>
VStem: 69 112<319 348.5 319 396 319 396>
LayerCount: 2
Fore
SplineSet
375 444 m 2
 388 441 570 441 583 444 c 2
 590 444 l 1
 590 396 l 1
 535 396 l 1
 535 312 l 2
 535 241 554 135 440 40 c 0
 398 10 352 -6 302 -6 c 0
 252 -6 206 10 164 40 c 1
 108 87 76 142 70 214 c 0
 69 222 69 263 69 312 c 2
 69 396 l 1
 14 396 l 1
 14 444 l 1
 90 444 l 2
 162 444 167 444 171 442 c 0
 176 440 180 435 180 431 c 0
 181 429 181 378 181 319 c 0
 182 202 182 202 187 175 c 0
 198 117 233 48 302 48 c 0
 371 48 406 117 417 175 c 0
 422 202 422 203 423 303 c 2
 423 396 l 1
 367 396 l 1
 367 444 l 1
 375 444 l 2
EndSplineSet
EndChar

StartChar: omega
Encoding: 969 969 119
Width: 806
Flags: MW
HStem: 396 53<532 535>
VStem: 34 112<155 244.5 155 249.5> 403 55<148 159 159 159> 659 112<157 237>
LayerCount: 2
Fore
SplineSet
771 221 m 0
 771 93 690 -10 579 -6 c 0
 484 -1 408 65 403 148 c 1
 403 159 l 1
 402 148 l 2
 397 64 321 -1 226 -6 c 0
 122 -9 34 85 34 221 c 0
 34 278 52 326 90 369 c 0
 140 425 212 450 271 450 c 0
 282 449 301 448 301 423 c 0
 301 412 296 396 270 396 c 0
 161 387 146 263 146 226 c 0
 146 84 202 49 246 49 c 0
 288 49 330 73 345 129 c 2
 347 139 l 1
 347 267 l 2
 347 311 347 314 353 325 c 0
 363 344 387 356 410 352 c 0
 434 349 451 335 456 313 c 0
 458 308 458 301 458 267 c 2
 458 139 l 1
 460 129 l 1
 476 73 519 49 559 49 c 0
 603 49 659 84 659 226 c 0
 659 248 656 297 626 341 c 0
 604 375 573 393 535 396 c 0
 509 396 504 411 504 423 c 0
 504 432 509 442 519 448 c 0
 522 449 525 449 539 449 c 0
 604 449 671 418 715 369 c 0
 753 326 771 278 771 221 c 0
EndSplineSet
EndChar

StartChar: xi
Encoding: 958 958 120
Width: 571
Flags: MW
HStem: 640 53<120 138 120 157>
VStem: 128 84<562.5 571 530.5 589> 464 72<-87 -60>
LayerCount: 2
Fore
SplineSet
280 -235 m 0
 275 -235 259 -230 259 -209 c 0
 259 -186 279 -182 298 -178 c 0
 430 -151 450 -131 465 -101 c 1
 464 -87 l 2
 464 -33 429 -9 413 -3 c 2
 406 -1 l 1
 333 0 l 2
 260 1 256 1 236 5 c 0
 117 25 47 119 35 210 c 0
 34 222 34 251 35 262 c 0
 47 339 109 393 219 423 c 2
 230 426 l 1
 178 449 140 491 130 543 c 0
 129 549 128 558 128 567 c 0
 128 611 146 628 157 640 c 1
 138 640 l 2
 121 640 119 641 115 643 c 0
 107 647 101 657 101 667 c 0
 101 679 109 690 120 693 c 0
 121 693 187 694 265 694 c 2
 408 694 l 2
 413 691 426 684 426 667 c 0
 426 657 420 647 412 643 c 0
 391 633 234 659 213 585 c 0
 212 581 212 574 212 568 c 0
 212 493 284 451 390 444 c 0
 410 443 413 442 419 435 c 0
 424 430 426 423 426 417 c 0
 426 407 421 398 412 393 c 0
 408 391 405 391 384 390 c 0
 176 383 128 299 128 238 c 0
 128 187 164 135 236 118 c 0
 285 107 393 117 431 106 c 0
 489 87 536 27 536 -61 c 0
 536 -152 449 -191 378 -212 c 0
 350 -220 288 -235 280 -235 c 0
EndSplineSet
EndChar

StartChar: psi
Encoding: 968 968 121
Width: 706
Flags: MW
HStem: -250 48<241 249 241 296 249 296 409 456 456 464> 396 48<14 69 14 90 241 249 249 296 409 409 409 456 456 464 636 636 636 691>
VStem: 69 112<337 385 301.5 396 301.5 396> 524 112<310 337 337 391.5>
LayerCount: 2
Fore
SplineSet
456 -250 m 2
 444 -247 262 -247 249 -250 c 2
 241 -250 l 1
 241 -202 l 1
 296 -202 l 1
 296 0 l 1
 281 2 251 12 229 23 c 0
 144 65 86 149 72 240 c 0
 70 258 69 278 69 337 c 2
 69 396 l 1
 14 396 l 1
 14 444 l 1
 90 444 l 2
 162 444 167 444 171 442 c 0
 186 435 181 414 181 356 c 0
 181 247 183 140 270 75 c 0
 277 70 294 60 295 60 c 0
 296 60 296 136 296 228 c 2
 296 396 l 1
 241 396 l 1
 241 444 l 1
 249 444 l 2
 261 441 443 441 456 444 c 2
 464 444 l 1
 464 396 l 1
 409 396 l 1
 409 228 l 2
 409 136 409 60 410 60 c 0
 411 60 428 70 435 75 c 0
 480 108 505 158 516 215 c 0
 523 246 524 264 524 356 c 0
 524 427 520 436 535 442 c 0
 538 444 543 444 615 444 c 2
 691 444 l 1
 691 396 l 1
 636 396 l 1
 636 337 l 2
 636 278 635 258 633 240 c 0
 618 146 561 67 476 23 c 0
 438 4 421 3 409 0 c 1
 409 -202 l 1
 464 -202 l 1
 464 -250 l 1
 456 -250 l 2
EndSplineSet
EndChar

StartChar: zeta
Encoding: 950 950 122
Width: 571
Flags: MW
HStem: 640 54<146 536 146 450 146 536>
VStem: 34 112<159 169> 464 72<-75 -62>
LayerCount: 2
Fore
SplineSet
146 640 m 1
 146 694 l 1
 536 694 l 1
 536 640 l 1
 516 624 l 1
 374 517 282 429 234 371 c 0
 205 335 146 252 146 173 c 0
 146 125 170 121 188 113 c 1
 291 112 l 2
 403 111 397 112 420 105 c 0
 476 90 520 48 533 -3 c 0
 535 -11 536 -25 536 -37 c 0
 536 -127 445 -166 374 -187 c 0
 347 -195 288 -208 280 -208 c 0
 267 -208 259 -195 259 -182 c 0
 259 -156 284 -154 311 -149 c 0
 337 -144 469 -121 464 -75 c 0
 464 -49 446 -17 398 -3 c 2
 389 -1 l 1
 284 0 l 2
 179 1 178 1 168 3 c 0
 80 22 37 93 34 159 c 0
 34 179 35 187 39 205 c 0
 64 305 179 427 429 624 c 1
 450 640 l 1
 146 640 l 1
EndSplineSet
EndChar

StartChar: guillemotleft
Encoding: 171 171 123
Width: 632
Flags: MW
HStem: 339 161<234.5 269.5 234.5 270.5 497.5 532.5> 674 20G<275 281 538 544>
VStem: 150 178<427.5 443.5 395.5 509> 413 177<427.5 443.5 395 509>
LayerCount: 2
Fore
SplineSet
246 339 m 0
 188 339 150 390 150 465 c 0
 150 553 189 632 259 684 c 0
 274 694 273 694 277 694 c 0
 285 694 301 681 297 668 c 0
 287 652 258 649 215 578 c 0
 195 542 189 500 186 475 c 1
 206 492 222 500 247 500 c 0
 292 500 328 468 328 419 c 0
 328 372 295 339 246 339 c 0
509 339 m 0
 451 339 413 390 413 465 c 0
 413 553 452 632 522 684 c 0
 537 694 536 694 540 694 c 0
 548 694 564 681 560 668 c 0
 550 652 521 649 478 578 c 0
 458 542 452 500 449 475 c 1
 469 492 485 500 510 500 c 0
 555 500 590 468 590 419 c 0
 590 371 558 339 509 339 c 0
EndSplineSet
EndChar

StartChar: uni037A
Encoding: 890 890 124
Width: 134
Flags: MW
VStem: 173 38<-151 -112.5>
LayerCount: 2
Fore
SplineSet
182 -97 m 0
 187 -97 211 -105 211 -151 c 0
 210 -168 207 -180 199 -196 c 0
 181 -230 144 -252 107 -250 c 0
 65 -247 27 -217 14 -156 c 0
 12 -148 12 -143 11 -115 c 0
 11 -76 8 -45 58 -34 c 0
 61 -33 79 -34 84 -35 c 0
 128 -50 123 -93 123 -110 c 0
 123 -156 127 -178 148 -178 c 0
 170 -178 170 -152 173 -122 c 0
 173 -103 174 -97 182 -97 c 0
EndSplineSet
EndChar

StartChar: guillemotright
Encoding: 187 187 125
Width: 632
Flags: MW
VStem: 40 178<588.5 620 522.5 621> 303 178<588.5 620 522.5 620.5>
LayerCount: 2
Fore
SplineSet
121 532 m 0
 76 532 40 564 40 613 c 0
 40 629 45 683 108 693 c 0
 146 699 218 673 218 567 c 0
 218 478 179 400 109 348 c 0
 100 341 95 338 90 338 c 0
 83 338 67 350 71 364 c 1
 81 380 110 383 153 454 c 0
 173 490 179 532 182 557 c 1
 162 540 146 532 121 532 c 0
384 532 m 0
 339 532 303 564 303 613 c 0
 303 628 308 683 371 693 c 0
 409 699 481 673 481 567 c 0
 481 478 442 400 372 348 c 0
 363 341 358 338 353 338 c 0
 346 338 330 350 334 364 c 1
 344 380 373 383 416 454 c 0
 436 490 442 532 445 557 c 1
 425 540 409 532 384 532 c 0
EndSplineSet
EndChar

StartChar: uni1FC0
Encoding: 8128 8128 126
Width: 403
Flags: MW
VStem: 1 73<551.5 560 551 576.5> 328 74<621 628.5 619 630>
LayerCount: 2
Fore
SplineSet
37 542 m 0
 1 542 1 543 1 560 c 0
 1 593 29 622 72 633 c 0
 113 641 160 639 177 637 c 0
 247 623 253 576 287 579 c 0
 305 580 325 597 328 621 c 0
 328 639 334 639 365 639 c 0
 402 639 402 638 402 619 c 0
 399 586 372 559 330 548 c 0
 309 543 306 543 271 543 c 0
 206 543 190 550 154 581 c 0
 135 598 127 603 115 602 c 0
 97 601 77 584 74 560 c 0
 74 542 68 542 37 542 c 0
EndSplineSet
EndChar

StartChar: emdash
Encoding: 8212 8212 127
Width: 1210
Flags: MW
HStem: 256 37<0 1209 0 1209>
LayerCount: 2
Fore
SplineSet
0 256 m 1
 0 293 l 1
 1209 293 l 1
 1209 256 l 1
 0 256 l 1
EndSplineSet
EndChar

StartChar: uni1F70
Encoding: 8048 8048 128
Width: 605
Flags: MW
HStem: -6 54<227.5 291>
VStem: 50 112<216.5 271.5 187.5 290> 532 38<55 130>
LayerCount: 2
Fore
SplineSet
191 656 m 0
 191 687 225 717 267 712 c 0
 288 708 303 693 308 671 c 2
 308 671 318 550 321 498 c 1
 310 494 l 2
 302 491 299 490 299 491 c 2
 299 491 203 623 197 632 c 0
 193 640 191 648 191 656 c 0
395 37 m 1
 359 7 315 -6 267 -6 c 0
 143 -6 65 95 52 194 c 0
 51 200 50 211 50 222 c 0
 50 358 153 438 247 449 c 0
 304 454 361 438 397 405 c 0
 402 400 406 394 417 380 c 1
 487 450 l 1
 487 270 l 1
 488 91 l 2
 491 82 493 71 501 68 c 0
 508 64 519 66 524 73 c 0
 529 79 532 93 532 112 c 0
 532 148 557 123 563 112 c 0
 568 104 570 93 570 82 c 0
 570 28 517 -9 464 -6 c 0
 423 -3 410 18 395 37 c 1
162 222 m 0
 162 153 184 48 271 48 c 0
 315 48 369 64 374 104 c 0
 375 114 375 330 374 340 c 0
 367 396 275 398 253 395 c 0
 200 384 162 321 162 222 c 0
EndSplineSet
EndChar

StartChar: uni1F01
Encoding: 7937 7937 129
Width: 605
Flags: MW
HStem: -6 54<227.5 291> 499 28<331 335.5> 674 20G<281 304>
VStem: 50 112<216.5 271.5 187.5 290> 196 29<575.5 603.5 575.5 636> 532 38<55 130>
LayerCount: 2
Fore
SplineSet
329 499 m 0
 253 502 196 538 196 598 c 0
 196 674 270 694 292 694 c 0
 316 694 353 680 353 633 c 0
 353 595 327 572 293 572 c 0
 256 572 236 598 231 628 c 1
 228 616 225 610 225 597 c 0
 225 554 269 530 331 527 c 0
 363 527 354 505 347 501 c 0
 343 499 342 499 329 499 c 0
395 37 m 1
 359 7 315 -6 267 -6 c 0
 143 -6 65 95 52 194 c 0
 51 200 50 211 50 222 c 0
 50 358 153 438 247 449 c 0
 304 454 361 438 397 405 c 0
 402 400 406 394 417 380 c 1
 487 450 l 1
 487 270 l 1
 488 91 l 2
 491 82 493 71 501 68 c 0
 508 64 519 66 524 73 c 0
 529 79 532 93 532 112 c 0
 532 148 557 123 563 112 c 0
 568 104 570 93 570 82 c 0
 570 28 517 -9 464 -6 c 0
 423 -3 410 18 395 37 c 1
162 222 m 0
 162 153 184 48 271 48 c 0
 315 48 369 64 374 104 c 0
 375 114 375 330 374 340 c 0
 367 396 275 398 253 395 c 0
 200 384 162 321 162 222 c 0
EndSplineSet
EndChar

StartChar: uni1F00
Encoding: 7936 7936 130
Width: 605
Flags: MW
HStem: -6 54<227.5 291> 499 28<247.5 255 247.5 279> 674 20G<282 303.5>
VStem: 50 112<216.5 271.5 187.5 290> 361 29 532 38<55 130>
LayerCount: 2
Fore
SplineSet
233 633 m 0
 233 682 271 694 293 694 c 0
 314 694 384 680 390 602 c 0
 393 525 305 499 253 499 c 0
 232 499 230 512 233 519 c 0
 236 525 240 527 255 527 c 0
 316 530 361 553 361 597 c 0
 361 609 356 624 355 628 c 1
 350 614 343 572 293 572 c 0
 259 572 233 595 233 633 c 0
395 37 m 1
 359 7 315 -6 267 -6 c 0
 143 -6 65 95 52 194 c 0
 51 200 50 211 50 222 c 0
 50 358 153 438 247 449 c 0
 304 454 361 438 397 405 c 0
 402 400 406 394 417 380 c 1
 487 450 l 1
 487 270 l 1
 488 91 l 2
 491 82 493 71 501 68 c 0
 508 64 519 66 524 73 c 0
 529 79 532 93 532 112 c 0
 532 148 557 123 563 112 c 0
 568 104 570 93 570 82 c 0
 570 28 517 -9 464 -6 c 0
 423 -3 410 18 395 37 c 1
162 222 m 0
 162 153 184 48 271 48 c 0
 315 48 369 64 374 104 c 0
 375 114 375 330 374 340 c 0
 367 396 275 398 253 395 c 0
 200 384 162 321 162 222 c 0
EndSplineSet
EndChar

StartChar: uni1F03
Encoding: 7939 7939 131
Width: 605
Flags: W
HStem: -6 54<227.5 291> 499 28<242 246.5> 674 20G<192 215>
VStem: 50 112<216.5 271.5 187.5 290> 532 38<55 130>
LayerCount: 2
Fore
SplineSet
281 656 m 0
 281 687 315 717 357 712 c 0
 378 708 393 693 398 671 c 2
 398 671 408 550 411 498 c 1
 400 494 l 2
 392 491 389 490 389 491 c 2
 389 491 293 623 287 632 c 0
 283 640 281 648 281 656 c 0
240 499 m 0
 164 502 107 538 107 598 c 0
 107 674 181 694 203 694 c 0
 227 694 264 680 264 633 c 0
 264 595 238 572 204 572 c 0
 167 572 147 598 142 628 c 1
 139 616 136 610 136 597 c 0
 136 554 180 530 242 527 c 0
 274 527 265 505 258 501 c 0
 254 499 253 499 240 499 c 0
395 37 m 1
 359 7 315 -6 267 -6 c 0
 143 -6 65 95 52 194 c 0
 51 200 50 211 50 222 c 0
 50 358 153 438 247 449 c 0
 304 454 361 438 397 405 c 0
 402 400 406 394 417 380 c 1
 487 450 l 1
 487 270 l 1
 488 91 l 2
 491 82 493 71 501 68 c 0
 508 64 519 66 524 73 c 0
 529 79 532 93 532 112 c 0
 532 148 557 123 563 112 c 0
 568 104 570 93 570 82 c 0
 570 28 517 -9 464 -6 c 0
 423 -3 410 18 395 37 c 1
162 222 m 0
 162 153 184 48 271 48 c 0
 315 48 369 64 374 104 c 0
 375 114 375 330 374 340 c 0
 367 396 275 398 253 395 c 0
 200 384 162 321 162 222 c 0
EndSplineSet
EndChar

StartChar: uni1FB2
Encoding: 8114 8114 132
Width: 605
Flags: MW
HStem: -6 54<227.5 291>
VStem: 50 112<216.5 271.5 187.5 290> 481 38<-151 -112.5> 532 38<55 130>
LayerCount: 2
Fore
SplineSet
191 656 m 0
 191 687 225 717 267 712 c 0
 288 708 303 693 308 671 c 2
 308 671 318 550 321 498 c 1
 310 494 l 2
 302 491 299 490 299 491 c 2
 299 491 203 623 197 632 c 0
 193 640 191 648 191 656 c 0
395 37 m 1
 359 7 315 -6 267 -6 c 0
 143 -6 65 95 52 194 c 0
 51 200 50 211 50 222 c 0
 50 358 153 438 247 449 c 0
 304 454 361 438 397 405 c 0
 402 400 406 394 417 380 c 1
 487 450 l 1
 487 270 l 1
 488 91 l 2
 491 82 493 71 501 68 c 0
 508 64 519 66 524 73 c 0
 529 79 532 93 532 112 c 0
 532 148 557 123 563 112 c 0
 568 104 570 93 570 82 c 0
 570 28 517 -9 464 -6 c 0
 423 -3 410 18 395 37 c 1
162 222 m 0
 162 153 184 48 271 48 c 0
 315 48 369 64 374 104 c 0
 375 114 375 330 374 340 c 0
 367 396 275 398 253 395 c 0
 200 384 162 321 162 222 c 0
490 -97 m 0
 495 -97 519 -105 519 -151 c 0
 518 -168 515 -180 507 -196 c 0
 489 -230 452 -252 415 -250 c 0
 373 -247 335 -217 322 -156 c 0
 320 -148 320 -143 319 -115 c 0
 319 -76 316 -45 366 -34 c 0
 369 -33 387 -34 392 -35 c 0
 436 -50 431 -93 431 -110 c 0
 431 -156 435 -178 456 -178 c 0
 478 -178 478 -152 481 -122 c 0
 481 -103 482 -97 490 -97 c 0
EndSplineSet
EndChar

StartChar: uni1F81
Encoding: 8065 8065 133
Width: 605
Flags: MW
HStem: -6 54<227.5 291> 499 28<331 335.5> 674 20G<281 304>
VStem: 50 112<216.5 271.5 187.5 290> 196 29<575.5 603.5 575.5 636> 481 38<-151 -112.5> 532 38<55 130>
LayerCount: 2
Fore
SplineSet
329 499 m 0
 253 502 196 538 196 598 c 0
 196 674 270 694 292 694 c 0
 316 694 353 680 353 633 c 0
 353 595 327 572 293 572 c 0
 256 572 236 598 231 628 c 1
 228 616 225 610 225 597 c 0
 225 554 269 530 331 527 c 0
 363 527 354 505 347 501 c 0
 343 499 342 499 329 499 c 0
395 37 m 1
 359 7 315 -6 267 -6 c 0
 143 -6 65 95 52 194 c 0
 51 200 50 211 50 222 c 0
 50 358 153 438 247 449 c 0
 304 454 361 438 397 405 c 0
 402 400 406 394 417 380 c 1
 487 450 l 1
 487 270 l 1
 488 91 l 2
 491 82 493 71 501 68 c 0
 508 64 519 66 524 73 c 0
 529 79 532 93 532 112 c 0
 532 148 557 123 563 112 c 0
 568 104 570 93 570 82 c 0
 570 28 517 -9 464 -6 c 0
 423 -3 410 18 395 37 c 1
162 222 m 0
 162 153 184 48 271 48 c 0
 315 48 369 64 374 104 c 0
 375 114 375 330 374 340 c 0
 367 396 275 398 253 395 c 0
 200 384 162 321 162 222 c 0
490 -97 m 0
 495 -97 519 -105 519 -151 c 0
 518 -168 515 -180 507 -196 c 0
 489 -230 452 -252 415 -250 c 0
 373 -247 335 -217 322 -156 c 0
 320 -148 320 -143 319 -115 c 0
 319 -76 316 -45 366 -34 c 0
 369 -33 387 -34 392 -35 c 0
 436 -50 431 -93 431 -110 c 0
 431 -156 435 -178 456 -178 c 0
 478 -178 478 -152 481 -122 c 0
 481 -103 482 -97 490 -97 c 0
EndSplineSet
EndChar

StartChar: uni1F80
Encoding: 8064 8064 134
Width: 605
Flags: MW
HStem: -6 54<227.5 291> 499 28<247.5 255 247.5 279> 674 20G<282 303.5>
VStem: 50 112<216.5 271.5 187.5 290> 361 29 481 38<-151 -112.5> 532 38<55 130>
LayerCount: 2
Fore
SplineSet
233 633 m 0
 233 682 271 694 293 694 c 0
 314 694 384 680 390 602 c 0
 393 525 305 499 253 499 c 0
 232 499 230 512 233 519 c 0
 236 525 240 527 255 527 c 0
 316 530 361 553 361 597 c 0
 361 609 356 624 355 628 c 1
 350 614 343 572 293 572 c 0
 259 572 233 595 233 633 c 0
395 37 m 1
 359 7 315 -6 267 -6 c 0
 143 -6 65 95 52 194 c 0
 51 200 50 211 50 222 c 0
 50 358 153 438 247 449 c 0
 304 454 361 438 397 405 c 0
 402 400 406 394 417 380 c 1
 487 450 l 1
 487 270 l 1
 488 91 l 2
 491 82 493 71 501 68 c 0
 508 64 519 66 524 73 c 0
 529 79 532 93 532 112 c 0
 532 148 557 123 563 112 c 0
 568 104 570 93 570 82 c 0
 570 28 517 -9 464 -6 c 0
 423 -3 410 18 395 37 c 1
162 222 m 0
 162 153 184 48 271 48 c 0
 315 48 369 64 374 104 c 0
 375 114 375 330 374 340 c 0
 367 396 275 398 253 395 c 0
 200 384 162 321 162 222 c 0
490 -97 m 0
 495 -97 519 -105 519 -151 c 0
 518 -168 515 -180 507 -196 c 0
 489 -230 452 -252 415 -250 c 0
 373 -247 335 -217 322 -156 c 0
 320 -148 320 -143 319 -115 c 0
 319 -76 316 -45 366 -34 c 0
 369 -33 387 -34 392 -35 c 0
 436 -50 431 -93 431 -110 c 0
 431 -156 435 -178 456 -178 c 0
 478 -178 478 -152 481 -122 c 0
 481 -103 482 -97 490 -97 c 0
EndSplineSet
EndChar

StartChar: uni1F83
Encoding: 8067 8067 135
Width: 605
Flags: W
HStem: -6 54<227.5 291> 499 28<242 246.5> 674 20G<192 215>
VStem: 50 112<216.5 271.5 187.5 290> 481 38<-151 -112.5> 532 38<55 130>
LayerCount: 2
Fore
SplineSet
281 656 m 0
 281 687 315 717 357 712 c 0
 378 708 393 693 398 671 c 2
 398 671 408 550 411 498 c 1
 400 494 l 2
 392 491 389 490 389 491 c 2
 389 491 293 623 287 632 c 0
 283 640 281 648 281 656 c 0
240 499 m 0
 164 502 107 538 107 598 c 0
 107 674 181 694 203 694 c 0
 227 694 264 680 264 633 c 0
 264 595 238 572 204 572 c 0
 167 572 147 598 142 628 c 1
 139 616 136 610 136 597 c 0
 136 554 180 530 242 527 c 0
 274 527 265 505 258 501 c 0
 254 499 253 499 240 499 c 0
395 37 m 1
 359 7 315 -6 267 -6 c 0
 143 -6 65 95 52 194 c 0
 51 200 50 211 50 222 c 0
 50 358 153 438 247 449 c 0
 304 454 361 438 397 405 c 0
 402 400 406 394 417 380 c 1
 487 450 l 1
 487 270 l 1
 488 91 l 2
 491 82 493 71 501 68 c 0
 508 64 519 66 524 73 c 0
 529 79 532 93 532 112 c 0
 532 148 557 123 563 112 c 0
 568 104 570 93 570 82 c 0
 570 28 517 -9 464 -6 c 0
 423 -3 410 18 395 37 c 1
162 222 m 0
 162 153 184 48 271 48 c 0
 315 48 369 64 374 104 c 0
 375 114 375 330 374 340 c 0
 367 396 275 398 253 395 c 0
 200 384 162 321 162 222 c 0
490 -97 m 0
 495 -97 519 -105 519 -151 c 0
 518 -168 515 -180 507 -196 c 0
 489 -230 452 -252 415 -250 c 0
 373 -247 335 -217 322 -156 c 0
 320 -148 320 -143 319 -115 c 0
 319 -76 316 -45 366 -34 c 0
 369 -33 387 -34 392 -35 c 0
 436 -50 431 -93 431 -110 c 0
 431 -156 435 -178 456 -178 c 0
 478 -178 478 -152 481 -122 c 0
 481 -103 482 -97 490 -97 c 0
EndSplineSet
EndChar

StartChar: alphatonos
Encoding: 940 940 136
Width: 605
Flags: MW
HStem: -6 54<227.5 291>
VStem: 50 112<216.5 271.5 187.5 290> 532 38<55 130>
LayerCount: 2
Fore
SplineSet
320 712 m 0
 323 712 329 713 333 712 c 0
 359 711 390 694 394 659 c 0
 394 637 393 634 335 557 c 2
 286 490 l 1
 266 498 l 2
 265 499 274 655 276 665 c 0
 280 692 296 708 320 712 c 0
395 37 m 1
 359 7 315 -6 267 -6 c 0
 143 -6 65 95 52 194 c 0
 51 200 50 211 50 222 c 0
 50 358 153 438 247 449 c 0
 304 454 361 438 397 405 c 0
 402 400 406 394 417 380 c 1
 487 450 l 1
 487 270 l 1
 488 91 l 2
 491 82 493 71 501 68 c 0
 508 64 519 66 524 73 c 0
 529 79 532 93 532 112 c 0
 532 148 557 123 563 112 c 0
 568 104 570 93 570 82 c 0
 570 28 517 -9 464 -6 c 0
 423 -3 410 18 395 37 c 1
162 222 m 0
 162 153 184 48 271 48 c 0
 315 48 369 64 374 104 c 0
 375 114 375 330 374 340 c 0
 367 396 275 398 253 395 c 0
 200 384 162 321 162 222 c 0
EndSplineSet
EndChar

StartChar: uni1F05
Encoding: 7941 7941 137
Width: 605
Flags: W
HStem: -6 54<227.5 291> 499 28<272 276.5> 674 20G<222 245>
VStem: 50 112<216.5 271.5 187.5 290> 532 38<55 130>
LayerCount: 2
Fore
SplineSet
360 712 m 0
 363 712 369 713 373 712 c 0
 399 711 430 694 434 659 c 0
 434 637 433 634 375 557 c 2
 326 490 l 1
 306 498 l 2
 305 499 314 655 316 665 c 0
 320 692 336 708 360 712 c 0
270 499 m 0
 194 502 137 538 137 598 c 0
 137 674 211 694 233 694 c 0
 257 694 294 680 294 633 c 0
 294 595 268 572 234 572 c 0
 197 572 177 598 172 628 c 1
 169 616 166 610 166 597 c 0
 166 554 210 530 272 527 c 0
 304 527 295 505 288 501 c 0
 284 499 283 499 270 499 c 0
395 37 m 1
 359 7 315 -6 267 -6 c 0
 143 -6 65 95 52 194 c 0
 51 200 50 211 50 222 c 0
 50 358 153 438 247 449 c 0
 304 454 361 438 397 405 c 0
 402 400 406 394 417 380 c 1
 487 450 l 1
 487 270 l 1
 488 91 l 2
 491 82 493 71 501 68 c 0
 508 64 519 66 524 73 c 0
 529 79 532 93 532 112 c 0
 532 148 557 123 563 112 c 0
 568 104 570 93 570 82 c 0
 570 28 517 -9 464 -6 c 0
 423 -3 410 18 395 37 c 1
162 222 m 0
 162 153 184 48 271 48 c 0
 315 48 369 64 374 104 c 0
 375 114 375 330 374 340 c 0
 367 396 275 398 253 395 c 0
 200 384 162 321 162 222 c 0
EndSplineSet
EndChar

StartChar: uni1F04
Encoding: 7940 7940 138
Width: 605
Flags: MW
HStem: -6 54<227.5 291> 499 28<159.5 167 159.5 191> 674 20G<194 215.5>
VStem: 50 112<216.5 271.5 187.5 290> 273 29 532 38<55 130>
LayerCount: 2
Fore
SplineSet
360 712 m 0
 363 712 369 713 373 712 c 0
 399 711 430 694 434 659 c 0
 434 637 433 634 375 557 c 2
 326 490 l 1
 306 498 l 2
 305 499 314 655 316 665 c 0
 320 692 336 708 360 712 c 0
145 633 m 0
 145 682 183 694 205 694 c 0
 226 694 296 680 302 602 c 0
 305 525 217 499 165 499 c 0
 144 499 142 512 145 519 c 0
 148 525 152 527 167 527 c 0
 228 530 273 553 273 597 c 0
 273 609 268 624 267 628 c 1
 262 614 255 572 205 572 c 0
 171 572 145 595 145 633 c 0
395 37 m 1
 359 7 315 -6 267 -6 c 0
 143 -6 65 95 52 194 c 0
 51 200 50 211 50 222 c 0
 50 358 153 438 247 449 c 0
 304 454 361 438 397 405 c 0
 402 400 406 394 417 380 c 1
 487 450 l 1
 487 270 l 1
 488 91 l 2
 491 82 493 71 501 68 c 0
 508 64 519 66 524 73 c 0
 529 79 532 93 532 112 c 0
 532 148 557 123 563 112 c 0
 568 104 570 93 570 82 c 0
 570 28 517 -9 464 -6 c 0
 423 -3 410 18 395 37 c 1
162 222 m 0
 162 153 184 48 271 48 c 0
 315 48 369 64 374 104 c 0
 375 114 375 330 374 340 c 0
 367 396 275 398 253 395 c 0
 200 384 162 321 162 222 c 0
EndSplineSet
EndChar

StartChar: uni1F02
Encoding: 7938 7938 139
Width: 605
Flags: MW
HStem: -6 54<227.5 291> 499 28<132.5 140 132.5 164> 674 20G<167 188.5>
VStem: 50 112<216.5 271.5 187.5 290> 246 29 532 38<55 130>
LayerCount: 2
Fore
SplineSet
281 656 m 0
 281 687 315 717 357 712 c 0
 378 708 393 693 398 671 c 2
 398 671 408 550 411 498 c 1
 400 494 l 2
 392 491 389 490 389 491 c 2
 389 491 293 623 287 632 c 0
 283 640 281 648 281 656 c 0
118 633 m 0
 118 682 156 694 178 694 c 0
 199 694 269 680 275 602 c 0
 278 525 190 499 138 499 c 0
 117 499 115 512 118 519 c 0
 121 525 125 527 140 527 c 0
 201 530 246 553 246 597 c 0
 246 609 241 624 240 628 c 1
 235 614 228 572 178 572 c 0
 144 572 118 595 118 633 c 0
395 37 m 1
 359 7 315 -6 267 -6 c 0
 143 -6 65 95 52 194 c 0
 51 200 50 211 50 222 c 0
 50 358 153 438 247 449 c 0
 304 454 361 438 397 405 c 0
 402 400 406 394 417 380 c 1
 487 450 l 1
 487 270 l 1
 488 91 l 2
 491 82 493 71 501 68 c 0
 508 64 519 66 524 73 c 0
 529 79 532 93 532 112 c 0
 532 148 557 123 563 112 c 0
 568 104 570 93 570 82 c 0
 570 28 517 -9 464 -6 c 0
 423 -3 410 18 395 37 c 1
162 222 m 0
 162 153 184 48 271 48 c 0
 315 48 369 64 374 104 c 0
 375 114 375 330 374 340 c 0
 367 396 275 398 253 395 c 0
 200 384 162 321 162 222 c 0
EndSplineSet
EndChar

StartChar: uni1FB4
Encoding: 8116 8116 140
Width: 605
Flags: MW
HStem: -6 54<227.5 291>
VStem: 50 112<216.5 271.5 187.5 290> 481 38<-151 -112.5> 532 38<55 130>
LayerCount: 2
Fore
SplineSet
320 712 m 0
 323 712 329 713 333 712 c 0
 359 711 390 694 394 659 c 0
 394 637 393 634 335 557 c 2
 286 490 l 1
 266 498 l 2
 265 499 274 655 276 665 c 0
 280 692 296 708 320 712 c 0
395 37 m 1
 359 7 315 -6 267 -6 c 0
 143 -6 65 95 52 194 c 0
 51 200 50 211 50 222 c 0
 50 358 153 438 247 449 c 0
 304 454 361 438 397 405 c 0
 402 400 406 394 417 380 c 1
 487 450 l 1
 487 270 l 1
 488 91 l 2
 491 82 493 71 501 68 c 0
 508 64 519 66 524 73 c 0
 529 79 532 93 532 112 c 0
 532 148 557 123 563 112 c 0
 568 104 570 93 570 82 c 0
 570 28 517 -9 464 -6 c 0
 423 -3 410 18 395 37 c 1
162 222 m 0
 162 153 184 48 271 48 c 0
 315 48 369 64 374 104 c 0
 375 114 375 330 374 340 c 0
 367 396 275 398 253 395 c 0
 200 384 162 321 162 222 c 0
490 -97 m 0
 495 -97 519 -105 519 -151 c 0
 518 -168 515 -180 507 -196 c 0
 489 -230 452 -252 415 -250 c 0
 373 -247 335 -217 322 -156 c 0
 320 -148 320 -143 319 -115 c 0
 319 -76 316 -45 366 -34 c 0
 369 -33 387 -34 392 -35 c 0
 436 -50 431 -93 431 -110 c 0
 431 -156 435 -178 456 -178 c 0
 478 -178 478 -152 481 -122 c 0
 481 -103 482 -97 490 -97 c 0
EndSplineSet
EndChar

StartChar: uni1F85
Encoding: 8069 8069 141
Width: 605
Flags: W
HStem: -6 54<227.5 291> 499 28<272 276.5> 674 20G<222 245>
VStem: 50 112<216.5 271.5 187.5 290> 481 38<-151 -112.5> 532 38<55 130>
LayerCount: 2
Fore
SplineSet
360 712 m 0
 363 712 369 713 373 712 c 0
 399 711 430 694 434 659 c 0
 434 637 433 634 375 557 c 2
 326 490 l 1
 306 498 l 2
 305 499 314 655 316 665 c 0
 320 692 336 708 360 712 c 0
270 499 m 0
 194 502 137 538 137 598 c 0
 137 674 211 694 233 694 c 0
 257 694 294 680 294 633 c 0
 294 595 268 572 234 572 c 0
 197 572 177 598 172 628 c 1
 169 616 166 610 166 597 c 0
 166 554 210 530 272 527 c 0
 304 527 295 505 288 501 c 0
 284 499 283 499 270 499 c 0
395 37 m 1
 359 7 315 -6 267 -6 c 0
 143 -6 65 95 52 194 c 0
 51 200 50 211 50 222 c 0
 50 358 153 438 247 449 c 0
 304 454 361 438 397 405 c 0
 402 400 406 394 417 380 c 1
 487 450 l 1
 487 270 l 1
 488 91 l 2
 491 82 493 71 501 68 c 0
 508 64 519 66 524 73 c 0
 529 79 532 93 532 112 c 0
 532 148 557 123 563 112 c 0
 568 104 570 93 570 82 c 0
 570 28 517 -9 464 -6 c 0
 423 -3 410 18 395 37 c 1
162 222 m 0
 162 153 184 48 271 48 c 0
 315 48 369 64 374 104 c 0
 375 114 375 330 374 340 c 0
 367 396 275 398 253 395 c 0
 200 384 162 321 162 222 c 0
490 -97 m 0
 495 -97 519 -105 519 -151 c 0
 518 -168 515 -180 507 -196 c 0
 489 -230 452 -252 415 -250 c 0
 373 -247 335 -217 322 -156 c 0
 320 -148 320 -143 319 -115 c 0
 319 -76 316 -45 366 -34 c 0
 369 -33 387 -34 392 -35 c 0
 436 -50 431 -93 431 -110 c 0
 431 -156 435 -178 456 -178 c 0
 478 -178 478 -152 481 -122 c 0
 481 -103 482 -97 490 -97 c 0
EndSplineSet
EndChar

StartChar: uni1F84
Encoding: 8068 8068 142
Width: 605
Flags: MW
HStem: -6 54<227.5 291> 499 28<159.5 167 159.5 191> 674 20G<194 215.5>
VStem: 50 112<216.5 271.5 187.5 290> 273 29 481 38<-151 -112.5> 532 38<55 130>
LayerCount: 2
Fore
SplineSet
360 712 m 0
 363 712 369 713 373 712 c 0
 399 711 430 694 434 659 c 0
 434 637 433 634 375 557 c 2
 326 490 l 1
 306 498 l 2
 305 499 314 655 316 665 c 0
 320 692 336 708 360 712 c 0
145 633 m 0
 145 682 183 694 205 694 c 0
 226 694 296 680 302 602 c 0
 305 525 217 499 165 499 c 0
 144 499 142 512 145 519 c 0
 148 525 152 527 167 527 c 0
 228 530 273 553 273 597 c 0
 273 609 268 624 267 628 c 1
 262 614 255 572 205 572 c 0
 171 572 145 595 145 633 c 0
395 37 m 1
 359 7 315 -6 267 -6 c 0
 143 -6 65 95 52 194 c 0
 51 200 50 211 50 222 c 0
 50 358 153 438 247 449 c 0
 304 454 361 438 397 405 c 0
 402 400 406 394 417 380 c 1
 487 450 l 1
 487 270 l 1
 488 91 l 2
 491 82 493 71 501 68 c 0
 508 64 519 66 524 73 c 0
 529 79 532 93 532 112 c 0
 532 148 557 123 563 112 c 0
 568 104 570 93 570 82 c 0
 570 28 517 -9 464 -6 c 0
 423 -3 410 18 395 37 c 1
162 222 m 0
 162 153 184 48 271 48 c 0
 315 48 369 64 374 104 c 0
 375 114 375 330 374 340 c 0
 367 396 275 398 253 395 c 0
 200 384 162 321 162 222 c 0
490 -97 m 0
 495 -97 519 -105 519 -151 c 0
 518 -168 515 -180 507 -196 c 0
 489 -230 452 -252 415 -250 c 0
 373 -247 335 -217 322 -156 c 0
 320 -148 320 -143 319 -115 c 0
 319 -76 316 -45 366 -34 c 0
 369 -33 387 -34 392 -35 c 0
 436 -50 431 -93 431 -110 c 0
 431 -156 435 -178 456 -178 c 0
 478 -178 478 -152 481 -122 c 0
 481 -103 482 -97 490 -97 c 0
EndSplineSet
EndChar

StartChar: uni1F82
Encoding: 8066 8066 143
Width: 605
Flags: MW
HStem: -6 54<227.5 291> 499 28<132.5 140 132.5 164> 674 20G<167 188.5>
VStem: 50 112<216.5 271.5 187.5 290> 246 29 481 38<-151 -112.5> 532 38<55 130>
LayerCount: 2
Fore
SplineSet
281 656 m 0
 281 687 315 717 357 712 c 0
 378 708 393 693 398 671 c 2
 398 671 408 550 411 498 c 1
 400 494 l 2
 392 491 389 490 389 491 c 2
 389 491 293 623 287 632 c 0
 283 640 281 648 281 656 c 0
118 633 m 0
 118 682 156 694 178 694 c 0
 199 694 269 680 275 602 c 0
 278 525 190 499 138 499 c 0
 117 499 115 512 118 519 c 0
 121 525 125 527 140 527 c 0
 201 530 246 553 246 597 c 0
 246 609 241 624 240 628 c 1
 235 614 228 572 178 572 c 0
 144 572 118 595 118 633 c 0
395 37 m 1
 359 7 315 -6 267 -6 c 0
 143 -6 65 95 52 194 c 0
 51 200 50 211 50 222 c 0
 50 358 153 438 247 449 c 0
 304 454 361 438 397 405 c 0
 402 400 406 394 417 380 c 1
 487 450 l 1
 487 270 l 1
 488 91 l 2
 491 82 493 71 501 68 c 0
 508 64 519 66 524 73 c 0
 529 79 532 93 532 112 c 0
 532 148 557 123 563 112 c 0
 568 104 570 93 570 82 c 0
 570 28 517 -9 464 -6 c 0
 423 -3 410 18 395 37 c 1
162 222 m 0
 162 153 184 48 271 48 c 0
 315 48 369 64 374 104 c 0
 375 114 375 330 374 340 c 0
 367 396 275 398 253 395 c 0
 200 384 162 321 162 222 c 0
490 -97 m 0
 495 -97 519 -105 519 -151 c 0
 518 -168 515 -180 507 -196 c 0
 489 -230 452 -252 415 -250 c 0
 373 -247 335 -217 322 -156 c 0
 320 -148 320 -143 319 -115 c 0
 319 -76 316 -45 366 -34 c 0
 369 -33 387 -34 392 -35 c 0
 436 -50 431 -93 431 -110 c 0
 431 -156 435 -178 456 -178 c 0
 478 -178 478 -152 481 -122 c 0
 481 -103 482 -97 490 -97 c 0
EndSplineSet
EndChar

StartChar: uni1FB6
Encoding: 8118 8118 144
Width: 605
Flags: MW
HStem: -6 54<227.5 291>
VStem: 50 112<216.5 271.5 187.5 290> 532 38<55 130>
LayerCount: 2
Fore
SplineSet
165 560 m 0
 165 542 159 542 128 542 c 0
 100 542 98 542 94 548 c 0
 90 553 91 567 94 577 c 0
 114 636 191 642 256 638 c 0
 292 635 311 626 340 599 c 0
 358 583 367 578 379 579 c 0
 429 587 414 631 428 637 c 0
 431 639 434 639 457 639 c 0
 485 639 488 639 492 633 c 0
 499 624 493 552 394 543 c 0
 388 542 377 542 366 542 c 0
 298 542 281 550 246 581 c 0
 226 599 218 603 206 602 c 0
 185 599 167 582 165 560 c 0
395 37 m 1
 359 7 315 -6 267 -6 c 0
 143 -6 65 95 52 194 c 0
 51 200 50 211 50 222 c 0
 50 358 153 438 247 449 c 0
 304 454 361 438 397 405 c 0
 402 400 406 394 417 380 c 1
 487 450 l 1
 487 270 l 1
 488 91 l 2
 491 82 493 71 501 68 c 0
 508 64 519 66 524 73 c 0
 529 79 532 93 532 112 c 0
 532 148 557 123 563 112 c 0
 568 104 570 93 570 82 c 0
 570 28 517 -9 464 -6 c 0
 423 -3 410 18 395 37 c 1
162 222 m 0
 162 153 184 48 271 48 c 0
 315 48 369 64 374 104 c 0
 375 114 375 330 374 340 c 0
 367 396 275 398 253 395 c 0
 200 384 162 321 162 222 c 0
EndSplineSet
EndChar

StartChar: uni1F07
Encoding: 7943 7943 145
Width: 605
Flags: W
HStem: -6 54<227.5 291> 488 28<306 310.5> 525 68<288 294 279 306.5> 595 38<372 402 372 412> 674 20G<454 478>
VStem: 50 112<216.5 271.5 187.5 290> 91 59<607 615.5 607 620.5> 240 87 532 38<55 130>
LayerCount: 2
Fore
SplineSet
121 595 m 0xfb80
 98 595 91 596 91 612 c 0
 91 629 104 684 187 693 c 0
 211 695 266 693 306 671 c 0
 310 668 321 661 329 656 c 0
 357 636 364 633 380 633 c 0
 424 633 434 665 435 676 c 0
 437 695 443 694 465 694 c 0
 491 694 494 692 494 677 c 0
 494 631 447 595 377 595 c 0
 273 595 246 657 206 657 c 0
 162 657 150 621 150 610 c 0
 150 604 147 600 143 597 c 0
 140 595 138 595 121 595 c 0xfb80
327 558 m 0
 327 547 321 525 292 525 c 0
 284 525 283 525 277 528 c 0
 271 531 271 531 273 528 c 0
 279 522 297 516 311 516 c 0
 331 516 328 495 320 490 c 0
 316 488 315 488 306 488 c 0
 251 492 241 525 240 538 c 0
 239 568 264 593 294 593 c 0
 301 592 327 588 327 558 c 0
395 37 m 1
 359 7 315 -6 267 -6 c 0
 143 -6 65 95 52 194 c 0
 51 200 50 211 50 222 c 0xfd80
 50 358 153 438 247 449 c 0
 304 454 361 438 397 405 c 0
 402 400 406 394 417 380 c 1
 487 450 l 1
 487 270 l 1
 488 91 l 2
 491 82 493 71 501 68 c 0
 508 64 519 66 524 73 c 0
 529 79 532 93 532 112 c 0
 532 148 557 123 563 112 c 0
 568 104 570 93 570 82 c 0
 570 28 517 -9 464 -6 c 0
 423 -3 410 18 395 37 c 1
162 222 m 0
 162 153 184 48 271 48 c 0
 315 48 369 64 374 104 c 0
 375 114 375 330 374 340 c 0
 367 396 275 398 253 395 c 0
 200 384 162 321 162 222 c 0
EndSplineSet
EndChar

StartChar: uni1F06
Encoding: 7942 7942 146
Width: 605
Flags: W
HStem: -6 54<227.5 291> 488 28<270.5 280> 525 67<282.5 297> 595 38<372 402 372 412> 674 20G<454 478>
VStem: 50 112<216.5 271.5 187.5 290> 91 59<607 615.5 607 620.5> 532 38<55 130>
LayerCount: 2
Fore
SplineSet
121 595 m 0xfb
 98 595 91 596 91 612 c 0
 91 629 104 684 187 693 c 0
 211 695 266 693 306 671 c 0
 310 668 321 661 329 656 c 0
 357 636 364 633 380 633 c 0
 424 633 434 665 435 676 c 0
 437 695 443 694 465 694 c 0
 491 694 494 692 494 677 c 0
 494 631 447 595 377 595 c 0
 273 595 246 657 206 657 c 0
 162 657 150 621 150 610 c 0
 150 604 147 600 143 597 c 0
 140 595 138 595 121 595 c 0xfb
258 559 m 0
 258 576 272 592 293 592 c 0
 333 592 357 548 338 517 c 0
 329 501 306 490 280 488 c 0
 257 488 256 501 259 508 c 0
 262 513 267 516 274 516 c 0
 288 516 306 522 312 528 c 0
 314 531 314 531 308 528 c 0
 302 525 301 525 293 525 c 0
 264 525 258 547 258 559 c 0
395 37 m 1
 359 7 315 -6 267 -6 c 0
 143 -6 65 95 52 194 c 0
 51 200 50 211 50 222 c 0xfd
 50 358 153 438 247 449 c 0
 304 454 361 438 397 405 c 0
 402 400 406 394 417 380 c 1
 487 450 l 1
 487 270 l 1
 488 91 l 2
 491 82 493 71 501 68 c 0
 508 64 519 66 524 73 c 0
 529 79 532 93 532 112 c 0
 532 148 557 123 563 112 c 0
 568 104 570 93 570 82 c 0
 570 28 517 -9 464 -6 c 0
 423 -3 410 18 395 37 c 1
162 222 m 0
 162 153 184 48 271 48 c 0
 315 48 369 64 374 104 c 0
 375 114 375 330 374 340 c 0
 367 396 275 398 253 395 c 0
 200 384 162 321 162 222 c 0
EndSplineSet
EndChar

StartChar: uni03DD
Encoding: 989 989 147
Width: 605
Flags: MW
HStem: -250 48<55 63 55 111 63 111 223 284 284 292> 70 48<223 257 223 257> 390 48<55 111 55 530 223 223 223 301>
VStem: 372 54<-27 -15 -15 5 203 215 -27 215>
LayerCount: 2
Fore
SplineSet
284 -250 m 2
 272 -247 76 -247 63 -250 c 2
 55 -250 l 1
 55 -202 l 1
 111 -202 l 1
 111 390 l 1
 55 390 l 1
 55 438 l 1
 530 438 l 1
 530 435 l 1
 534 426 550 285 554 276 c 1
 554 273 l 1
 500 273 l 1
 487 324 483 368 415 384 c 0
 392 389 385 389 301 390 c 2
 223 390 l 1
 223 118 l 1
 257 118 l 2
 307 118 321 120 338 128 c 0
 361 140 372 163 372 203 c 2
 372 215 l 1
 426 215 l 1
 426 -27 l 1
 372 -27 l 1
 372 -15 l 2
 372 25 361 48 338 60 c 0
 321 68 307 70 257 70 c 2
 223 70 l 1
 223 -202 l 1
 292 -202 l 1
 292 -250 l 1
 284 -250 l 2
EndSplineSet
EndChar

StartChar: uni1FB7
Encoding: 8119 8119 148
Width: 605
Flags: MW
HStem: -6 54<227.5 291>
VStem: 50 112<216.5 271.5 187.5 290> 481 38<-151 -112.5> 532 38<55 130>
LayerCount: 2
Fore
SplineSet
165 560 m 0
 165 542 159 542 128 542 c 0
 100 542 98 542 94 548 c 0
 90 553 91 567 94 577 c 0
 114 636 191 642 256 638 c 0
 292 635 311 626 340 599 c 0
 358 583 367 578 379 579 c 0
 429 587 414 631 428 637 c 0
 431 639 434 639 457 639 c 0
 485 639 488 639 492 633 c 0
 499 624 493 552 394 543 c 0
 388 542 377 542 366 542 c 0
 298 542 281 550 246 581 c 0
 226 599 218 603 206 602 c 0
 185 599 167 582 165 560 c 0
395 37 m 1
 359 7 315 -6 267 -6 c 0
 143 -6 65 95 52 194 c 0
 51 200 50 211 50 222 c 0
 50 358 153 438 247 449 c 0
 304 454 361 438 397 405 c 0
 402 400 406 394 417 380 c 1
 487 450 l 1
 487 270 l 1
 488 91 l 2
 491 82 493 71 501 68 c 0
 508 64 519 66 524 73 c 0
 529 79 532 93 532 112 c 0
 532 148 557 123 563 112 c 0
 568 104 570 93 570 82 c 0
 570 28 517 -9 464 -6 c 0
 423 -3 410 18 395 37 c 1
162 222 m 0
 162 153 184 48 271 48 c 0
 315 48 369 64 374 104 c 0
 375 114 375 330 374 340 c 0
 367 396 275 398 253 395 c 0
 200 384 162 321 162 222 c 0
490 -97 m 0
 495 -97 519 -105 519 -151 c 0
 518 -168 515 -180 507 -196 c 0
 489 -230 452 -252 415 -250 c 0
 373 -247 335 -217 322 -156 c 0
 320 -148 320 -143 319 -115 c 0
 319 -76 316 -45 366 -34 c 0
 369 -33 387 -34 392 -35 c 0
 436 -50 431 -93 431 -110 c 0
 431 -156 435 -178 456 -178 c 0
 478 -178 478 -152 481 -122 c 0
 481 -103 482 -97 490 -97 c 0
EndSplineSet
EndChar

StartChar: uni1F87
Encoding: 8071 8071 149
Width: 605
Flags: W
HStem: -6 54<227.5 291> 488 28<306 310.5> 525 68<288 294 279 306.5> 595 38<372 402 372 412> 674 20G<454 478>
VStem: 50 112<216.5 271.5 187.5 290> 91 59<607 615.5 607 620.5> 240 87 481 38<-151 -112.5> 532 38<55 130>
LayerCount: 2
Fore
SplineSet
121 595 m 0xfbc0
 98 595 91 596 91 612 c 0
 91 629 104 684 187 693 c 0
 211 695 266 693 306 671 c 0
 310 668 321 661 329 656 c 0
 357 636 364 633 380 633 c 0
 424 633 434 665 435 676 c 0
 437 695 443 694 465 694 c 0
 491 694 494 692 494 677 c 0
 494 631 447 595 377 595 c 0
 273 595 246 657 206 657 c 0
 162 657 150 621 150 610 c 0
 150 604 147 600 143 597 c 0
 140 595 138 595 121 595 c 0xfbc0
327 558 m 0
 327 547 321 525 292 525 c 0
 284 525 283 525 277 528 c 0
 271 531 271 531 273 528 c 0
 279 522 297 516 311 516 c 0
 331 516 328 495 320 490 c 0
 316 488 315 488 306 488 c 0
 251 492 241 525 240 538 c 0
 239 568 264 593 294 593 c 0
 301 592 327 588 327 558 c 0
395 37 m 1
 359 7 315 -6 267 -6 c 0
 143 -6 65 95 52 194 c 0
 51 200 50 211 50 222 c 0xfdc0
 50 358 153 438 247 449 c 0
 304 454 361 438 397 405 c 0
 402 400 406 394 417 380 c 1
 487 450 l 1
 487 270 l 1
 488 91 l 2
 491 82 493 71 501 68 c 0
 508 64 519 66 524 73 c 0
 529 79 532 93 532 112 c 0
 532 148 557 123 563 112 c 0
 568 104 570 93 570 82 c 0
 570 28 517 -9 464 -6 c 0
 423 -3 410 18 395 37 c 1
162 222 m 0
 162 153 184 48 271 48 c 0
 315 48 369 64 374 104 c 0
 375 114 375 330 374 340 c 0
 367 396 275 398 253 395 c 0
 200 384 162 321 162 222 c 0
490 -97 m 0
 495 -97 519 -105 519 -151 c 0
 518 -168 515 -180 507 -196 c 0
 489 -230 452 -252 415 -250 c 0
 373 -247 335 -217 322 -156 c 0
 320 -148 320 -143 319 -115 c 0
 319 -76 316 -45 366 -34 c 0
 369 -33 387 -34 392 -35 c 0
 436 -50 431 -93 431 -110 c 0
 431 -156 435 -178 456 -178 c 0
 478 -178 478 -152 481 -122 c 0
 481 -103 482 -97 490 -97 c 0
EndSplineSet
EndChar

StartChar: uni1F86
Encoding: 8070 8070 150
Width: 605
Flags: W
HStem: -6 54<227.5 291> 488 28<270.5 280> 525 67<282.5 297> 595 38<372 402 372 412> 674 20G<454 478>
VStem: 50 112<216.5 271.5 187.5 290> 91 59<607 615.5 607 620.5> 481 38<-151 -112.5> 532 38<55 130>
LayerCount: 2
Fore
SplineSet
121 595 m 0xfb80
 98 595 91 596 91 612 c 0
 91 629 104 684 187 693 c 0
 211 695 266 693 306 671 c 0
 310 668 321 661 329 656 c 0
 357 636 364 633 380 633 c 0
 424 633 434 665 435 676 c 0
 437 695 443 694 465 694 c 0
 491 694 494 692 494 677 c 0
 494 631 447 595 377 595 c 0
 273 595 246 657 206 657 c 0
 162 657 150 621 150 610 c 0
 150 604 147 600 143 597 c 0
 140 595 138 595 121 595 c 0xfb80
258 559 m 0
 258 576 272 592 293 592 c 0
 333 592 357 548 338 517 c 0
 329 501 306 490 280 488 c 0
 257 488 256 501 259 508 c 0
 262 513 267 516 274 516 c 0
 288 516 306 522 312 528 c 0
 314 531 314 531 308 528 c 0
 302 525 301 525 293 525 c 0
 264 525 258 547 258 559 c 0
395 37 m 1
 359 7 315 -6 267 -6 c 0
 143 -6 65 95 52 194 c 0
 51 200 50 211 50 222 c 0xfd80
 50 358 153 438 247 449 c 0
 304 454 361 438 397 405 c 0
 402 400 406 394 417 380 c 1
 487 450 l 1
 487 270 l 1
 488 91 l 2
 491 82 493 71 501 68 c 0
 508 64 519 66 524 73 c 0
 529 79 532 93 532 112 c 0
 532 148 557 123 563 112 c 0
 568 104 570 93 570 82 c 0
 570 28 517 -9 464 -6 c 0
 423 -3 410 18 395 37 c 1
162 222 m 0
 162 153 184 48 271 48 c 0
 315 48 369 64 374 104 c 0
 375 114 375 330 374 340 c 0
 367 396 275 398 253 395 c 0
 200 384 162 321 162 222 c 0
490 -97 m 0
 495 -97 519 -105 519 -151 c 0
 518 -168 515 -180 507 -196 c 0
 489 -230 452 -252 415 -250 c 0
 373 -247 335 -217 322 -156 c 0
 320 -148 320 -143 319 -115 c 0
 319 -76 316 -45 366 -34 c 0
 369 -33 387 -34 392 -35 c 0
 436 -50 431 -93 431 -110 c 0
 431 -156 435 -178 456 -178 c 0
 478 -178 478 -152 481 -122 c 0
 481 -103 482 -97 490 -97 c 0
EndSplineSet
EndChar

StartChar: uni0020035D
Encoding: 1114121 -1 151
Width: 806
Flags: MW
HStem: 507 63<329.5 477.5> 674 20G<1 37 37 37 768 804 804 804>
LayerCount: 2
Fore
SplineSet
804 694 m 1
 691 581 554 507 401 507 c 0
 258 507 102 585 1 694 c 1
 37 694 l 1
 46 685 l 2
 100 634 202 570 403 570 c 0
 615 570 715 643 759 685 c 2
 768 694 l 1
 804 694 l 1
EndSplineSet
EndChar

StartChar: uni1F74
Encoding: 8052 8052 152
Width: 605
Flags: W
HStem: -250 48<392 400 392 448 400 448 560 608 608 615> 0 48<23 30 23 78 30 78 190 238 238 246> 366 84<309.5 334>
VStem: 448 112<-202 26 26 26>
LayerCount: 2
Fore
SplineSet
235 656 m 0
 235 689 267 709 294 712 c 0
 309 715 329 709 340 696 c 0
 345 691 350 680 353 672 c 0
 354 665 366 499 364 498 c 0
 356 494 344 489 343 492 c 0
 340 495 248 621 244 627 c 0
 238 637 235 647 235 656 c 0
190 388 m 1
 228 426 283 450 336 450 c 0
 456 450 534 367 554 288 c 0
 560 263 559 281 560 29 c 2
 560 -202 l 1
 615 -202 l 1
 615 -250 l 1
 608 -250 l 2
 595 -247 412 -247 400 -250 c 2
 392 -250 l 1
 392 -202 l 1
 448 -202 l 1
 448 26 l 2
 447 274 448 258 442 278 c 0
 431 319 396 369 334 366 c 0
 273 366 218 346 190 292 c 1
 190 48 l 1
 246 48 l 1
 246 0 l 1
 238 0 l 2
 225 3 43 3 30 0 c 2
 23 0 l 1
 23 48 l 1
 78 48 l 1
 78 396 l 1
 23 396 l 1
 23 444 l 1
 99 444 l 2
 171 444 176 444 180 442 c 0
 193 436 190 425 190 409 c 2
 190 388 l 1
EndSplineSet
EndChar

StartChar: uni1F21
Encoding: 7969 7969 153
Width: 605
Flags: W
HStem: -250 48<392 400 392 448 400 448 560 608 608 615> 0 48<23 30 23 78 30 78 190 238 238 246> 366 84<309.5 334> 499 28<375 379.5> 674 20G<325 348>
VStem: 240 29<575.5 603.5 575.5 636> 448 112<-202 26 26 26>
LayerCount: 2
Fore
SplineSet
373 499 m 0
 297 502 240 538 240 598 c 0
 240 674 314 694 336 694 c 0
 360 694 397 680 397 633 c 0
 397 595 371 572 337 572 c 0
 310 572 283 587 275 628 c 1
 272 616 269 610 269 597 c 0
 269 554 313 530 375 527 c 0
 407 527 398 505 391 501 c 0
 387 499 386 499 373 499 c 0
190 388 m 1
 228 426 283 450 336 450 c 0
 456 450 534 367 554 288 c 0
 560 263 559 281 560 29 c 2
 560 -202 l 1
 615 -202 l 1
 615 -250 l 1
 608 -250 l 2
 595 -247 412 -247 400 -250 c 2
 392 -250 l 1
 392 -202 l 1
 448 -202 l 1
 448 26 l 2
 447 274 448 258 442 278 c 0
 431 319 396 369 334 366 c 0
 273 366 218 346 190 292 c 1
 190 48 l 1
 246 48 l 1
 246 0 l 1
 238 0 l 2
 225 3 43 3 30 0 c 2
 23 0 l 1
 23 48 l 1
 78 48 l 1
 78 396 l 1
 23 396 l 1
 23 444 l 1
 99 444 l 2
 171 444 176 444 180 442 c 0
 193 436 190 425 190 409 c 2
 190 388 l 1
EndSplineSet
EndChar

StartChar: uni1F20
Encoding: 7968 7968 154
Width: 605
Flags: W
HStem: -250 48<392 400 392 448 400 448 560 608 608 615> 0 48<23 30 23 78 30 78 190 238 238 246> 366 84<309.5 334> 499 28<291.5 299 291.5 323> 674 20G<326 347.5>
VStem: 405 29 448 112<-202 26 26 26>
LayerCount: 2
Fore
SplineSet
277 633 m 0
 277 682 315 694 337 694 c 0
 358 694 428 680 434 602 c 0
 437 525 349 499 297 499 c 0
 276 499 274 512 277 519 c 0
 280 525 284 527 299 527 c 0
 360 530 405 553 405 597 c 0
 405 609 400 624 399 628 c 1
 394 614 387 572 337 572 c 0
 303 572 277 595 277 633 c 0
190 388 m 1
 228 426 283 450 336 450 c 0
 456 450 534 367 554 288 c 0
 560 263 559 281 560 29 c 2
 560 -202 l 1
 615 -202 l 1
 615 -250 l 1
 608 -250 l 2
 595 -247 412 -247 400 -250 c 2
 392 -250 l 1
 392 -202 l 1
 448 -202 l 1
 448 26 l 2
 447 274 448 258 442 278 c 0
 431 319 396 369 334 366 c 0
 273 366 218 346 190 292 c 1
 190 48 l 1
 246 48 l 1
 246 0 l 1
 238 0 l 2
 225 3 43 3 30 0 c 2
 23 0 l 1
 23 48 l 1
 78 48 l 1
 78 396 l 1
 23 396 l 1
 23 444 l 1
 99 444 l 2
 171 444 176 444 180 442 c 0
 193 436 190 425 190 409 c 2
 190 388 l 1
EndSplineSet
EndChar

StartChar: uni1FC2
Encoding: 8130 8130 155
Width: 605
Flags: W
HStem: -250 48<392 400 392 448 400 448 560 608 608 615> 0 48<23 30 23 78 30 78 190 238 238 246> 366 84<309.5 334>
VStem: 240 38<-151 -112.5> 448 112<-202 26 26 26>
LayerCount: 2
Fore
SplineSet
235 656 m 0
 235 689 267 709 294 712 c 0
 309 715 329 709 340 696 c 0
 345 691 350 680 353 672 c 0
 354 665 366 499 364 498 c 0
 356 494 344 489 343 492 c 0
 340 495 248 621 244 627 c 0
 238 637 235 647 235 656 c 0
190 388 m 1
 228 426 283 450 336 450 c 0
 456 450 534 367 554 288 c 0
 560 263 559 281 560 29 c 2
 560 -202 l 1
 615 -202 l 1
 615 -250 l 1
 608 -250 l 2
 595 -247 412 -247 400 -250 c 2
 392 -250 l 1
 392 -202 l 1
 448 -202 l 1
 448 26 l 2
 447 274 448 258 442 278 c 0
 431 319 396 369 334 366 c 0
 273 366 218 346 190 292 c 1
 190 48 l 1
 246 48 l 1
 246 0 l 1
 238 0 l 2
 225 3 43 3 30 0 c 2
 23 0 l 1
 23 48 l 1
 78 48 l 1
 78 396 l 1
 23 396 l 1
 23 444 l 1
 99 444 l 2
 171 444 176 444 180 442 c 0
 193 436 190 425 190 409 c 2
 190 388 l 1
249 -97 m 0
 254 -97 278 -105 278 -151 c 0
 277 -168 274 -180 266 -196 c 0
 248 -230 211 -252 174 -250 c 0
 132 -247 94 -217 81 -156 c 0
 79 -148 79 -143 78 -115 c 0
 78 -76 75 -45 125 -34 c 0
 128 -33 146 -34 151 -35 c 0
 195 -50 190 -93 190 -110 c 0
 190 -156 194 -178 215 -178 c 0
 237 -178 237 -152 240 -122 c 0
 240 -103 241 -97 249 -97 c 0
EndSplineSet
EndChar

StartChar: uni1F91
Encoding: 8081 8081 156
Width: 605
Flags: W
HStem: -250 48<392 400 392 448 400 448 560 608 608 615> 0 48<23 30 23 78 30 78 190 238 238 246> 366 84<309.5 334> 396 48<23 78 23 99> 499 28<375 379.5> 674 20G<325 348>
VStem: 240 29<575.5 603.5 575.5 636> 240 38<-151 -112.5> 448 112<-202 26 26 26>
LayerCount: 2
Fore
SplineSet
373 499 m 0xce80
 297 502 240 538 240 598 c 0
 240 674 314 694 336 694 c 0
 360 694 397 680 397 633 c 0
 397 595 371 572 337 572 c 0
 310 572 283 587 275 628 c 1
 272 616 269 610 269 597 c 0
 269 554 313 530 375 527 c 0
 407 527 398 505 391 501 c 0
 387 499 386 499 373 499 c 0xce80
190 388 m 1
 228 426 283 450 336 450 c 0
 456 450 534 367 554 288 c 0
 560 263 559 281 560 29 c 2
 560 -202 l 1
 615 -202 l 1
 615 -250 l 1
 608 -250 l 2
 595 -247 412 -247 400 -250 c 2
 392 -250 l 1
 392 -202 l 1
 448 -202 l 1
 448 26 l 2
 447 274 448 258 442 278 c 0
 431 319 396 369 334 366 c 0xec80
 273 366 218 346 190 292 c 1
 190 48 l 1
 246 48 l 1
 246 0 l 1
 238 0 l 2
 225 3 43 3 30 0 c 2
 23 0 l 1
 23 48 l 1
 78 48 l 1
 78 396 l 1
 23 396 l 1
 23 444 l 1
 99 444 l 2xdc80
 171 444 176 444 180 442 c 0
 193 436 190 425 190 409 c 2
 190 388 l 1
249 -97 m 0
 254 -97 278 -105 278 -151 c 0
 277 -168 274 -180 266 -196 c 0
 248 -230 211 -252 174 -250 c 0
 132 -247 94 -217 81 -156 c 0
 79 -148 79 -143 78 -115 c 0
 78 -76 75 -45 125 -34 c 0
 128 -33 146 -34 151 -35 c 0
 195 -50 190 -93 190 -110 c 0
 190 -156 194 -178 215 -178 c 0
 237 -178 237 -152 240 -122 c 0xcd80
 240 -103 241 -97 249 -97 c 0
EndSplineSet
EndChar

StartChar: uni1F90
Encoding: 8080 8080 157
Width: 605
Flags: W
HStem: -250 48<392 400 392 448 400 448 560 608 608 615> 0 48<23 30 23 78 30 78 190 238 238 246> 366 84<309.5 334> 499 28<291.5 299 291.5 323> 674 20G<326 347.5>
VStem: 240 38<-151 -112.5> 405 29 448 112<-202 26 26 26>
LayerCount: 2
Fore
SplineSet
277 633 m 0
 277 682 315 694 337 694 c 0
 358 694 428 680 434 602 c 0
 437 525 349 499 297 499 c 0
 276 499 274 512 277 519 c 0
 280 525 284 527 299 527 c 0
 360 530 405 553 405 597 c 0
 405 609 400 624 399 628 c 1
 394 614 387 572 337 572 c 0
 303 572 277 595 277 633 c 0
190 388 m 1
 228 426 283 450 336 450 c 0
 456 450 534 367 554 288 c 0
 560 263 559 281 560 29 c 2
 560 -202 l 1
 615 -202 l 1
 615 -250 l 1
 608 -250 l 2
 595 -247 412 -247 400 -250 c 2
 392 -250 l 1
 392 -202 l 1
 448 -202 l 1
 448 26 l 2
 447 274 448 258 442 278 c 0
 431 319 396 369 334 366 c 0
 273 366 218 346 190 292 c 1
 190 48 l 1
 246 48 l 1
 246 0 l 1
 238 0 l 2
 225 3 43 3 30 0 c 2
 23 0 l 1
 23 48 l 1
 78 48 l 1
 78 396 l 1
 23 396 l 1
 23 444 l 1
 99 444 l 2
 171 444 176 444 180 442 c 0
 193 436 190 425 190 409 c 2
 190 388 l 1
249 -97 m 0
 254 -97 278 -105 278 -151 c 0
 277 -168 274 -180 266 -196 c 0
 248 -230 211 -252 174 -250 c 0
 132 -247 94 -217 81 -156 c 0
 79 -148 79 -143 78 -115 c 0
 78 -76 75 -45 125 -34 c 0
 128 -33 146 -34 151 -35 c 0
 195 -50 190 -93 190 -110 c 0
 190 -156 194 -178 215 -178 c 0
 237 -178 237 -152 240 -122 c 0
 240 -103 241 -97 249 -97 c 0
EndSplineSet
EndChar

StartChar: etatonos
Encoding: 942 942 159
Width: 605
Flags: W
HStem: -250 48<392 400 392 448 400 448 560 608 608 615> 0 48<23 30 23 78 30 78 190 238 238 246> 366 84<309.5 334>
VStem: 448 112<-202 26 26 26>
LayerCount: 2
Fore
SplineSet
321 672 m 0
 338 717 373 720 405 705 c 0
 427 694 439 676 439 656 c 0
 439 647 436 637 430 627 c 0
 426 621 334 495 331 492 c 0
 330 491 330 489 310 498 c 0
 308 499 320 665 321 672 c 0
190 388 m 1
 228 426 283 450 336 450 c 0
 456 450 534 367 554 288 c 0
 560 263 559 281 560 29 c 2
 560 -202 l 1
 615 -202 l 1
 615 -250 l 1
 608 -250 l 2
 595 -247 412 -247 400 -250 c 2
 392 -250 l 1
 392 -202 l 1
 448 -202 l 1
 448 26 l 2
 447 274 448 258 442 278 c 0
 431 319 396 369 334 366 c 0
 273 366 218 346 190 292 c 1
 190 48 l 1
 246 48 l 1
 246 0 l 1
 238 0 l 2
 225 3 43 3 30 0 c 2
 23 0 l 1
 23 48 l 1
 78 48 l 1
 78 396 l 1
 23 396 l 1
 23 444 l 1
 99 444 l 2
 171 444 176 444 180 442 c 0
 193 436 190 425 190 409 c 2
 190 388 l 1
EndSplineSet
EndChar

StartChar: uni1F25
Encoding: 7973 7973 160
Width: 605
Flags: W
HStem: -250 48<392 400 392 448 400 448 560 608 608 615> 0 48<23 30 23 78 30 78 190 238 238 246> 366 84<309.5 334> 499 28<316 320.5> 674 20G<266 289>
VStem: 181 29<575.5 603.5 575.5 636> 448 112<-202 26 26 26>
LayerCount: 2
Fore
SplineSet
361 672 m 0
 378 717 413 720 445 705 c 0
 467 694 479 676 479 656 c 0
 479 647 476 637 470 627 c 0
 466 621 374 495 371 492 c 0
 370 491 370 489 350 498 c 0
 348 499 360 665 361 672 c 0
314 499 m 0
 238 502 181 538 181 598 c 0
 181 674 255 694 277 694 c 0
 301 694 338 680 338 633 c 0
 338 595 312 572 278 572 c 0
 241 572 221 598 216 628 c 1
 213 616 210 610 210 597 c 0
 210 554 254 530 316 527 c 0
 348 527 339 505 332 501 c 0
 328 499 327 499 314 499 c 0
190 388 m 1
 228 426 283 450 336 450 c 0
 456 450 534 367 554 288 c 0
 560 263 559 281 560 29 c 2
 560 -202 l 1
 615 -202 l 1
 615 -250 l 1
 608 -250 l 2
 595 -247 412 -247 400 -250 c 2
 392 -250 l 1
 392 -202 l 1
 448 -202 l 1
 448 26 l 2
 447 274 448 258 442 278 c 0
 431 319 396 369 334 366 c 0
 273 366 218 346 190 292 c 1
 190 48 l 1
 246 48 l 1
 246 0 l 1
 238 0 l 2
 225 3 43 3 30 0 c 2
 23 0 l 1
 23 48 l 1
 78 48 l 1
 78 396 l 1
 23 396 l 1
 23 444 l 1
 99 444 l 2
 171 444 176 444 180 442 c 0
 193 436 190 425 190 409 c 2
 190 388 l 1
EndSplineSet
EndChar

StartChar: uni1F24
Encoding: 7972 7972 161
Width: 605
Flags: W
HStem: -250 48<392 400 392 448 400 448 560 608 608 615> 0 48<23 30 23 78 30 78 190 238 238 246> 366 84<309.5 334> 499 28<203.5 211 203.5 235> 674 20G<238 259.5>
VStem: 317 29 448 112<-202 26 26 26>
LayerCount: 2
Fore
SplineSet
361 672 m 0
 378 717 413 720 445 705 c 0
 467 694 479 676 479 656 c 0
 479 647 476 637 470 627 c 0
 466 621 374 495 371 492 c 0
 370 491 370 489 350 498 c 0
 348 499 360 665 361 672 c 0
189 633 m 0
 189 682 227 694 249 694 c 0
 270 694 340 680 346 602 c 0
 349 525 261 499 209 499 c 0
 188 499 186 512 189 519 c 0
 192 525 196 527 211 527 c 0
 272 530 317 553 317 597 c 0
 317 609 312 624 311 628 c 1
 306 614 299 572 249 572 c 0
 215 572 189 595 189 633 c 0
190 388 m 1
 228 426 283 450 336 450 c 0
 456 450 534 367 554 288 c 0
 560 263 559 281 560 29 c 2
 560 -202 l 1
 615 -202 l 1
 615 -250 l 1
 608 -250 l 2
 595 -247 412 -247 400 -250 c 2
 392 -250 l 1
 392 -202 l 1
 448 -202 l 1
 448 26 l 2
 447 274 448 258 442 278 c 0
 431 319 396 369 334 366 c 0
 273 366 218 346 190 292 c 1
 190 48 l 1
 246 48 l 1
 246 0 l 1
 238 0 l 2
 225 3 43 3 30 0 c 2
 23 0 l 1
 23 48 l 1
 78 48 l 1
 78 396 l 1
 23 396 l 1
 23 444 l 1
 99 444 l 2
 171 444 176 444 180 442 c 0
 193 436 190 425 190 409 c 2
 190 388 l 1
EndSplineSet
EndChar

StartChar: uni1F23
Encoding: 7971 7971 162
Width: 605
Flags: W
HStem: -250 48<392 400 392 448 400 448 560 608 608 615> 0 48<23 30 23 78 30 78 190 238 238 246> 366 84<309.5 334> 499 28<286 290.5> 674 20G<236 259>
VStem: 151 29<575.5 603.5 575.5 636> 448 112<-202 26 26 26>
LayerCount: 2
Fore
SplineSet
325 656 m 0
 325 689 357 709 384 712 c 0
 399 715 419 709 430 696 c 0
 435 691 440 680 443 672 c 0
 444 665 456 499 454 498 c 0
 446 494 434 489 433 492 c 0
 430 495 338 621 334 627 c 0
 328 637 325 647 325 656 c 0
284 499 m 0
 208 502 151 538 151 598 c 0
 151 674 225 694 247 694 c 0
 271 694 308 680 308 633 c 0
 308 595 282 572 248 572 c 0
 211 572 191 598 186 628 c 1
 183 616 180 610 180 597 c 0
 180 554 224 530 286 527 c 0
 318 527 309 505 302 501 c 0
 298 499 297 499 284 499 c 0
190 388 m 1
 228 426 283 450 336 450 c 0
 456 450 534 367 554 288 c 0
 560 263 559 281 560 29 c 2
 560 -202 l 1
 615 -202 l 1
 615 -250 l 1
 608 -250 l 2
 595 -247 412 -247 400 -250 c 2
 392 -250 l 1
 392 -202 l 1
 448 -202 l 1
 448 26 l 2
 447 274 448 258 442 278 c 0
 431 319 396 369 334 366 c 0
 273 366 218 346 190 292 c 1
 190 48 l 1
 246 48 l 1
 246 0 l 1
 238 0 l 2
 225 3 43 3 30 0 c 2
 23 0 l 1
 23 48 l 1
 78 48 l 1
 78 396 l 1
 23 396 l 1
 23 444 l 1
 99 444 l 2
 171 444 176 444 180 442 c 0
 193 436 190 425 190 409 c 2
 190 388 l 1
EndSplineSet
EndChar

StartChar: uni1FC4
Encoding: 8132 8132 163
Width: 605
Flags: W
HStem: -250 48<392 400 392 448 400 448 560 608 608 615> 0 48<23 30 23 78 30 78 190 238 238 246> 366 84<309.5 334>
VStem: 240 38<-151 -112.5> 448 112<-202 26 26 26>
LayerCount: 2
Fore
SplineSet
321 672 m 0
 338 717 373 720 405 705 c 0
 427 694 439 676 439 656 c 0
 439 647 436 637 430 627 c 0
 426 621 334 495 331 492 c 0
 330 491 330 489 310 498 c 0
 308 499 320 665 321 672 c 0
190 388 m 1
 228 426 283 450 336 450 c 0
 456 450 534 367 554 288 c 0
 560 263 559 281 560 29 c 2
 560 -202 l 1
 615 -202 l 1
 615 -250 l 1
 608 -250 l 2
 595 -247 412 -247 400 -250 c 2
 392 -250 l 1
 392 -202 l 1
 448 -202 l 1
 448 26 l 2
 447 274 448 258 442 278 c 0
 431 319 396 369 334 366 c 0
 273 366 218 346 190 292 c 1
 190 48 l 1
 246 48 l 1
 246 0 l 1
 238 0 l 2
 225 3 43 3 30 0 c 2
 23 0 l 1
 23 48 l 1
 78 48 l 1
 78 396 l 1
 23 396 l 1
 23 444 l 1
 99 444 l 2
 171 444 176 444 180 442 c 0
 193 436 190 425 190 409 c 2
 190 388 l 1
249 -97 m 0
 254 -97 278 -105 278 -151 c 0
 277 -168 274 -180 266 -196 c 0
 248 -230 211 -252 174 -250 c 0
 132 -247 94 -217 81 -156 c 0
 79 -148 79 -143 78 -115 c 0
 78 -76 75 -45 125 -34 c 0
 128 -33 146 -34 151 -35 c 0
 195 -50 190 -93 190 -110 c 0
 190 -156 194 -178 215 -178 c 0
 237 -178 237 -152 240 -122 c 0
 240 -103 241 -97 249 -97 c 0
EndSplineSet
EndChar

StartChar: uni1F95
Encoding: 8085 8085 164
Width: 605
Flags: W
HStem: -250 48<392 400 392 448 400 448 560 608 608 615> 0 48<23 30 23 78 30 78 190 238 238 246> 366 84<309.5 334> 499 28<316 320.5> 674 20G<266 289>
VStem: 181 29<575.5 603.5 575.5 636> 240 38<-151 -112.5> 448 112<-202 26 26 26>
LayerCount: 2
Fore
SplineSet
361 672 m 0
 378 717 413 720 445 705 c 0
 467 694 479 676 479 656 c 0
 479 647 476 637 470 627 c 0
 466 621 374 495 371 492 c 0
 370 491 370 489 350 498 c 0
 348 499 360 665 361 672 c 0
314 499 m 0
 238 502 181 538 181 598 c 0
 181 674 255 694 277 694 c 0
 301 694 338 680 338 633 c 0
 338 595 312 572 278 572 c 0
 241 572 221 598 216 628 c 1
 213 616 210 610 210 597 c 0
 210 554 254 530 316 527 c 0
 348 527 339 505 332 501 c 0
 328 499 327 499 314 499 c 0
190 388 m 1
 228 426 283 450 336 450 c 0
 456 450 534 367 554 288 c 0
 560 263 559 281 560 29 c 2
 560 -202 l 1
 615 -202 l 1
 615 -250 l 1
 608 -250 l 2
 595 -247 412 -247 400 -250 c 2
 392 -250 l 1
 392 -202 l 1
 448 -202 l 1
 448 26 l 2
 447 274 448 258 442 278 c 0
 431 319 396 369 334 366 c 0
 273 366 218 346 190 292 c 1
 190 48 l 1
 246 48 l 1
 246 0 l 1
 238 0 l 2
 225 3 43 3 30 0 c 2
 23 0 l 1
 23 48 l 1
 78 48 l 1
 78 396 l 1
 23 396 l 1
 23 444 l 1
 99 444 l 2
 171 444 176 444 180 442 c 0
 193 436 190 425 190 409 c 2
 190 388 l 1
249 -97 m 0
 254 -97 278 -105 278 -151 c 0
 277 -168 274 -180 266 -196 c 0
 248 -230 211 -252 174 -250 c 0
 132 -247 94 -217 81 -156 c 0
 79 -148 79 -143 78 -115 c 0
 78 -76 75 -45 125 -34 c 0
 128 -33 146 -34 151 -35 c 0
 195 -50 190 -93 190 -110 c 0
 190 -156 194 -178 215 -178 c 0
 237 -178 237 -152 240 -122 c 0
 240 -103 241 -97 249 -97 c 0
EndSplineSet
EndChar

StartChar: uni1F94
Encoding: 8084 8084 165
Width: 605
Flags: W
HStem: -250 48<392 400 392 448 400 448 560 608 608 615> 0 48<23 30 23 78 30 78 190 238 238 246> 366 84<309.5 334> 499 28<203.5 211 203.5 235> 674 20G<238 259.5>
VStem: 240 38<-151 -112.5> 317 29 448 112<-202 26 26 26>
LayerCount: 2
Fore
SplineSet
361 672 m 0
 378 717 413 720 445 705 c 0
 467 694 479 676 479 656 c 0
 479 647 476 637 470 627 c 0
 466 621 374 495 371 492 c 0
 370 491 370 489 350 498 c 0
 348 499 360 665 361 672 c 0
189 633 m 0
 189 682 227 694 249 694 c 0
 270 694 340 680 346 602 c 0
 349 525 261 499 209 499 c 0
 188 499 186 512 189 519 c 0
 192 525 196 527 211 527 c 0
 272 530 317 553 317 597 c 0
 317 609 312 624 311 628 c 1
 306 614 299 572 249 572 c 0
 215 572 189 595 189 633 c 0
190 388 m 1
 228 426 283 450 336 450 c 0
 456 450 534 367 554 288 c 0
 560 263 559 281 560 29 c 2
 560 -202 l 1
 615 -202 l 1
 615 -250 l 1
 608 -250 l 2
 595 -247 412 -247 400 -250 c 2
 392 -250 l 1
 392 -202 l 1
 448 -202 l 1
 448 26 l 2
 447 274 448 258 442 278 c 0
 431 319 396 369 334 366 c 0
 273 366 218 346 190 292 c 1
 190 48 l 1
 246 48 l 1
 246 0 l 1
 238 0 l 2
 225 3 43 3 30 0 c 2
 23 0 l 1
 23 48 l 1
 78 48 l 1
 78 396 l 1
 23 396 l 1
 23 444 l 1
 99 444 l 2
 171 444 176 444 180 442 c 0
 193 436 190 425 190 409 c 2
 190 388 l 1
249 -97 m 0
 254 -97 278 -105 278 -151 c 0
 277 -168 274 -180 266 -196 c 0
 248 -230 211 -252 174 -250 c 0
 132 -247 94 -217 81 -156 c 0
 79 -148 79 -143 78 -115 c 0
 78 -76 75 -45 125 -34 c 0
 128 -33 146 -34 151 -35 c 0
 195 -50 190 -93 190 -110 c 0
 190 -156 194 -178 215 -178 c 0
 237 -178 237 -152 240 -122 c 0
 240 -103 241 -97 249 -97 c 0
EndSplineSet
EndChar

StartChar: uni1F93
Encoding: 8083 8083 166
Width: 605
Flags: W
HStem: -250 48<392 400 392 448 400 448 560 608 608 615> 0 48<23 30 23 78 30 78 190 238 238 246> 366 84<309.5 334> 499 28<286 290.5> 674 20G<236 259>
VStem: 151 29<575.5 603.5 575.5 636> 240 38<-151 -112.5> 448 112<-202 26 26 26>
LayerCount: 2
Fore
SplineSet
325 656 m 0
 325 689 357 709 384 712 c 0
 399 715 419 709 430 696 c 0
 435 691 440 680 443 672 c 0
 444 665 456 499 454 498 c 0
 446 494 434 489 433 492 c 0
 430 495 338 621 334 627 c 0
 328 637 325 647 325 656 c 0
284 499 m 0
 208 502 151 538 151 598 c 0
 151 674 225 694 247 694 c 0
 271 694 308 680 308 633 c 0
 308 595 282 572 248 572 c 0
 211 572 191 598 186 628 c 1
 183 616 180 610 180 597 c 0
 180 554 224 530 286 527 c 0
 318 527 309 505 302 501 c 0
 298 499 297 499 284 499 c 0
190 388 m 1
 228 426 283 450 336 450 c 0
 456 450 534 367 554 288 c 0
 560 263 559 281 560 29 c 2
 560 -202 l 1
 615 -202 l 1
 615 -250 l 1
 608 -250 l 2
 595 -247 412 -247 400 -250 c 2
 392 -250 l 1
 392 -202 l 1
 448 -202 l 1
 448 26 l 2
 447 274 448 258 442 278 c 0
 431 319 396 369 334 366 c 0
 273 366 218 346 190 292 c 1
 190 48 l 1
 246 48 l 1
 246 0 l 1
 238 0 l 2
 225 3 43 3 30 0 c 2
 23 0 l 1
 23 48 l 1
 78 48 l 1
 78 396 l 1
 23 396 l 1
 23 444 l 1
 99 444 l 2
 171 444 176 444 180 442 c 0
 193 436 190 425 190 409 c 2
 190 388 l 1
249 -97 m 0
 254 -97 278 -105 278 -151 c 0
 277 -168 274 -180 266 -196 c 0
 248 -230 211 -252 174 -250 c 0
 132 -247 94 -217 81 -156 c 0
 79 -148 79 -143 78 -115 c 0
 78 -76 75 -45 125 -34 c 0
 128 -33 146 -34 151 -35 c 0
 195 -50 190 -93 190 -110 c 0
 190 -156 194 -178 215 -178 c 0
 237 -178 237 -152 240 -122 c 0
 240 -103 241 -97 249 -97 c 0
EndSplineSet
EndChar

StartChar: uni1FC6
Encoding: 8134 8134 167
Width: 605
Flags: W
HStem: -250 48<392 400 392 448 400 448 560 608 608 615> 0 48<23 30 23 78 30 78 190 238 238 246> 366 84<309.5 334> 396 48<23 78 23 99>
VStem: 137 73<551.5 560 551 576.5> 448 112<-202 26 26 26> 464 74<621 628.5 619 630>
LayerCount: 2
Fore
SplineSet
173 542 m 0xca
 137 542 137 543 137 560 c 0
 137 593 165 622 208 633 c 0
 249 641 296 639 313 637 c 0
 383 623 389 576 423 579 c 0
 441 580 461 597 464 621 c 0
 464 639 470 639 501 639 c 0
 538 639 538 638 538 619 c 0
 535 586 508 559 466 548 c 0
 445 543 442 543 407 543 c 0
 342 543 326 550 290 581 c 0
 271 598 263 603 251 602 c 0
 233 601 213 584 210 560 c 0
 210 542 204 542 173 542 c 0xca
190 388 m 1
 228 426 283 450 336 450 c 0
 456 450 534 367 554 288 c 0
 560 263 559 281 560 29 c 2
 560 -202 l 1
 615 -202 l 1
 615 -250 l 1
 608 -250 l 2
 595 -247 412 -247 400 -250 c 2
 392 -250 l 1
 392 -202 l 1
 448 -202 l 1
 448 26 l 2
 447 274 448 258 442 278 c 0
 431 319 396 369 334 366 c 0xec
 273 366 218 346 190 292 c 1
 190 48 l 1
 246 48 l 1
 246 0 l 1
 238 0 l 2
 225 3 43 3 30 0 c 2
 23 0 l 1
 23 48 l 1
 78 48 l 1
 78 396 l 1
 23 396 l 1
 23 444 l 1
 99 444 l 2xdc
 171 444 176 444 180 442 c 0
 193 436 190 425 190 409 c 2
 190 388 l 1
EndSplineSet
EndChar

StartChar: uni1F27
Encoding: 7975 7975 168
Width: 605
Flags: W
HStem: -250 48<392 400 392 448 400 448 560 608 608 615> 0 48<23 30 23 78 30 78 190 238 238 246> 366 84<309.5 334> 488 28<351 355.5> 525 68<333 339 324 351.5> 595 38<402.5 439.5> 674 20G<500 517.5>
VStem: 136 59<607 614.5 607 640.5> 285 87 448 112<-202 26 26 26>
LayerCount: 2
Fore
SplineSet
166 595 m 0
 143 595 136 596 136 612 c 0
 136 669 213 708 298 689 c 0
 373 676 380 633 425 633 c 0
 470 633 479 669 479 679 c 0
 479 685 482 689 486 692 c 0
 489 694 491 694 509 694 c 0
 526 694 528 694 531 692 c 0
 543 685 538 646 511 623 c 0
 488 605 457 595 422 595 c 0
 373 595 339 607 303 632 c 0
 272 654 266 656 250 656 c 0
 203 656 195 619 195 610 c 0
 195 604 192 600 188 597 c 0
 185 595 183 595 166 595 c 0
372 558 m 0
 372 547 366 525 337 525 c 0
 329 525 328 525 322 528 c 0
 316 531 316 531 318 528 c 0
 324 522 342 516 356 516 c 0
 376 516 373 495 365 490 c 0
 361 488 360 488 351 488 c 0
 296 492 286 525 285 538 c 0
 284 568 309 593 339 593 c 0
 346 592 372 588 372 558 c 0
190 388 m 1
 228 426 283 450 336 450 c 0
 456 450 534 367 554 288 c 0
 560 263 559 281 560 29 c 2
 560 -202 l 1
 615 -202 l 1
 615 -250 l 1
 608 -250 l 2
 595 -247 412 -247 400 -250 c 2
 392 -250 l 1
 392 -202 l 1
 448 -202 l 1
 448 26 l 2
 447 274 448 258 442 278 c 0
 431 319 396 369 334 366 c 0
 273 366 218 346 190 292 c 1
 190 48 l 1
 246 48 l 1
 246 0 l 1
 238 0 l 2
 225 3 43 3 30 0 c 2
 23 0 l 1
 23 48 l 1
 78 48 l 1
 78 396 l 1
 23 396 l 1
 23 444 l 1
 99 444 l 2
 171 444 176 444 180 442 c 0
 193 436 190 425 190 409 c 2
 190 388 l 1
EndSplineSet
EndChar

StartChar: uni1F26
Encoding: 7974 7974 169
Width: 605
Flags: W
HStem: -250 48<392 400 392 448 400 448 560 608 608 615> 0 48<23 30 23 78 30 78 190 238 238 246> 366 84<309.5 334> 488 28<315.5 325> 525 67<327.5 342> 595 38<402.5 439.5> 674 20G<500 517.5>
VStem: 136 59<607 614.5 607 640.5> 448 112<-202 26 26 26>
LayerCount: 2
Fore
SplineSet
166 595 m 0
 143 595 136 596 136 612 c 0
 136 669 213 708 298 689 c 0
 373 676 380 633 425 633 c 0
 470 633 479 669 479 679 c 0
 479 685 482 689 486 692 c 0
 489 694 491 694 509 694 c 0
 526 694 528 694 531 692 c 0
 543 685 538 646 511 623 c 0
 488 605 457 595 422 595 c 0
 373 595 339 607 303 632 c 0
 272 654 266 656 250 656 c 0
 203 656 195 619 195 610 c 0
 195 604 192 600 188 597 c 0
 185 595 183 595 166 595 c 0
303 559 m 0
 303 576 317 592 338 592 c 0
 378 592 402 548 383 517 c 0
 374 501 351 490 325 488 c 0
 302 488 301 501 304 508 c 0
 307 513 312 516 319 516 c 0
 333 516 351 522 357 528 c 0
 359 531 359 531 353 528 c 0
 347 525 346 525 338 525 c 0
 309 525 303 547 303 559 c 0
190 388 m 1
 228 426 283 450 336 450 c 0
 456 450 534 367 554 288 c 0
 560 263 559 281 560 29 c 2
 560 -202 l 1
 615 -202 l 1
 615 -250 l 1
 608 -250 l 2
 595 -247 412 -247 400 -250 c 2
 392 -250 l 1
 392 -202 l 1
 448 -202 l 1
 448 26 l 2
 447 274 448 258 442 278 c 0
 431 319 396 369 334 366 c 0
 273 366 218 346 190 292 c 1
 190 48 l 1
 246 48 l 1
 246 0 l 1
 238 0 l 2
 225 3 43 3 30 0 c 2
 23 0 l 1
 23 48 l 1
 78 48 l 1
 78 396 l 1
 23 396 l 1
 23 444 l 1
 99 444 l 2
 171 444 176 444 180 442 c 0
 193 436 190 425 190 409 c 2
 190 388 l 1
EndSplineSet
EndChar

StartChar: uni1F22
Encoding: 7970 7970 170
Width: 605
Flags: W
HStem: -250 48<392 400 392 448 400 448 560 608 608 615> 0 48<23 30 23 78 30 78 190 238 238 246> 366 84<309.5 334> 499 28<176.5 184 176.5 208> 674 20G<211 232.5>
VStem: 290 29 448 112<-202 26 26 26>
LayerCount: 2
Fore
SplineSet
325 656 m 0
 325 689 357 709 384 712 c 0
 399 715 419 709 430 696 c 0
 435 691 440 680 443 672 c 0
 444 665 456 499 454 498 c 0
 446 494 434 489 433 492 c 0
 430 495 338 621 334 627 c 0
 328 637 325 647 325 656 c 0
162 633 m 0
 162 682 200 694 222 694 c 0
 243 694 313 680 319 602 c 0
 322 525 234 499 182 499 c 0
 161 499 159 512 162 519 c 0
 165 525 169 527 184 527 c 0
 245 530 290 553 290 597 c 0
 290 609 285 624 284 628 c 1
 279 614 272 572 222 572 c 0
 188 572 162 595 162 633 c 0
190 388 m 1
 228 426 283 450 336 450 c 0
 456 450 534 367 554 288 c 0
 560 263 559 281 560 29 c 2
 560 -202 l 1
 615 -202 l 1
 615 -250 l 1
 608 -250 l 2
 595 -247 412 -247 400 -250 c 2
 392 -250 l 1
 392 -202 l 1
 448 -202 l 1
 448 26 l 2
 447 274 448 258 442 278 c 0
 431 319 396 369 334 366 c 0
 273 366 218 346 190 292 c 1
 190 48 l 1
 246 48 l 1
 246 0 l 1
 238 0 l 2
 225 3 43 3 30 0 c 2
 23 0 l 1
 23 48 l 1
 78 48 l 1
 78 396 l 1
 23 396 l 1
 23 444 l 1
 99 444 l 2
 171 444 176 444 180 442 c 0
 193 436 190 425 190 409 c 2
 190 388 l 1
EndSplineSet
EndChar

StartChar: uni1FC7
Encoding: 8135 8135 171
Width: 605
Flags: W
HStem: -250 48<392 400 392 448 400 448 560 608 608 615> 0 48<23 30 23 78 30 78 190 238 238 246> 366 84<309.5 334> 396 48<23 78 23 99>
VStem: 137 73<551.5 560 551 576.5> 240 38<-151 -112.5> 448 112<-202 26 26 26> 464 74<621 628.5 619 630>
LayerCount: 2
Fore
SplineSet
173 542 m 0xcd
 137 542 137 543 137 560 c 0
 137 593 165 622 208 633 c 0
 249 641 296 639 313 637 c 0
 383 623 389 576 423 579 c 0
 441 580 461 597 464 621 c 0
 464 639 470 639 501 639 c 0
 538 639 538 638 538 619 c 0
 535 586 508 559 466 548 c 0
 445 543 442 543 407 543 c 0
 342 543 326 550 290 581 c 0
 271 598 263 603 251 602 c 0
 233 601 213 584 210 560 c 0
 210 542 204 542 173 542 c 0xcd
190 388 m 1
 228 426 283 450 336 450 c 0
 456 450 534 367 554 288 c 0
 560 263 559 281 560 29 c 2
 560 -202 l 1
 615 -202 l 1
 615 -250 l 1
 608 -250 l 2
 595 -247 412 -247 400 -250 c 2
 392 -250 l 1
 392 -202 l 1
 448 -202 l 1
 448 26 l 2
 447 274 448 258 442 278 c 0
 431 319 396 369 334 366 c 0xee
 273 366 218 346 190 292 c 1
 190 48 l 1
 246 48 l 1
 246 0 l 1
 238 0 l 2
 225 3 43 3 30 0 c 2
 23 0 l 1
 23 48 l 1
 78 48 l 1
 78 396 l 1
 23 396 l 1
 23 444 l 1
 99 444 l 2xde
 171 444 176 444 180 442 c 0
 193 436 190 425 190 409 c 2
 190 388 l 1
249 -97 m 0
 254 -97 278 -105 278 -151 c 0
 277 -168 274 -180 266 -196 c 0
 248 -230 211 -252 174 -250 c 0
 132 -247 94 -217 81 -156 c 0
 79 -148 79 -143 78 -115 c 0
 78 -76 75 -45 125 -34 c 0
 128 -33 146 -34 151 -35 c 0
 195 -50 190 -93 190 -110 c 0
 190 -156 194 -178 215 -178 c 0
 237 -178 237 -152 240 -122 c 0
 240 -103 241 -97 249 -97 c 0
EndSplineSet
EndChar

StartChar: uni1F97
Encoding: 8087 8087 172
Width: 605
Flags: W
HStem: -250 48<392 400 392 448 400 448 560 608 608 615> 0 48<23 30 23 78 30 78 190 238 238 246> 366 84<309.5 334> 488 28<351 355.5> 525 68<333 339 324 351.5> 595 38<402.5 439.5> 674 20G<500 517.5>
VStem: 136 59<607 614.5 607 640.5> 240 38<-151 -112.5> 285 87 448 112<-202 26 26 26>
LayerCount: 2
Fore
SplineSet
166 595 m 0
 143 595 136 596 136 612 c 0
 136 669 213 708 298 689 c 0
 373 676 380 633 425 633 c 0
 470 633 479 669 479 679 c 0
 479 685 482 689 486 692 c 0
 489 694 491 694 509 694 c 0
 526 694 528 694 531 692 c 0
 543 685 538 646 511 623 c 0
 488 605 457 595 422 595 c 0
 373 595 339 607 303 632 c 0
 272 654 266 656 250 656 c 0
 203 656 195 619 195 610 c 0
 195 604 192 600 188 597 c 0
 185 595 183 595 166 595 c 0
372 558 m 0
 372 547 366 525 337 525 c 0
 329 525 328 525 322 528 c 0
 316 531 316 531 318 528 c 0
 324 522 342 516 356 516 c 0
 376 516 373 495 365 490 c 0
 361 488 360 488 351 488 c 0
 296 492 286 525 285 538 c 0
 284 568 309 593 339 593 c 0
 346 592 372 588 372 558 c 0
190 388 m 1
 228 426 283 450 336 450 c 0
 456 450 534 367 554 288 c 0
 560 263 559 281 560 29 c 2
 560 -202 l 1
 615 -202 l 1
 615 -250 l 1
 608 -250 l 2
 595 -247 412 -247 400 -250 c 2
 392 -250 l 1
 392 -202 l 1
 448 -202 l 1
 448 26 l 2
 447 274 448 258 442 278 c 0
 431 319 396 369 334 366 c 0
 273 366 218 346 190 292 c 1
 190 48 l 1
 246 48 l 1
 246 0 l 1
 238 0 l 2
 225 3 43 3 30 0 c 2
 23 0 l 1
 23 48 l 1
 78 48 l 1
 78 396 l 1
 23 396 l 1
 23 444 l 1
 99 444 l 2
 171 444 176 444 180 442 c 0
 193 436 190 425 190 409 c 2
 190 388 l 1
249 -97 m 0
 254 -97 278 -105 278 -151 c 0
 277 -168 274 -180 266 -196 c 0
 248 -230 211 -252 174 -250 c 0
 132 -247 94 -217 81 -156 c 0
 79 -148 79 -143 78 -115 c 0
 78 -76 75 -45 125 -34 c 0
 128 -33 146 -34 151 -35 c 0
 195 -50 190 -93 190 -110 c 0
 190 -156 194 -178 215 -178 c 0
 237 -178 237 -152 240 -122 c 0
 240 -103 241 -97 249 -97 c 0
EndSplineSet
EndChar

StartChar: uni1F96
Encoding: 8086 8086 173
Width: 605
Flags: W
HStem: -250 48<392 400 392 448 400 448 560 608 608 615> 0 48<23 30 23 78 30 78 190 238 238 246> 366 84<309.5 334> 488 28<315.5 325> 525 67<327.5 342> 595 38<402.5 439.5> 674 20G<500 517.5>
VStem: 136 59<607 614.5 607 640.5> 240 38<-151 -112.5> 448 112<-202 26 26 26>
LayerCount: 2
Fore
SplineSet
166 595 m 0
 143 595 136 596 136 612 c 0
 136 669 213 708 298 689 c 0
 373 676 380 633 425 633 c 0
 470 633 479 669 479 679 c 0
 479 685 482 689 486 692 c 0
 489 694 491 694 509 694 c 0
 526 694 528 694 531 692 c 0
 543 685 538 646 511 623 c 0
 488 605 457 595 422 595 c 0
 373 595 339 607 303 632 c 0
 272 654 266 656 250 656 c 0
 203 656 195 619 195 610 c 0
 195 604 192 600 188 597 c 0
 185 595 183 595 166 595 c 0
303 559 m 0
 303 576 317 592 338 592 c 0
 378 592 402 548 383 517 c 0
 374 501 351 490 325 488 c 0
 302 488 301 501 304 508 c 0
 307 513 312 516 319 516 c 0
 333 516 351 522 357 528 c 0
 359 531 359 531 353 528 c 0
 347 525 346 525 338 525 c 0
 309 525 303 547 303 559 c 0
190 388 m 1
 228 426 283 450 336 450 c 0
 456 450 534 367 554 288 c 0
 560 263 559 281 560 29 c 2
 560 -202 l 1
 615 -202 l 1
 615 -250 l 1
 608 -250 l 2
 595 -247 412 -247 400 -250 c 2
 392 -250 l 1
 392 -202 l 1
 448 -202 l 1
 448 26 l 2
 447 274 448 258 442 278 c 0
 431 319 396 369 334 366 c 0
 273 366 218 346 190 292 c 1
 190 48 l 1
 246 48 l 1
 246 0 l 1
 238 0 l 2
 225 3 43 3 30 0 c 2
 23 0 l 1
 23 48 l 1
 78 48 l 1
 78 396 l 1
 23 396 l 1
 23 444 l 1
 99 444 l 2
 171 444 176 444 180 442 c 0
 193 436 190 425 190 409 c 2
 190 388 l 1
249 -97 m 0
 254 -97 278 -105 278 -151 c 0
 277 -168 274 -180 266 -196 c 0
 248 -230 211 -252 174 -250 c 0
 132 -247 94 -217 81 -156 c 0
 79 -148 79 -143 78 -115 c 0
 78 -76 75 -45 125 -34 c 0
 128 -33 146 -34 151 -35 c 0
 195 -50 190 -93 190 -110 c 0
 190 -156 194 -178 215 -178 c 0
 237 -178 237 -152 240 -122 c 0
 240 -103 241 -97 249 -97 c 0
EndSplineSet
EndChar

StartChar: uni1F92
Encoding: 8082 8082 174
Width: 605
Flags: W
HStem: -250 48<392 400 392 448 400 448 560 608 608 615> 0 48<23 30 23 78 30 78 190 238 238 246> 366 84<309.5 334> 499 28<176.5 184 176.5 208> 674 20G<211 232.5>
VStem: 240 38<-151 -112.5> 290 29 448 112<-202 26 26 26>
LayerCount: 2
Fore
SplineSet
325 656 m 0
 325 689 357 709 384 712 c 0
 399 715 419 709 430 696 c 0
 435 691 440 680 443 672 c 0
 444 665 456 499 454 498 c 0
 446 494 434 489 433 492 c 0
 430 495 338 621 334 627 c 0
 328 637 325 647 325 656 c 0
162 633 m 0
 162 682 200 694 222 694 c 0
 243 694 313 680 319 602 c 0
 322 525 234 499 182 499 c 0
 161 499 159 512 162 519 c 0
 165 525 169 527 184 527 c 0
 245 530 290 553 290 597 c 0
 290 609 285 624 284 628 c 1
 279 614 272 572 222 572 c 0
 188 572 162 595 162 633 c 0
190 388 m 1
 228 426 283 450 336 450 c 0
 456 450 534 367 554 288 c 0
 560 263 559 281 560 29 c 2
 560 -202 l 1
 615 -202 l 1
 615 -250 l 1
 608 -250 l 2
 595 -247 412 -247 400 -250 c 2
 392 -250 l 1
 392 -202 l 1
 448 -202 l 1
 448 26 l 2
 447 274 448 258 442 278 c 0
 431 319 396 369 334 366 c 0
 273 366 218 346 190 292 c 1
 190 48 l 1
 246 48 l 1
 246 0 l 1
 238 0 l 2
 225 3 43 3 30 0 c 2
 23 0 l 1
 23 48 l 1
 78 48 l 1
 78 396 l 1
 23 396 l 1
 23 444 l 1
 99 444 l 2
 171 444 176 444 180 442 c 0
 193 436 190 425 190 409 c 2
 190 388 l 1
249 -97 m 0
 254 -97 278 -105 278 -151 c 0
 277 -168 274 -180 266 -196 c 0
 248 -230 211 -252 174 -250 c 0
 132 -247 94 -217 81 -156 c 0
 79 -148 79 -143 78 -115 c 0
 78 -76 75 -45 125 -34 c 0
 128 -33 146 -34 151 -35 c 0
 195 -50 190 -93 190 -110 c 0
 190 -156 194 -178 215 -178 c 0
 237 -178 237 -152 240 -122 c 0
 240 -103 241 -97 249 -97 c 0
EndSplineSet
EndChar

StartChar: uni1F7C
Encoding: 8060 8060 175
Width: 806
Flags: MW
HStem: 396 53<532 535>
VStem: 34 112<155 244.5 155 249.5> 403 55<148 159 159 159> 659 112<157 237>
LayerCount: 2
Fore
SplineSet
301 657 m 0
 301 692 342 719 381 711 c 0
 400 706 414 690 419 669 c 0
 420 663 430 513 430 502 c 2
 430 498 l 1
 409 490 l 1
 360 557 l 2
 308 630 301 635 301 657 c 0
771 221 m 0
 771 93 690 -10 579 -6 c 0
 484 -1 408 65 403 148 c 1
 403 159 l 1
 402 148 l 2
 397 64 321 -1 226 -6 c 0
 122 -9 34 85 34 221 c 0
 34 278 52 326 90 369 c 0
 140 425 212 450 271 450 c 0
 282 449 301 448 301 423 c 0
 301 412 296 396 270 396 c 0
 161 387 146 263 146 226 c 0
 146 84 202 49 246 49 c 0
 288 49 330 73 345 129 c 2
 347 139 l 1
 347 267 l 2
 347 311 347 314 353 325 c 0
 363 344 387 356 410 352 c 0
 434 349 451 335 456 313 c 0
 458 308 458 301 458 267 c 2
 458 139 l 1
 460 129 l 1
 476 73 519 49 559 49 c 0
 603 49 659 84 659 226 c 0
 659 248 656 297 626 341 c 0
 604 375 573 393 535 396 c 0
 509 396 504 411 504 423 c 0
 504 432 509 442 519 448 c 0
 522 449 525 449 539 449 c 0
 604 449 671 418 715 369 c 0
 753 326 771 278 771 221 c 0
EndSplineSet
EndChar

StartChar: uni1F61
Encoding: 8033 8033 176
Width: 806
Flags: MW
HStem: 396 53<532 535> 499 28<441 445.5> 674 20G<391 414>
VStem: 34 112<155 244.5 155 249.5> 306 29<575.5 603.5 575.5 636> 403 55<148 159 159 159> 659 112<157 237>
LayerCount: 2
Fore
SplineSet
439 499 m 0
 363 502 306 538 306 598 c 0
 306 674 380 694 402 694 c 0
 426 694 463 680 463 633 c 0
 463 595 437 572 403 572 c 0
 376 572 349 587 341 628 c 1
 338 616 335 610 335 597 c 0
 335 554 379 530 441 527 c 0
 473 527 464 505 457 501 c 0
 453 499 452 499 439 499 c 0
771 221 m 0
 771 93 690 -10 579 -6 c 0
 484 -1 408 65 403 148 c 1
 403 159 l 1
 402 148 l 2
 397 64 321 -1 226 -6 c 0
 122 -9 34 85 34 221 c 0
 34 278 52 326 90 369 c 0
 140 425 212 450 271 450 c 0
 282 449 301 448 301 423 c 0
 301 412 296 396 270 396 c 0
 161 387 146 263 146 226 c 0
 146 84 202 49 246 49 c 0
 288 49 330 73 345 129 c 2
 347 139 l 1
 347 267 l 2
 347 311 347 314 353 325 c 0
 363 344 387 356 410 352 c 0
 434 349 451 335 456 313 c 0
 458 308 458 301 458 267 c 2
 458 139 l 1
 460 129 l 1
 476 73 519 49 559 49 c 0
 603 49 659 84 659 226 c 0
 659 248 656 297 626 341 c 0
 604 375 573 393 535 396 c 0
 509 396 504 411 504 423 c 0
 504 432 509 442 519 448 c 0
 522 449 525 449 539 449 c 0
 604 449 671 418 715 369 c 0
 753 326 771 278 771 221 c 0
EndSplineSet
EndChar

StartChar: uni1F60
Encoding: 8032 8032 177
Width: 806
Flags: MW
HStem: 396 53<532 535> 499 28<357.5 365 357.5 389> 674 20G<392 413.5>
VStem: 34 112<155 244.5 155 249.5> 403 55<148 159 159 159> 471 29 659 112<157 237>
LayerCount: 2
Fore
SplineSet
343 633 m 0
 343 682 381 694 403 694 c 0
 424 694 494 680 500 602 c 0
 503 525 415 499 363 499 c 0
 342 499 340 512 343 519 c 0
 346 525 350 527 365 527 c 0
 426 530 471 553 471 597 c 0
 471 609 466 624 465 628 c 1
 460 614 453 572 403 572 c 0
 369 572 343 595 343 633 c 0
771 221 m 0
 771 93 690 -10 579 -6 c 0
 484 -1 408 65 403 148 c 1
 403 159 l 1
 402 148 l 2
 397 64 321 -1 226 -6 c 0
 122 -9 34 85 34 221 c 0
 34 278 52 326 90 369 c 0
 140 425 212 450 271 450 c 0
 282 449 301 448 301 423 c 0
 301 412 296 396 270 396 c 0
 161 387 146 263 146 226 c 0
 146 84 202 49 246 49 c 0
 288 49 330 73 345 129 c 2
 347 139 l 1
 347 267 l 2
 347 311 347 314 353 325 c 0
 363 344 387 356 410 352 c 0
 434 349 451 335 456 313 c 0
 458 308 458 301 458 267 c 2
 458 139 l 1
 460 129 l 1
 476 73 519 49 559 49 c 0
 603 49 659 84 659 226 c 0
 659 248 656 297 626 341 c 0
 604 375 573 393 535 396 c 0
 509 396 504 411 504 423 c 0
 504 432 509 442 519 448 c 0
 522 449 525 449 539 449 c 0
 604 449 671 418 715 369 c 0
 753 326 771 278 771 221 c 0
EndSplineSet
EndChar

StartChar: uni1F63
Encoding: 8035 8035 178
Width: 806
Flags: MW
HStem: 396 53<532 535> 499 28<352 356.5> 674 20G<302 325>
VStem: 34 112<155 244.5 155 249.5> 217 29<575.5 603.5 575.5 636> 403 55<148 159 159 159> 659 112<157 237>
LayerCount: 2
Fore
SplineSet
391 657 m 0
 391 692 432 719 471 711 c 0
 490 706 504 690 509 669 c 0
 510 663 520 513 520 502 c 2
 520 498 l 1
 499 490 l 1
 450 557 l 2
 398 630 391 635 391 657 c 0
350 499 m 0
 274 502 217 538 217 598 c 0
 217 674 291 694 313 694 c 0
 337 694 374 680 374 633 c 0
 374 595 348 572 314 572 c 0
 287 572 260 587 252 628 c 1
 249 616 246 610 246 597 c 0
 246 554 290 530 352 527 c 0
 384 527 375 505 368 501 c 0
 364 499 363 499 350 499 c 0
771 221 m 0
 771 93 690 -10 579 -6 c 0
 484 -1 408 65 403 148 c 1
 403 159 l 1
 402 148 l 2
 397 64 321 -1 226 -6 c 0
 122 -9 34 85 34 221 c 0
 34 278 52 326 90 369 c 0
 140 425 212 450 271 450 c 0
 282 449 301 448 301 423 c 0
 301 412 296 396 270 396 c 0
 161 387 146 263 146 226 c 0
 146 84 202 49 246 49 c 0
 288 49 330 73 345 129 c 2
 347 139 l 1
 347 267 l 2
 347 311 347 314 353 325 c 0
 363 344 387 356 410 352 c 0
 434 349 451 335 456 313 c 0
 458 308 458 301 458 267 c 2
 458 139 l 1
 460 129 l 1
 476 73 519 49 559 49 c 0
 603 49 659 84 659 226 c 0
 659 248 656 297 626 341 c 0
 604 375 573 393 535 396 c 0
 509 396 504 411 504 423 c 0
 504 432 509 442 519 448 c 0
 522 449 525 449 539 449 c 0
 604 449 671 418 715 369 c 0
 753 326 771 278 771 221 c 0
EndSplineSet
EndChar

StartChar: uni1FF2
Encoding: 8178 8178 179
Width: 806
Flags: MW
HStem: 396 53<532 535>
VStem: 34 112<155 244.5 155 249.5> 403 55<148 159 159 159> 509 38<-151 -112.5> 659 112<157 237>
LayerCount: 2
Fore
SplineSet
301 657 m 0
 301 692 342 719 381 711 c 0
 400 706 414 690 419 669 c 0
 420 663 430 513 430 502 c 2
 430 498 l 1
 409 490 l 1
 360 557 l 2
 308 630 301 635 301 657 c 0
771 221 m 0
 771 93 690 -10 579 -6 c 0
 484 -1 408 65 403 148 c 1
 403 159 l 1
 402 148 l 2
 397 64 321 -1 226 -6 c 0
 122 -9 34 85 34 221 c 0
 34 278 52 326 90 369 c 0
 140 425 212 450 271 450 c 0
 282 449 301 448 301 423 c 0
 301 412 296 396 270 396 c 0
 161 387 146 263 146 226 c 0
 146 84 202 49 246 49 c 0
 288 49 330 73 345 129 c 2
 347 139 l 1
 347 267 l 2
 347 311 347 314 353 325 c 0
 363 344 387 356 410 352 c 0
 434 349 451 335 456 313 c 0
 458 308 458 301 458 267 c 2
 458 139 l 1
 460 129 l 1
 476 73 519 49 559 49 c 0
 603 49 659 84 659 226 c 0
 659 248 656 297 626 341 c 0
 604 375 573 393 535 396 c 0
 509 396 504 411 504 423 c 0
 504 432 509 442 519 448 c 0
 522 449 525 449 539 449 c 0
 604 449 671 418 715 369 c 0
 753 326 771 278 771 221 c 0
518 -97 m 0
 523 -97 547 -105 547 -151 c 0
 546 -168 543 -180 535 -196 c 0
 517 -230 480 -252 443 -250 c 0
 401 -247 363 -217 350 -156 c 0
 348 -148 348 -143 347 -115 c 0
 347 -76 344 -45 394 -34 c 0
 397 -33 415 -34 420 -35 c 0
 464 -50 459 -93 459 -110 c 0
 459 -156 463 -178 484 -178 c 0
 506 -178 506 -152 509 -122 c 0
 509 -103 510 -97 518 -97 c 0
EndSplineSet
EndChar

StartChar: uni1FA1
Encoding: 8097 8097 180
Width: 806
Flags: MW
HStem: 396 53<532 535> 499 28<441 445.5> 674 20G<391 414>
VStem: 34 112<155 244.5 155 249.5> 306 29<575.5 603.5 575.5 636> 403 55<148 159 159 159> 509 38<-151 -112.5> 659 112<157 237>
LayerCount: 2
Fore
SplineSet
439 499 m 0
 363 502 306 538 306 598 c 0
 306 674 380 694 402 694 c 0
 426 694 463 680 463 633 c 0
 463 595 437 572 403 572 c 0
 376 572 349 587 341 628 c 1
 338 616 335 610 335 597 c 0
 335 554 379 530 441 527 c 0
 473 527 464 505 457 501 c 0
 453 499 452 499 439 499 c 0
771 221 m 0
 771 93 690 -10 579 -6 c 0
 484 -1 408 65 403 148 c 1
 403 159 l 1
 402 148 l 2
 397 64 321 -1 226 -6 c 0
 122 -9 34 85 34 221 c 0
 34 278 52 326 90 369 c 0
 140 425 212 450 271 450 c 0
 282 449 301 448 301 423 c 0
 301 412 296 396 270 396 c 0
 161 387 146 263 146 226 c 0
 146 84 202 49 246 49 c 0
 288 49 330 73 345 129 c 2
 347 139 l 1
 347 267 l 2
 347 311 347 314 353 325 c 0
 363 344 387 356 410 352 c 0
 434 349 451 335 456 313 c 0
 458 308 458 301 458 267 c 2
 458 139 l 1
 460 129 l 1
 476 73 519 49 559 49 c 0
 603 49 659 84 659 226 c 0
 659 248 656 297 626 341 c 0
 604 375 573 393 535 396 c 0
 509 396 504 411 504 423 c 0
 504 432 509 442 519 448 c 0
 522 449 525 449 539 449 c 0
 604 449 671 418 715 369 c 0
 753 326 771 278 771 221 c 0
518 -97 m 0
 523 -97 547 -105 547 -151 c 0
 546 -168 543 -180 535 -196 c 0
 517 -230 480 -252 443 -250 c 0
 401 -247 363 -217 350 -156 c 0
 348 -148 348 -143 347 -115 c 0
 347 -76 344 -45 394 -34 c 0
 397 -33 415 -34 420 -35 c 0
 464 -50 459 -93 459 -110 c 0
 459 -156 463 -178 484 -178 c 0
 506 -178 506 -152 509 -122 c 0
 509 -103 510 -97 518 -97 c 0
EndSplineSet
EndChar

StartChar: uni1FA0
Encoding: 8096 8096 181
Width: 806
Flags: MW
HStem: 396 53<532 535> 499 28<357.5 365 357.5 389> 674 20G<392 413.5>
VStem: 34 112<155 244.5 155 249.5> 403 55<148 159 159 159> 471 29 509 38<-151 -112.5> 659 112<157 237>
LayerCount: 2
Fore
SplineSet
343 633 m 0
 343 682 381 694 403 694 c 0
 424 694 494 680 500 602 c 0
 503 525 415 499 363 499 c 0
 342 499 340 512 343 519 c 0
 346 525 350 527 365 527 c 0
 426 530 471 553 471 597 c 0
 471 609 466 624 465 628 c 1
 460 614 453 572 403 572 c 0
 369 572 343 595 343 633 c 0
771 221 m 0
 771 93 690 -10 579 -6 c 0
 484 -1 408 65 403 148 c 1
 403 159 l 1
 402 148 l 2
 397 64 321 -1 226 -6 c 0
 122 -9 34 85 34 221 c 0
 34 278 52 326 90 369 c 0
 140 425 212 450 271 450 c 0
 282 449 301 448 301 423 c 0
 301 412 296 396 270 396 c 0
 161 387 146 263 146 226 c 0
 146 84 202 49 246 49 c 0
 288 49 330 73 345 129 c 2
 347 139 l 1
 347 267 l 2
 347 311 347 314 353 325 c 0
 363 344 387 356 410 352 c 0
 434 349 451 335 456 313 c 0
 458 308 458 301 458 267 c 2
 458 139 l 1
 460 129 l 1
 476 73 519 49 559 49 c 0
 603 49 659 84 659 226 c 0
 659 248 656 297 626 341 c 0
 604 375 573 393 535 396 c 0
 509 396 504 411 504 423 c 0
 504 432 509 442 519 448 c 0
 522 449 525 449 539 449 c 0
 604 449 671 418 715 369 c 0
 753 326 771 278 771 221 c 0
518 -97 m 0
 523 -97 547 -105 547 -151 c 0
 546 -168 543 -180 535 -196 c 0
 517 -230 480 -252 443 -250 c 0
 401 -247 363 -217 350 -156 c 0
 348 -148 348 -143 347 -115 c 0
 347 -76 344 -45 394 -34 c 0
 397 -33 415 -34 420 -35 c 0
 464 -50 459 -93 459 -110 c 0
 459 -156 463 -178 484 -178 c 0
 506 -178 506 -152 509 -122 c 0
 509 -103 510 -97 518 -97 c 0
EndSplineSet
EndChar

StartChar: uni1FA3
Encoding: 8099 8099 182
Width: 806
Flags: MW
HStem: 396 53<532 535> 499 28<352 356.5> 674 20G<302 325>
VStem: 34 112<155 244.5 155 249.5> 217 29<575.5 603.5 575.5 636> 403 55<148 159 159 159> 509 38<-151 -112.5> 659 112<157 237>
LayerCount: 2
Fore
SplineSet
391 657 m 0
 391 692 432 719 471 711 c 0
 490 706 504 690 509 669 c 0
 510 663 520 513 520 502 c 2
 520 498 l 1
 499 490 l 1
 450 557 l 2
 398 630 391 635 391 657 c 0
350 499 m 0
 274 502 217 538 217 598 c 0
 217 674 291 694 313 694 c 0
 337 694 374 680 374 633 c 0
 374 595 348 572 314 572 c 0
 287 572 260 587 252 628 c 1
 249 616 246 610 246 597 c 0
 246 554 290 530 352 527 c 0
 384 527 375 505 368 501 c 0
 364 499 363 499 350 499 c 0
771 221 m 0
 771 93 690 -10 579 -6 c 0
 484 -1 408 65 403 148 c 1
 403 159 l 1
 402 148 l 2
 397 64 321 -1 226 -6 c 0
 122 -9 34 85 34 221 c 0
 34 278 52 326 90 369 c 0
 140 425 212 450 271 450 c 0
 282 449 301 448 301 423 c 0
 301 412 296 396 270 396 c 0
 161 387 146 263 146 226 c 0
 146 84 202 49 246 49 c 0
 288 49 330 73 345 129 c 2
 347 139 l 1
 347 267 l 2
 347 311 347 314 353 325 c 0
 363 344 387 356 410 352 c 0
 434 349 451 335 456 313 c 0
 458 308 458 301 458 267 c 2
 458 139 l 1
 460 129 l 1
 476 73 519 49 559 49 c 0
 603 49 659 84 659 226 c 0
 659 248 656 297 626 341 c 0
 604 375 573 393 535 396 c 0
 509 396 504 411 504 423 c 0
 504 432 509 442 519 448 c 0
 522 449 525 449 539 449 c 0
 604 449 671 418 715 369 c 0
 753 326 771 278 771 221 c 0
518 -97 m 0
 523 -97 547 -105 547 -151 c 0
 546 -168 543 -180 535 -196 c 0
 517 -230 480 -252 443 -250 c 0
 401 -247 363 -217 350 -156 c 0
 348 -148 348 -143 347 -115 c 0
 347 -76 344 -45 394 -34 c 0
 397 -33 415 -34 420 -35 c 0
 464 -50 459 -93 459 -110 c 0
 459 -156 463 -178 484 -178 c 0
 506 -178 506 -152 509 -122 c 0
 509 -103 510 -97 518 -97 c 0
EndSplineSet
EndChar

StartChar: omegatonos
Encoding: 974 974 183
Width: 806
Flags: MW
HStem: 396 53<532 535>
VStem: 34 112<155 244.5 155 249.5> 403 55<148 159 159 159> 659 112<157 237>
LayerCount: 2
Fore
SplineSet
386 669 m 0
 396 716 453 728 490 691 c 0
 499 680 504 669 504 657 c 0
 504 636 497 630 445 557 c 2
 396 490 l 1
 375 498 l 1
 375 502 l 2
 375 513 385 663 386 669 c 0
771 221 m 0
 771 93 690 -10 579 -6 c 0
 484 -1 408 65 403 148 c 1
 403 159 l 1
 402 148 l 2
 397 64 321 -1 226 -6 c 0
 122 -9 34 85 34 221 c 0
 34 278 52 326 90 369 c 0
 140 425 212 450 271 450 c 0
 282 449 301 448 301 423 c 0
 301 412 296 396 270 396 c 0
 161 387 146 263 146 226 c 0
 146 84 202 49 246 49 c 0
 288 49 330 73 345 129 c 2
 347 139 l 1
 347 267 l 2
 347 311 347 314 353 325 c 0
 363 344 387 356 410 352 c 0
 434 349 451 335 456 313 c 0
 458 308 458 301 458 267 c 2
 458 139 l 1
 460 129 l 1
 476 73 519 49 559 49 c 0
 603 49 659 84 659 226 c 0
 659 248 656 297 626 341 c 0
 604 375 573 393 535 396 c 0
 509 396 504 411 504 423 c 0
 504 432 509 442 519 448 c 0
 522 449 525 449 539 449 c 0
 604 449 671 418 715 369 c 0
 753 326 771 278 771 221 c 0
EndSplineSet
EndChar

StartChar: uni1F65
Encoding: 8037 8037 184
Width: 806
Flags: MW
HStem: 396 53<532 535> 499 28<382 386.5> 674 20G<332 355>
VStem: 34 112<155 244.5 155 249.5> 247 29<575.5 603.5 575.5 636> 403 55<148 159 159 159> 659 112<157 237>
LayerCount: 2
Fore
SplineSet
426 669 m 0
 436 716 493 728 530 691 c 0
 539 680 544 669 544 657 c 0
 544 636 537 630 485 557 c 2
 436 490 l 1
 415 498 l 1
 415 502 l 2
 415 513 425 663 426 669 c 0
380 499 m 0
 304 502 247 538 247 598 c 0
 247 674 321 694 343 694 c 0
 367 694 404 680 404 633 c 0
 404 595 378 572 344 572 c 0
 317 572 290 587 282 628 c 1
 279 616 276 610 276 597 c 0
 276 554 320 530 382 527 c 0
 414 527 405 505 398 501 c 0
 394 499 393 499 380 499 c 0
771 221 m 0
 771 93 690 -10 579 -6 c 0
 484 -1 408 65 403 148 c 1
 403 159 l 1
 402 148 l 2
 397 64 321 -1 226 -6 c 0
 122 -9 34 85 34 221 c 0
 34 278 52 326 90 369 c 0
 140 425 212 450 271 450 c 0
 282 449 301 448 301 423 c 0
 301 412 296 396 270 396 c 0
 161 387 146 263 146 226 c 0
 146 84 202 49 246 49 c 0
 288 49 330 73 345 129 c 2
 347 139 l 1
 347 267 l 2
 347 311 347 314 353 325 c 0
 363 344 387 356 410 352 c 0
 434 349 451 335 456 313 c 0
 458 308 458 301 458 267 c 2
 458 139 l 1
 460 129 l 1
 476 73 519 49 559 49 c 0
 603 49 659 84 659 226 c 0
 659 248 656 297 626 341 c 0
 604 375 573 393 535 396 c 0
 509 396 504 411 504 423 c 0
 504 432 509 442 519 448 c 0
 522 449 525 449 539 449 c 0
 604 449 671 418 715 369 c 0
 753 326 771 278 771 221 c 0
EndSplineSet
EndChar

StartChar: uni1F64
Encoding: 8036 8036 185
Width: 806
Flags: W
HStem: 396 53<532 535> 499 28<269.5 277 269.5 301> 674 20G<304 325.5>
VStem: 34 112<155 244.5 155 249.5> 403 55<148 159 159 159> 659 112<157 237>
LayerCount: 2
Fore
SplineSet
426 669 m 0
 436 716 493 728 530 691 c 0
 539 680 544 669 544 657 c 0
 544 636 537 630 485 557 c 2
 436 490 l 1
 415 498 l 1
 415 502 l 2
 415 513 425 663 426 669 c 0
255 633 m 0
 255 682 293 694 315 694 c 0
 336 694 406 680 412 602 c 0
 415 525 327 499 275 499 c 0
 254 499 252 512 255 519 c 0
 258 525 262 527 277 527 c 0
 338 530 383 553 383 597 c 0
 383 609 378 624 377 628 c 1
 372 614 365 572 315 572 c 0
 281 572 255 595 255 633 c 0
771 221 m 0
 771 93 690 -10 579 -6 c 0
 484 -1 408 65 403 148 c 1
 403 159 l 1
 402 148 l 2
 397 64 321 -1 226 -6 c 0
 122 -9 34 85 34 221 c 0
 34 278 52 326 90 369 c 0
 140 425 212 450 271 450 c 0
 282 449 301 448 301 423 c 0
 301 412 296 396 270 396 c 0
 161 387 146 263 146 226 c 0
 146 84 202 49 246 49 c 0
 288 49 330 73 345 129 c 2
 347 139 l 1
 347 267 l 2
 347 311 347 314 353 325 c 0
 363 344 387 356 410 352 c 0
 434 349 451 335 456 313 c 0
 458 308 458 301 458 267 c 2
 458 139 l 1
 460 129 l 1
 476 73 519 49 559 49 c 0
 603 49 659 84 659 226 c 0
 659 248 656 297 626 341 c 0
 604 375 573 393 535 396 c 0
 509 396 504 411 504 423 c 0
 504 432 509 442 519 448 c 0
 522 449 525 449 539 449 c 0
 604 449 671 418 715 369 c 0
 753 326 771 278 771 221 c 0
EndSplineSet
EndChar

StartChar: uni1F62
Encoding: 8034 8034 186
Width: 806
Flags: MW
HStem: 396 53<532 535> 499 28<241.5 249 241.5 273> 674 20G<276 297.5>
VStem: 34 112<155 244.5 155 249.5> 355 29 403 55<148 159 159 159> 659 112<157 237>
LayerCount: 2
Fore
SplineSet
391 657 m 0
 391 692 432 719 471 711 c 0
 490 706 504 690 509 669 c 0
 510 663 520 513 520 502 c 2
 520 498 l 1
 499 490 l 1
 450 557 l 2
 398 630 391 635 391 657 c 0
227 633 m 0
 227 682 265 694 287 694 c 0
 308 694 378 680 384 602 c 0
 387 525 299 499 247 499 c 0
 226 499 224 512 227 519 c 0
 230 525 234 527 249 527 c 0
 310 530 355 553 355 597 c 0
 355 609 350 624 349 628 c 1
 344 614 337 572 287 572 c 0
 253 572 227 595 227 633 c 0
771 221 m 0
 771 93 690 -10 579 -6 c 0
 484 -1 408 65 403 148 c 1
 403 159 l 1
 402 148 l 2
 397 64 321 -1 226 -6 c 0
 122 -9 34 85 34 221 c 0
 34 278 52 326 90 369 c 0
 140 425 212 450 271 450 c 0
 282 449 301 448 301 423 c 0
 301 412 296 396 270 396 c 0
 161 387 146 263 146 226 c 0
 146 84 202 49 246 49 c 0
 288 49 330 73 345 129 c 2
 347 139 l 1
 347 267 l 2
 347 311 347 314 353 325 c 0
 363 344 387 356 410 352 c 0
 434 349 451 335 456 313 c 0
 458 308 458 301 458 267 c 2
 458 139 l 1
 460 129 l 1
 476 73 519 49 559 49 c 0
 603 49 659 84 659 226 c 0
 659 248 656 297 626 341 c 0
 604 375 573 393 535 396 c 0
 509 396 504 411 504 423 c 0
 504 432 509 442 519 448 c 0
 522 449 525 449 539 449 c 0
 604 449 671 418 715 369 c 0
 753 326 771 278 771 221 c 0
EndSplineSet
EndChar

StartChar: uni1FF4
Encoding: 8180 8180 187
Width: 806
Flags: MW
HStem: 396 53<532 535>
VStem: 34 112<155 244.5 155 249.5> 403 55<148 159 159 159> 509 38<-151 -112.5> 659 112<157 237>
LayerCount: 2
Fore
SplineSet
386 669 m 0
 396 716 453 728 490 691 c 0
 499 680 504 669 504 657 c 0
 504 636 497 630 445 557 c 2
 396 490 l 1
 375 498 l 1
 375 502 l 2
 375 513 385 663 386 669 c 0
771 221 m 0
 771 93 690 -10 579 -6 c 0
 484 -1 408 65 403 148 c 1
 403 159 l 1
 402 148 l 2
 397 64 321 -1 226 -6 c 0
 122 -9 34 85 34 221 c 0
 34 278 52 326 90 369 c 0
 140 425 212 450 271 450 c 0
 282 449 301 448 301 423 c 0
 301 412 296 396 270 396 c 0
 161 387 146 263 146 226 c 0
 146 84 202 49 246 49 c 0
 288 49 330 73 345 129 c 2
 347 139 l 1
 347 267 l 2
 347 311 347 314 353 325 c 0
 363 344 387 356 410 352 c 0
 434 349 451 335 456 313 c 0
 458 308 458 301 458 267 c 2
 458 139 l 1
 460 129 l 1
 476 73 519 49 559 49 c 0
 603 49 659 84 659 226 c 0
 659 248 656 297 626 341 c 0
 604 375 573 393 535 396 c 0
 509 396 504 411 504 423 c 0
 504 432 509 442 519 448 c 0
 522 449 525 449 539 449 c 0
 604 449 671 418 715 369 c 0
 753 326 771 278 771 221 c 0
518 -97 m 0
 523 -97 547 -105 547 -151 c 0
 546 -168 543 -180 535 -196 c 0
 517 -230 480 -252 443 -250 c 0
 401 -247 363 -217 350 -156 c 0
 348 -148 348 -143 347 -115 c 0
 347 -76 344 -45 394 -34 c 0
 397 -33 415 -34 420 -35 c 0
 464 -50 459 -93 459 -110 c 0
 459 -156 463 -178 484 -178 c 0
 506 -178 506 -152 509 -122 c 0
 509 -103 510 -97 518 -97 c 0
EndSplineSet
EndChar

StartChar: uni1FA5
Encoding: 8101 8101 188
Width: 806
Flags: MW
HStem: 396 53<532 535> 499 28<382 386.5> 674 20G<332 355>
VStem: 34 112<155 244.5 155 249.5> 247 29<575.5 603.5 575.5 636> 403 55<148 159 159 159> 509 38<-151 -112.5> 659 112<157 237>
LayerCount: 2
Fore
SplineSet
426 669 m 0
 436 716 493 728 530 691 c 0
 539 680 544 669 544 657 c 0
 544 636 537 630 485 557 c 2
 436 490 l 1
 415 498 l 1
 415 502 l 2
 415 513 425 663 426 669 c 0
380 499 m 0
 304 502 247 538 247 598 c 0
 247 674 321 694 343 694 c 0
 367 694 404 680 404 633 c 0
 404 595 378 572 344 572 c 0
 317 572 290 587 282 628 c 1
 279 616 276 610 276 597 c 0
 276 554 320 530 382 527 c 0
 414 527 405 505 398 501 c 0
 394 499 393 499 380 499 c 0
771 221 m 0
 771 93 690 -10 579 -6 c 0
 484 -1 408 65 403 148 c 1
 403 159 l 1
 402 148 l 2
 397 64 321 -1 226 -6 c 0
 122 -9 34 85 34 221 c 0
 34 278 52 326 90 369 c 0
 140 425 212 450 271 450 c 0
 282 449 301 448 301 423 c 0
 301 412 296 396 270 396 c 0
 161 387 146 263 146 226 c 0
 146 84 202 49 246 49 c 0
 288 49 330 73 345 129 c 2
 347 139 l 1
 347 267 l 2
 347 311 347 314 353 325 c 0
 363 344 387 356 410 352 c 0
 434 349 451 335 456 313 c 0
 458 308 458 301 458 267 c 2
 458 139 l 1
 460 129 l 1
 476 73 519 49 559 49 c 0
 603 49 659 84 659 226 c 0
 659 248 656 297 626 341 c 0
 604 375 573 393 535 396 c 0
 509 396 504 411 504 423 c 0
 504 432 509 442 519 448 c 0
 522 449 525 449 539 449 c 0
 604 449 671 418 715 369 c 0
 753 326 771 278 771 221 c 0
518 -97 m 0
 523 -97 547 -105 547 -151 c 0
 546 -168 543 -180 535 -196 c 0
 517 -230 480 -252 443 -250 c 0
 401 -247 363 -217 350 -156 c 0
 348 -148 348 -143 347 -115 c 0
 347 -76 344 -45 394 -34 c 0
 397 -33 415 -34 420 -35 c 0
 464 -50 459 -93 459 -110 c 0
 459 -156 463 -178 484 -178 c 0
 506 -178 506 -152 509 -122 c 0
 509 -103 510 -97 518 -97 c 0
EndSplineSet
EndChar

StartChar: uni1FA4
Encoding: 8100 8100 189
Width: 806
Flags: W
HStem: 396 53<532 535> 499 28<269.5 277 269.5 301> 674 20G<304 325.5>
VStem: 34 112<155 244.5 155 249.5> 403 55<148 159 159 159> 509 38<-151 -112.5> 659 112<157 237>
LayerCount: 2
Fore
SplineSet
426 669 m 0
 436 716 493 728 530 691 c 0
 539 680 544 669 544 657 c 0
 544 636 537 630 485 557 c 2
 436 490 l 1
 415 498 l 1
 415 502 l 2
 415 513 425 663 426 669 c 0
255 633 m 0
 255 682 293 694 315 694 c 0
 336 694 406 680 412 602 c 0
 415 525 327 499 275 499 c 0
 254 499 252 512 255 519 c 0
 258 525 262 527 277 527 c 0
 338 530 383 553 383 597 c 0
 383 609 378 624 377 628 c 1
 372 614 365 572 315 572 c 0
 281 572 255 595 255 633 c 0
771 221 m 0
 771 93 690 -10 579 -6 c 0
 484 -1 408 65 403 148 c 1
 403 159 l 1
 402 148 l 2
 397 64 321 -1 226 -6 c 0
 122 -9 34 85 34 221 c 0
 34 278 52 326 90 369 c 0
 140 425 212 450 271 450 c 0
 282 449 301 448 301 423 c 0
 301 412 296 396 270 396 c 0
 161 387 146 263 146 226 c 0
 146 84 202 49 246 49 c 0
 288 49 330 73 345 129 c 2
 347 139 l 1
 347 267 l 2
 347 311 347 314 353 325 c 0
 363 344 387 356 410 352 c 0
 434 349 451 335 456 313 c 0
 458 308 458 301 458 267 c 2
 458 139 l 1
 460 129 l 1
 476 73 519 49 559 49 c 0
 603 49 659 84 659 226 c 0
 659 248 656 297 626 341 c 0
 604 375 573 393 535 396 c 0
 509 396 504 411 504 423 c 0
 504 432 509 442 519 448 c 0
 522 449 525 449 539 449 c 0
 604 449 671 418 715 369 c 0
 753 326 771 278 771 221 c 0
518 -97 m 0
 523 -97 547 -105 547 -151 c 0
 546 -168 543 -180 535 -196 c 0
 517 -230 480 -252 443 -250 c 0
 401 -247 363 -217 350 -156 c 0
 348 -148 348 -143 347 -115 c 0
 347 -76 344 -45 394 -34 c 0
 397 -33 415 -34 420 -35 c 0
 464 -50 459 -93 459 -110 c 0
 459 -156 463 -178 484 -178 c 0
 506 -178 506 -152 509 -122 c 0
 509 -103 510 -97 518 -97 c 0
EndSplineSet
EndChar

StartChar: uni1FA2
Encoding: 8098 8098 190
Width: 806
Flags: MW
HStem: 396 53<532 535> 499 28<241.5 249 241.5 273> 674 20G<276 297.5>
VStem: 34 112<155 244.5 155 249.5> 355 29 403 55<148 159 159 159> 509 38<-151 -112.5> 659 112<157 237>
LayerCount: 2
Fore
SplineSet
391 657 m 0
 391 692 432 719 471 711 c 0
 490 706 504 690 509 669 c 0
 510 663 520 513 520 502 c 2
 520 498 l 1
 499 490 l 1
 450 557 l 2
 398 630 391 635 391 657 c 0
227 633 m 0
 227 682 265 694 287 694 c 0
 308 694 378 680 384 602 c 0
 387 525 299 499 247 499 c 0
 226 499 224 512 227 519 c 0
 230 525 234 527 249 527 c 0
 310 530 355 553 355 597 c 0
 355 609 350 624 349 628 c 1
 344 614 337 572 287 572 c 0
 253 572 227 595 227 633 c 0
771 221 m 0
 771 93 690 -10 579 -6 c 0
 484 -1 408 65 403 148 c 1
 403 159 l 1
 402 148 l 2
 397 64 321 -1 226 -6 c 0
 122 -9 34 85 34 221 c 0
 34 278 52 326 90 369 c 0
 140 425 212 450 271 450 c 0
 282 449 301 448 301 423 c 0
 301 412 296 396 270 396 c 0
 161 387 146 263 146 226 c 0
 146 84 202 49 246 49 c 0
 288 49 330 73 345 129 c 2
 347 139 l 1
 347 267 l 2
 347 311 347 314 353 325 c 0
 363 344 387 356 410 352 c 0
 434 349 451 335 456 313 c 0
 458 308 458 301 458 267 c 2
 458 139 l 1
 460 129 l 1
 476 73 519 49 559 49 c 0
 603 49 659 84 659 226 c 0
 659 248 656 297 626 341 c 0
 604 375 573 393 535 396 c 0
 509 396 504 411 504 423 c 0
 504 432 509 442 519 448 c 0
 522 449 525 449 539 449 c 0
 604 449 671 418 715 369 c 0
 753 326 771 278 771 221 c 0
518 -97 m 0
 523 -97 547 -105 547 -151 c 0
 546 -168 543 -180 535 -196 c 0
 517 -230 480 -252 443 -250 c 0
 401 -247 363 -217 350 -156 c 0
 348 -148 348 -143 347 -115 c 0
 347 -76 344 -45 394 -34 c 0
 397 -33 415 -34 420 -35 c 0
 464 -50 459 -93 459 -110 c 0
 459 -156 463 -178 484 -178 c 0
 506 -178 506 -152 509 -122 c 0
 509 -103 510 -97 518 -97 c 0
EndSplineSet
EndChar

StartChar: uni1FF6
Encoding: 8182 8182 191
Width: 806
Flags: MW
HStem: 396 53<532 535> 542 97<472 646.5>
VStem: 34 112<155 244.5 155 249.5> 403 55<148 159 159 159> 659 112<157 237>
LayerCount: 2
Fore
SplineSet
208 559 m 0
 208 542 199 542 171 542 c 0
 149 542 145 542 142 544 c 0
 134 548 132 555 135 570 c 0
 143 609 180 647 342 638 c 0
 454 630 467 576 526 579 c 0
 556 581 594 592 597 622 c 0
 597 639 606 639 634 639 c 0
 659 639 660 639 664 637 c 0
 671 633 673 625 669 610 c 0
 656 548 570 542 508 542 c 0
 436 542 400 548 348 579 c 0
 313 598 300 603 279 602 c 0
 249 600 211 589 208 559 c 0
771 221 m 0
 771 93 690 -10 579 -6 c 0
 484 -1 408 65 403 148 c 1
 403 159 l 1
 402 148 l 2
 397 64 321 -1 226 -6 c 0
 122 -9 34 85 34 221 c 0
 34 278 52 326 90 369 c 0
 140 425 212 450 271 450 c 0
 282 449 301 448 301 423 c 0
 301 412 296 396 270 396 c 0
 161 387 146 263 146 226 c 0
 146 84 202 49 246 49 c 0
 288 49 330 73 345 129 c 2
 347 139 l 1
 347 267 l 2
 347 311 347 314 353 325 c 0
 363 344 387 356 410 352 c 0
 434 349 451 335 456 313 c 0
 458 308 458 301 458 267 c 2
 458 139 l 1
 460 129 l 1
 476 73 519 49 559 49 c 0
 603 49 659 84 659 226 c 0
 659 248 656 297 626 341 c 0
 604 375 573 393 535 396 c 0
 509 396 504 411 504 423 c 0
 504 432 509 442 519 448 c 0
 522 449 525 449 539 449 c 0
 604 449 671 418 715 369 c 0
 753 326 771 278 771 221 c 0
EndSplineSet
EndChar

StartChar: uni1F67
Encoding: 8039 8039 192
Width: 806
Flags: W
HStem: 396 53<532 535> 488 28<416 420.5> 525 68<398 404 389 416.5> 596 98<464 650.5>
VStem: 34 112<155 244.5 155 249.5> 403 55<148 159 159 159> 659 112<157 237>
LayerCount: 2
Fore
SplineSet
193 612 m 0
 193 594 184 595 164 595 c 0
 135 595 132 601 135 623 c 0
 151 705 294 694 329 692 c 0
 415 680 447 652 475 643 c 0
 497 634 511 631 530 632 c 0
 579 635 609 651 612 677 c 0
 612 695 620 694 642 694 c 0
 659 694 661 694 664 692 c 0
 671 688 672 680 669 665 c 0
 658 606 580 596 523 596 c 0
 405 596 372 632 330 646 c 0
 308 655 294 658 275 657 c 0
 226 654 196 638 193 612 c 0
437 558 m 0
 437 547 431 525 402 525 c 0
 394 525 393 525 387 528 c 0
 381 531 381 531 383 528 c 0
 389 522 407 516 421 516 c 0
 441 516 438 495 430 490 c 0
 426 488 425 488 416 488 c 0
 361 492 351 525 350 538 c 0
 349 568 374 593 404 593 c 0
 411 592 437 588 437 558 c 0
771 221 m 0
 771 93 690 -10 579 -6 c 0
 484 -1 408 65 403 148 c 1
 403 159 l 1
 402 148 l 2
 397 64 321 -1 226 -6 c 0
 122 -9 34 85 34 221 c 0
 34 278 52 326 90 369 c 0
 140 425 212 450 271 450 c 0
 282 449 301 448 301 423 c 0
 301 412 296 396 270 396 c 0
 161 387 146 263 146 226 c 0
 146 84 202 49 246 49 c 0
 288 49 330 73 345 129 c 2
 347 139 l 1
 347 267 l 2
 347 311 347 314 353 325 c 0
 363 344 387 356 410 352 c 0
 434 349 451 335 456 313 c 0
 458 308 458 301 458 267 c 2
 458 139 l 1
 460 129 l 1
 476 73 519 49 559 49 c 0
 603 49 659 84 659 226 c 0
 659 248 656 297 626 341 c 0
 604 375 573 393 535 396 c 0
 509 396 504 411 504 423 c 0
 504 432 509 442 519 448 c 0
 522 449 525 449 539 449 c 0
 604 449 671 418 715 369 c 0
 753 326 771 278 771 221 c 0
EndSplineSet
EndChar

StartChar: uni1F66
Encoding: 8038 8038 193
Width: 806
Flags: MW
HStem: 396 53<532 535> 488 28<380.5 390> 525 67<392.5 407> 596 98<464 650.5>
VStem: 34 112<155 244.5 155 249.5> 403 55<148 159 159 159> 659 112<157 237>
LayerCount: 2
Fore
SplineSet
193 612 m 0
 193 594 184 595 164 595 c 0
 135 595 132 601 135 623 c 0
 151 705 294 694 329 692 c 0
 415 680 447 652 475 643 c 0
 497 634 511 631 530 632 c 0
 579 635 609 651 612 677 c 0
 612 695 620 694 642 694 c 0
 659 694 661 694 664 692 c 0
 671 688 672 680 669 665 c 0
 658 606 580 596 523 596 c 0
 405 596 372 632 330 646 c 0
 308 655 294 658 275 657 c 0
 226 654 196 638 193 612 c 0
368 559 m 0
 368 576 382 592 403 592 c 0
 443 592 467 548 448 517 c 0
 439 501 416 490 390 488 c 0
 367 488 366 501 369 508 c 0
 372 513 377 516 384 516 c 0
 398 516 416 522 422 528 c 0
 424 531 424 531 418 528 c 0
 412 525 411 525 403 525 c 0
 374 525 368 547 368 559 c 0
771 221 m 0
 771 93 690 -10 579 -6 c 0
 484 -1 408 65 403 148 c 1
 403 159 l 1
 402 148 l 2
 397 64 321 -1 226 -6 c 0
 122 -9 34 85 34 221 c 0
 34 278 52 326 90 369 c 0
 140 425 212 450 271 450 c 0
 282 449 301 448 301 423 c 0
 301 412 296 396 270 396 c 0
 161 387 146 263 146 226 c 0
 146 84 202 49 246 49 c 0
 288 49 330 73 345 129 c 2
 347 139 l 1
 347 267 l 2
 347 311 347 314 353 325 c 0
 363 344 387 356 410 352 c 0
 434 349 451 335 456 313 c 0
 458 308 458 301 458 267 c 2
 458 139 l 1
 460 129 l 1
 476 73 519 49 559 49 c 0
 603 49 659 84 659 226 c 0
 659 248 656 297 626 341 c 0
 604 375 573 393 535 396 c 0
 509 396 504 411 504 423 c 0
 504 432 509 442 519 448 c 0
 522 449 525 449 539 449 c 0
 604 449 671 418 715 369 c 0
 753 326 771 278 771 221 c 0
EndSplineSet
EndChar

StartChar: uni03DC
Encoding: 988 988 194
Width: 762
Flags: MW
HStem: 0 48<45 57 45 153 57 153 296 418 418 431> 316 48<296 340 296 340> 632 48<45 153 45 680 296 296 296 391>
VStem: 465 54<199 218 218 218 462 481 199 481> 657 54<438 442 438 443>
LayerCount: 2
Fore
SplineSet
418 0 m 2
 395 3 81 3 57 0 c 2
 45 0 l 1
 45 48 l 1
 153 48 l 1
 153 632 l 1
 45 632 l 1
 45 680 l 1
 680 680 l 1
 680 676 l 1
 684 667 707 450 711 442 c 1
 711 438 l 1
 657 438 l 1
 657 448 649 509 630 548 c 0
 584 645 475 631 391 632 c 2
 296 632 l 1
 296 364 l 1
 340 364 l 2
 400 365 441 365 459 418 c 0
 462 430 464 442 465 462 c 2
 465 481 l 1
 519 481 l 1
 519 199 l 1
 465 199 l 1
 465 218 l 2
 463 258 456 297 411 310 c 0
 394 315 387 315 340 316 c 2
 296 316 l 1
 296 48 l 1
 431 48 l 1
 431 0 l 1
 418 0 l 2
EndSplineSet
EndChar

StartChar: uni1FF7
Encoding: 8183 8183 195
Width: 806
Flags: MW
HStem: 396 53<532 535> 542 97<472 646.5>
VStem: 34 112<155 244.5 155 249.5> 403 55<148 159 159 159> 509 38<-151 -112.5> 659 112<157 237>
LayerCount: 2
Fore
SplineSet
208 559 m 0
 208 542 199 542 171 542 c 0
 149 542 145 542 142 544 c 0
 134 548 132 555 135 570 c 0
 143 609 180 647 342 638 c 0
 454 630 467 576 526 579 c 0
 556 581 594 592 597 622 c 0
 597 639 606 639 634 639 c 0
 659 639 660 639 664 637 c 0
 671 633 673 625 669 610 c 0
 656 548 570 542 508 542 c 0
 436 542 400 548 348 579 c 0
 313 598 300 603 279 602 c 0
 249 600 211 589 208 559 c 0
771 221 m 0
 771 93 690 -10 579 -6 c 0
 484 -1 408 65 403 148 c 1
 403 159 l 1
 402 148 l 2
 397 64 321 -1 226 -6 c 0
 122 -9 34 85 34 221 c 0
 34 278 52 326 90 369 c 0
 140 425 212 450 271 450 c 0
 282 449 301 448 301 423 c 0
 301 412 296 396 270 396 c 0
 161 387 146 263 146 226 c 0
 146 84 202 49 246 49 c 0
 288 49 330 73 345 129 c 2
 347 139 l 1
 347 267 l 2
 347 311 347 314 353 325 c 0
 363 344 387 356 410 352 c 0
 434 349 451 335 456 313 c 0
 458 308 458 301 458 267 c 2
 458 139 l 1
 460 129 l 1
 476 73 519 49 559 49 c 0
 603 49 659 84 659 226 c 0
 659 248 656 297 626 341 c 0
 604 375 573 393 535 396 c 0
 509 396 504 411 504 423 c 0
 504 432 509 442 519 448 c 0
 522 449 525 449 539 449 c 0
 604 449 671 418 715 369 c 0
 753 326 771 278 771 221 c 0
518 -97 m 0
 523 -97 547 -105 547 -151 c 0
 546 -168 543 -180 535 -196 c 0
 517 -230 480 -252 443 -250 c 0
 401 -247 363 -217 350 -156 c 0
 348 -148 348 -143 347 -115 c 0
 347 -76 344 -45 394 -34 c 0
 397 -33 415 -34 420 -35 c 0
 464 -50 459 -93 459 -110 c 0
 459 -156 463 -178 484 -178 c 0
 506 -178 506 -152 509 -122 c 0
 509 -103 510 -97 518 -97 c 0
EndSplineSet
EndChar

StartChar: uni1FA7
Encoding: 8103 8103 196
Width: 806
Flags: W
HStem: 396 53<532 535> 488 28<416 420.5> 525 68<398 404 389 416.5> 596 98<464 650.5>
VStem: 34 112<155 244.5 155 249.5> 350 87 509 38<-151 -112.5> 659 112<157 237>
LayerCount: 2
Fore
SplineSet
193 612 m 0
 193 594 184 595 164 595 c 0
 135 595 132 601 135 623 c 0
 151 705 294 694 329 692 c 0
 415 680 447 652 475 643 c 0
 497 634 511 631 530 632 c 0
 579 635 609 651 612 677 c 0
 612 695 620 694 642 694 c 0
 659 694 661 694 664 692 c 0
 671 688 672 680 669 665 c 0
 658 606 580 596 523 596 c 0
 405 596 372 632 330 646 c 0
 308 655 294 658 275 657 c 0
 226 654 196 638 193 612 c 0
437 558 m 0
 437 547 431 525 402 525 c 0
 394 525 393 525 387 528 c 0
 381 531 381 531 383 528 c 0
 389 522 407 516 421 516 c 0
 441 516 438 495 430 490 c 0
 426 488 425 488 416 488 c 0
 361 492 351 525 350 538 c 0
 349 568 374 593 404 593 c 0
 411 592 437 588 437 558 c 0
771 221 m 0
 771 93 690 -10 579 -6 c 0
 484 -1 408 65 403 148 c 1
 403 159 l 1
 402 148 l 2
 397 64 321 -1 226 -6 c 0
 122 -9 34 85 34 221 c 0
 34 278 52 326 90 369 c 0
 140 425 212 450 271 450 c 0
 282 449 301 448 301 423 c 0
 301 412 296 396 270 396 c 0
 161 387 146 263 146 226 c 0
 146 84 202 49 246 49 c 0
 288 49 330 73 345 129 c 2
 347 139 l 1
 347 267 l 2
 347 311 347 314 353 325 c 0
 363 344 387 356 410 352 c 0
 434 349 451 335 456 313 c 0
 458 308 458 301 458 267 c 2
 458 139 l 1
 460 129 l 1
 476 73 519 49 559 49 c 0
 603 49 659 84 659 226 c 0
 659 248 656 297 626 341 c 0
 604 375 573 393 535 396 c 0
 509 396 504 411 504 423 c 0
 504 432 509 442 519 448 c 0
 522 449 525 449 539 449 c 0
 604 449 671 418 715 369 c 0
 753 326 771 278 771 221 c 0
518 -97 m 0
 523 -97 547 -105 547 -151 c 0
 546 -168 543 -180 535 -196 c 0
 517 -230 480 -252 443 -250 c 0
 401 -247 363 -217 350 -156 c 0
 348 -148 348 -143 347 -115 c 0
 347 -76 344 -45 394 -34 c 0
 397 -33 415 -34 420 -35 c 0
 464 -50 459 -93 459 -110 c 0
 459 -156 463 -178 484 -178 c 0
 506 -178 506 -152 509 -122 c 0
 509 -103 510 -97 518 -97 c 0
EndSplineSet
EndChar

StartChar: uni1FA6
Encoding: 8102 8102 197
Width: 806
Flags: MW
HStem: 396 53<532 535> 488 28<380.5 390> 525 67<392.5 407> 596 98<464 650.5>
VStem: 34 112<155 244.5 155 249.5> 403 55<148 159 159 159> 509 38<-151 -112.5> 659 112<157 237>
LayerCount: 2
Fore
SplineSet
193 612 m 0
 193 594 184 595 164 595 c 0
 135 595 132 601 135 623 c 0
 151 705 294 694 329 692 c 0
 415 680 447 652 475 643 c 0
 497 634 511 631 530 632 c 0
 579 635 609 651 612 677 c 0
 612 695 620 694 642 694 c 0
 659 694 661 694 664 692 c 0
 671 688 672 680 669 665 c 0
 658 606 580 596 523 596 c 0
 405 596 372 632 330 646 c 0
 308 655 294 658 275 657 c 0
 226 654 196 638 193 612 c 0
368 559 m 0
 368 576 382 592 403 592 c 0
 443 592 467 548 448 517 c 0
 439 501 416 490 390 488 c 0
 367 488 366 501 369 508 c 0
 372 513 377 516 384 516 c 0
 398 516 416 522 422 528 c 0
 424 531 424 531 418 528 c 0
 412 525 411 525 403 525 c 0
 374 525 368 547 368 559 c 0
771 221 m 0
 771 93 690 -10 579 -6 c 0
 484 -1 408 65 403 148 c 1
 403 159 l 1
 402 148 l 2
 397 64 321 -1 226 -6 c 0
 122 -9 34 85 34 221 c 0
 34 278 52 326 90 369 c 0
 140 425 212 450 271 450 c 0
 282 449 301 448 301 423 c 0
 301 412 296 396 270 396 c 0
 161 387 146 263 146 226 c 0
 146 84 202 49 246 49 c 0
 288 49 330 73 345 129 c 2
 347 139 l 1
 347 267 l 2
 347 311 347 314 353 325 c 0
 363 344 387 356 410 352 c 0
 434 349 451 335 456 313 c 0
 458 308 458 301 458 267 c 2
 458 139 l 1
 460 129 l 1
 476 73 519 49 559 49 c 0
 603 49 659 84 659 226 c 0
 659 248 656 297 626 341 c 0
 604 375 573 393 535 396 c 0
 509 396 504 411 504 423 c 0
 504 432 509 442 519 448 c 0
 522 449 525 449 539 449 c 0
 604 449 671 418 715 369 c 0
 753 326 771 278 771 221 c 0
518 -97 m 0
 523 -97 547 -105 547 -151 c 0
 546 -168 543 -180 535 -196 c 0
 517 -230 480 -252 443 -250 c 0
 401 -247 363 -217 350 -156 c 0
 348 -148 348 -143 347 -115 c 0
 347 -76 344 -45 394 -34 c 0
 397 -33 415 -34 420 -35 c 0
 464 -50 459 -93 459 -110 c 0
 459 -156 463 -178 484 -178 c 0
 506 -178 506 -152 509 -122 c 0
 509 -103 510 -97 518 -97 c 0
EndSplineSet
EndChar

StartChar: uni1F76
Encoding: 8054 8054 198
Width: 302
Flags: MW
HStem: 0 48<39 47 39 94 47 94 207 254 254 262> 396 48<39 94 39 116>
LayerCount: 2
Fore
SplineSet
49 657 m 0
 49 692 90 719 129 711 c 0
 148 706 162 690 167 669 c 0
 168 663 178 513 178 502 c 2
 178 498 l 1
 157 490 l 1
 108 557 l 2
 56 630 49 635 49 657 c 0
254 0 m 2
 242 3 60 3 47 0 c 2
 39 0 l 1
 39 48 l 1
 94 48 l 1
 94 396 l 1
 39 396 l 1
 39 444 l 1
 116 444 l 2
 196 444 195 449 207 431 c 1
 207 48 l 1
 262 48 l 1
 262 0 l 1
 254 0 l 2
EndSplineSet
EndChar

StartChar: uni1F31
Encoding: 7985 7985 199
Width: 302
Flags: MW
HStem: 0 48<39 47 39 94 47 94 207 254 254 262> 396 48<39 94 39 116> 499 28<205 209.5> 674 20G<155 178>
VStem: 70 29<575.5 603.5 575.5 636>
LayerCount: 2
Fore
SplineSet
203 499 m 0
 127 502 70 538 70 598 c 0
 70 674 144 694 166 694 c 0
 190 694 227 680 227 633 c 0
 227 595 201 572 167 572 c 0
 140 572 113 587 105 628 c 1
 102 616 99 610 99 597 c 0
 99 554 143 530 205 527 c 0
 237 527 228 505 221 501 c 0
 217 499 216 499 203 499 c 0
254 0 m 2
 242 3 60 3 47 0 c 2
 39 0 l 1
 39 48 l 1
 94 48 l 1
 94 396 l 1
 39 396 l 1
 39 444 l 1
 116 444 l 2
 196 444 195 449 207 431 c 1
 207 48 l 1
 262 48 l 1
 262 0 l 1
 254 0 l 2
EndSplineSet
EndChar

StartChar: uni1F30
Encoding: 7984 7984 200
Width: 302
Flags: MW
HStem: 0 48<39 47 39 94 47 94 207 254 254 262> 396 48<39 94 39 116> 499 28<88.5 96 88.5 120> 674 20G<123 144.5>
VStem: 202 29
LayerCount: 2
Fore
SplineSet
74 633 m 0
 74 682 112 694 134 694 c 0
 155 694 225 680 231 602 c 0
 234 525 146 499 94 499 c 0
 73 499 71 512 74 519 c 0
 77 525 81 527 96 527 c 0
 157 530 202 553 202 597 c 0
 202 609 197 624 196 628 c 1
 191 614 184 572 134 572 c 0
 100 572 74 595 74 633 c 0
254 0 m 2
 242 3 60 3 47 0 c 2
 39 0 l 1
 39 48 l 1
 94 48 l 1
 94 396 l 1
 39 396 l 1
 39 444 l 1
 116 444 l 2
 196 444 195 449 207 431 c 1
 207 48 l 1
 262 48 l 1
 262 0 l 1
 254 0 l 2
EndSplineSet
EndChar

StartChar: uni1F33
Encoding: 7987 7987 201
Width: 302
Flags: MW
HStem: 0 48<39 47 39 94 47 94 207 254 254 262> 396 48<39 94 39 116> 499 28<100 104.5> 674 20G<50 73>
VStem: -35 29<575.5 603.5 575.5 636>
LayerCount: 2
Fore
SplineSet
139 657 m 0
 139 692 180 719 219 711 c 0
 238 706 252 690 257 669 c 0
 258 663 268 513 268 502 c 2
 268 498 l 1
 247 490 l 1
 198 557 l 2
 146 630 139 635 139 657 c 0
98 499 m 0
 22 502 -35 538 -35 598 c 0
 -35 674 39 694 61 694 c 0
 85 694 122 680 122 633 c 0
 122 595 96 572 62 572 c 0
 25 572 5 598 0 628 c 1
 -3 616 -6 610 -6 597 c 0
 -6 554 38 530 100 527 c 0
 132 527 123 505 116 501 c 0
 112 499 111 499 98 499 c 0
254 0 m 2
 242 3 60 3 47 0 c 2
 39 0 l 1
 39 48 l 1
 94 48 l 1
 94 396 l 1
 39 396 l 1
 39 444 l 1
 116 444 l 2
 196 444 195 449 207 431 c 1
 207 48 l 1
 262 48 l 1
 262 0 l 1
 254 0 l 2
EndSplineSet
EndChar

StartChar: uni1F7A
Encoding: 8058 8058 202
Width: 605
Flags: MW
HStem: -6 54<277 327> 396 48<14 69 14 90 367 375 375 423 535 583 583 590 535 535>
VStem: 69 112<319 348.5 319 396 319 396>
LayerCount: 2
Fore
SplineSet
200 656 m 0
 200 689 232 709 259 712 c 0
 274 715 294 709 305 696 c 0
 310 691 315 680 318 672 c 0
 319 665 331 499 329 498 c 0
 321 494 309 489 308 492 c 0
 305 495 213 621 209 627 c 0
 203 637 200 647 200 656 c 0
375 444 m 2
 388 441 570 441 583 444 c 2
 590 444 l 1
 590 396 l 1
 535 396 l 1
 535 312 l 2
 535 241 554 135 440 40 c 0
 398 10 352 -6 302 -6 c 0
 252 -6 206 10 164 40 c 1
 108 87 76 142 70 214 c 0
 69 222 69 263 69 312 c 2
 69 396 l 1
 14 396 l 1
 14 444 l 1
 90 444 l 2
 162 444 167 444 171 442 c 0
 176 440 180 435 180 431 c 0
 181 429 181 378 181 319 c 0
 182 202 182 202 187 175 c 0
 198 117 233 48 302 48 c 0
 371 48 406 117 417 175 c 0
 422 202 422 203 423 303 c 2
 423 396 l 1
 367 396 l 1
 367 444 l 1
 375 444 l 2
EndSplineSet
EndChar

StartChar: uni1F51
Encoding: 8017 8017 203
Width: 605
Flags: MW
HStem: -6 54<277 327> 396 48<14 69 14 90 367 375 375 423 535 583 583 590 535 535> 499 28<340 344.5> 674 20G<290 313>
VStem: 69 112<319 348.5 319 396 319 396> 205 29<575.5 603.5 575.5 636>
LayerCount: 2
Fore
SplineSet
338 499 m 0
 262 502 205 538 205 598 c 0
 205 674 279 694 301 694 c 0
 325 694 362 680 362 633 c 0
 362 595 336 572 302 572 c 0
 265 572 245 598 240 628 c 1
 237 616 234 610 234 597 c 0
 234 554 278 530 340 527 c 0
 372 527 363 505 356 501 c 0
 352 499 351 499 338 499 c 0
375 444 m 2
 388 441 570 441 583 444 c 2
 590 444 l 1
 590 396 l 1
 535 396 l 1
 535 312 l 2
 535 241 554 135 440 40 c 0
 398 10 352 -6 302 -6 c 0
 252 -6 206 10 164 40 c 1
 108 87 76 142 70 214 c 0
 69 222 69 263 69 312 c 2
 69 396 l 1
 14 396 l 1
 14 444 l 1
 90 444 l 2
 162 444 167 444 171 442 c 0
 176 440 180 435 180 431 c 0
 181 429 181 378 181 319 c 0
 182 202 182 202 187 175 c 0
 198 117 233 48 302 48 c 0
 371 48 406 117 417 175 c 0
 422 202 422 203 423 303 c 2
 423 396 l 1
 367 396 l 1
 367 444 l 1
 375 444 l 2
EndSplineSet
EndChar

